G04 EAGLE Gerber RS-274X export*
G75*
%MOMM*%
%FSLAX34Y34*%
%LPD*%
%INTop Copper*%
%IPPOS*%
%AMOC8*
5,1,8,0,0,1.08239X$1,22.5*%
G01*
%ADD10P,1.732040X8X22.500000*%
%ADD11P,1.732040X8X112.500000*%
%ADD12P,1.732040X8X292.500000*%
%ADD13C,1.879600*%
%ADD14C,1.320800*%
%ADD15R,1.308000X1.308000*%
%ADD16R,1.508000X1.508000*%
%ADD17P,1.814519X8X202.500000*%
%ADD18C,0.609600*%
%ADD19C,0.304800*%


D10*
X107950Y139700D03*
X133350Y139700D03*
D11*
X184150Y19050D03*
X184150Y44450D03*
D12*
X190500Y196850D03*
X190500Y171450D03*
D13*
X114150Y77000D03*
X139550Y77000D03*
X164950Y77000D03*
X190350Y77000D03*
D14*
X189704Y108900D02*
X176496Y108900D01*
X113504Y108900D02*
X100296Y108900D01*
D15*
X297700Y114850D03*
X221500Y114850D03*
X297700Y140250D03*
X297700Y165650D03*
X297700Y191050D03*
X221500Y191050D03*
X221500Y165650D03*
X221500Y140250D03*
X221500Y89450D03*
X221500Y64050D03*
X221500Y38650D03*
X297700Y89450D03*
X297700Y64050D03*
X297700Y38650D03*
X60000Y145400D03*
X60000Y170800D03*
X60000Y196200D03*
X60000Y94600D03*
X60000Y69200D03*
X60000Y43800D03*
D16*
X18000Y20000D03*
X18000Y220000D03*
D17*
X155400Y19050D03*
X104600Y19050D03*
X155400Y44450D03*
X104600Y44450D03*
D18*
X176911Y183261D02*
X190500Y196850D01*
X209550Y215900D01*
X272850Y215900D02*
X297700Y191050D01*
X272850Y215900D02*
X209550Y215900D01*
X176911Y115089D02*
X183100Y108900D01*
X176911Y115089D02*
X176911Y183261D01*
D19*
X200372Y104481D02*
X194123Y98232D01*
X160782Y98232D02*
X139550Y77000D01*
X160782Y98232D02*
X194123Y98232D01*
X200372Y119122D02*
X221500Y140250D01*
X200372Y119122D02*
X200372Y104481D01*
X210896Y157427D02*
X210896Y173873D01*
X221500Y146823D02*
X221500Y140250D01*
X221500Y184477D02*
X221500Y191050D01*
X210896Y157427D02*
X221500Y146823D01*
X210896Y173873D02*
X221500Y184477D01*
X114150Y77000D02*
X100800Y77000D01*
X38100Y139700D01*
X38100Y174300D01*
X60000Y196200D01*
D18*
X106900Y138650D02*
X106900Y108900D01*
X106900Y138650D02*
X107950Y139700D01*
X102250Y145400D01*
X60000Y145400D01*
D19*
X82550Y41100D02*
X104600Y19050D01*
X82550Y41100D02*
X82550Y50800D01*
X64150Y69200D01*
X60000Y69200D01*
X104600Y44450D02*
X130000Y44450D01*
X155400Y19050D01*
X184150Y19050D01*
X184150Y44450D02*
X155400Y44450D01*
X238454Y148696D02*
X221500Y165650D01*
X238454Y148696D02*
X238454Y131269D01*
X221500Y108277D02*
X210896Y97673D01*
X210896Y71196D02*
X184150Y44450D01*
X210896Y71196D02*
X210896Y97673D01*
X221500Y114850D02*
X237919Y131269D01*
X238454Y131269D01*
X221500Y114850D02*
X221500Y108277D01*
M02*
