M48
;GenerationSoftware,Autodesk,EAGLE,9.5.2*%
;CreationDate,2020-07-16T20:53:37Z*%
FMAT,2
ICI,OFF
METRIC,TZ,000.000
T5C0.800
T4C0.813
T3C1.000
T2C1.016
T1C3.400
%
G90
M71
T1
X12320Y18850
T2
X11415Y7700
X13955Y7700
X16495Y7700
X19035Y7700
T3
X1800Y22000
X1800Y2000
T4
X10795Y13970
X13335Y13970
X18415Y1905
X18415Y4445
X19050Y19685
X19050Y17145
X18310Y10890
X10690Y10890
X10460Y4445
X15540Y1905
X10460Y1905
X15540Y4445
T5
X29770Y11485
X22150Y11485
X29770Y14025
X29770Y16565
X22150Y3865
X29770Y8945
X29770Y6405
X29770Y3865
X6000Y14540
X6000Y17080
X6000Y19620
X6000Y9460
X6000Y6920
X6000Y4380
X22150Y19105
X29770Y19105
X22150Y14025
X22150Y8945
X22150Y6405
X22150Y16565
M30