G04 EAGLE Gerber RS-274X export*
G75*
%MOMM*%
%FSLAX34Y34*%
%LPD*%
%INSilkscreen Top*%
%IPPOS*%
%AMOC8*
5,1,8,0,0,1.08239X$1,22.5*%
G01*
%ADD10C,0.076200*%
%ADD11C,0.050800*%
%ADD12C,0.152400*%
%ADD13C,0.254000*%
%ADD14C,0.203200*%
%ADD15R,1.143000X0.508000*%
%ADD16C,0.127000*%
%ADD17C,0.015238*%


D10*
X19431Y45847D02*
X21886Y38481D01*
X24342Y45847D01*
X28769Y38481D02*
X30406Y38481D01*
X28769Y38481D02*
X28691Y38483D01*
X28613Y38488D01*
X28536Y38498D01*
X28459Y38511D01*
X28383Y38527D01*
X28308Y38547D01*
X28234Y38571D01*
X28161Y38598D01*
X28089Y38629D01*
X28019Y38663D01*
X27950Y38700D01*
X27884Y38741D01*
X27819Y38785D01*
X27757Y38831D01*
X27697Y38881D01*
X27639Y38933D01*
X27584Y38988D01*
X27532Y39046D01*
X27482Y39106D01*
X27436Y39168D01*
X27392Y39233D01*
X27351Y39300D01*
X27314Y39368D01*
X27280Y39438D01*
X27249Y39510D01*
X27222Y39583D01*
X27198Y39657D01*
X27178Y39732D01*
X27162Y39808D01*
X27149Y39885D01*
X27139Y39962D01*
X27134Y40040D01*
X27132Y40118D01*
X27132Y44210D01*
X27134Y44290D01*
X27140Y44370D01*
X27150Y44450D01*
X27163Y44529D01*
X27181Y44608D01*
X27202Y44685D01*
X27228Y44761D01*
X27257Y44836D01*
X27289Y44910D01*
X27325Y44982D01*
X27365Y45052D01*
X27408Y45119D01*
X27454Y45185D01*
X27504Y45248D01*
X27556Y45309D01*
X27611Y45368D01*
X27670Y45423D01*
X27730Y45475D01*
X27794Y45525D01*
X27860Y45571D01*
X27927Y45614D01*
X27997Y45654D01*
X28069Y45690D01*
X28143Y45722D01*
X28217Y45751D01*
X28294Y45777D01*
X28371Y45798D01*
X28450Y45816D01*
X28529Y45829D01*
X28609Y45839D01*
X28689Y45845D01*
X28769Y45847D01*
X30406Y45847D01*
X34865Y38481D02*
X36502Y38481D01*
X34865Y38481D02*
X34787Y38483D01*
X34709Y38488D01*
X34632Y38498D01*
X34555Y38511D01*
X34479Y38527D01*
X34404Y38547D01*
X34330Y38571D01*
X34257Y38598D01*
X34185Y38629D01*
X34115Y38663D01*
X34047Y38700D01*
X33980Y38741D01*
X33915Y38785D01*
X33853Y38831D01*
X33793Y38881D01*
X33735Y38933D01*
X33680Y38988D01*
X33628Y39046D01*
X33578Y39106D01*
X33532Y39168D01*
X33488Y39233D01*
X33447Y39300D01*
X33410Y39368D01*
X33376Y39438D01*
X33345Y39510D01*
X33318Y39583D01*
X33294Y39657D01*
X33274Y39732D01*
X33258Y39808D01*
X33245Y39885D01*
X33235Y39962D01*
X33230Y40040D01*
X33228Y40118D01*
X33228Y44210D01*
X33230Y44290D01*
X33236Y44370D01*
X33246Y44450D01*
X33259Y44529D01*
X33277Y44608D01*
X33298Y44685D01*
X33324Y44761D01*
X33353Y44836D01*
X33385Y44910D01*
X33421Y44982D01*
X33461Y45052D01*
X33504Y45119D01*
X33550Y45185D01*
X33600Y45248D01*
X33652Y45309D01*
X33707Y45368D01*
X33766Y45423D01*
X33826Y45475D01*
X33890Y45525D01*
X33956Y45571D01*
X34023Y45614D01*
X34093Y45654D01*
X34165Y45690D01*
X34239Y45722D01*
X34313Y45751D01*
X34390Y45777D01*
X34467Y45798D01*
X34546Y45816D01*
X34625Y45829D01*
X34705Y45839D01*
X34785Y45845D01*
X34865Y45847D01*
X36502Y45847D01*
X21886Y63881D02*
X19431Y71247D01*
X24342Y71247D02*
X21886Y63881D01*
X27738Y63881D02*
X27738Y71247D01*
X26920Y63881D02*
X28557Y63881D01*
X28557Y71247D02*
X26920Y71247D01*
X31788Y71247D02*
X31788Y63881D01*
X35881Y63881D02*
X31788Y71247D01*
X35881Y71247D02*
X35881Y63881D01*
X19431Y89281D02*
X19431Y96647D01*
X23523Y89281D01*
X23523Y96647D01*
X28604Y89281D02*
X30241Y89281D01*
X28604Y89281D02*
X28526Y89283D01*
X28448Y89288D01*
X28371Y89298D01*
X28294Y89311D01*
X28218Y89327D01*
X28143Y89347D01*
X28069Y89371D01*
X27996Y89398D01*
X27924Y89429D01*
X27854Y89463D01*
X27785Y89500D01*
X27719Y89541D01*
X27654Y89585D01*
X27592Y89631D01*
X27532Y89681D01*
X27474Y89733D01*
X27419Y89788D01*
X27367Y89846D01*
X27317Y89906D01*
X27271Y89968D01*
X27227Y90033D01*
X27186Y90100D01*
X27149Y90168D01*
X27115Y90238D01*
X27084Y90310D01*
X27057Y90383D01*
X27033Y90457D01*
X27013Y90532D01*
X26997Y90608D01*
X26984Y90685D01*
X26974Y90762D01*
X26969Y90840D01*
X26967Y90918D01*
X26967Y95010D01*
X26969Y95090D01*
X26975Y95170D01*
X26985Y95250D01*
X26998Y95329D01*
X27016Y95408D01*
X27037Y95485D01*
X27063Y95561D01*
X27092Y95636D01*
X27124Y95710D01*
X27160Y95782D01*
X27200Y95852D01*
X27243Y95919D01*
X27289Y95985D01*
X27339Y96048D01*
X27391Y96109D01*
X27446Y96168D01*
X27505Y96223D01*
X27565Y96275D01*
X27629Y96325D01*
X27695Y96371D01*
X27762Y96414D01*
X27832Y96454D01*
X27904Y96490D01*
X27978Y96522D01*
X28052Y96551D01*
X28129Y96577D01*
X28206Y96598D01*
X28285Y96616D01*
X28364Y96629D01*
X28444Y96639D01*
X28524Y96645D01*
X28604Y96647D01*
X30241Y96647D01*
X21886Y140081D02*
X19431Y147447D01*
X24342Y147447D02*
X21886Y140081D01*
X28769Y140081D02*
X30406Y140081D01*
X28769Y140081D02*
X28691Y140083D01*
X28613Y140088D01*
X28536Y140098D01*
X28459Y140111D01*
X28383Y140127D01*
X28308Y140147D01*
X28234Y140171D01*
X28161Y140198D01*
X28089Y140229D01*
X28019Y140263D01*
X27950Y140300D01*
X27884Y140341D01*
X27819Y140385D01*
X27757Y140431D01*
X27697Y140481D01*
X27639Y140533D01*
X27584Y140588D01*
X27532Y140646D01*
X27482Y140706D01*
X27436Y140768D01*
X27392Y140833D01*
X27351Y140900D01*
X27314Y140968D01*
X27280Y141038D01*
X27249Y141110D01*
X27222Y141183D01*
X27198Y141257D01*
X27178Y141332D01*
X27162Y141408D01*
X27149Y141485D01*
X27139Y141562D01*
X27134Y141640D01*
X27132Y141718D01*
X27132Y145810D01*
X27134Y145890D01*
X27140Y145970D01*
X27150Y146050D01*
X27163Y146129D01*
X27181Y146208D01*
X27202Y146285D01*
X27228Y146361D01*
X27257Y146436D01*
X27289Y146510D01*
X27325Y146582D01*
X27365Y146652D01*
X27408Y146719D01*
X27454Y146785D01*
X27504Y146848D01*
X27556Y146909D01*
X27611Y146968D01*
X27670Y147023D01*
X27730Y147075D01*
X27794Y147125D01*
X27860Y147171D01*
X27927Y147214D01*
X27997Y147254D01*
X28069Y147290D01*
X28143Y147322D01*
X28217Y147351D01*
X28294Y147377D01*
X28371Y147398D01*
X28450Y147416D01*
X28529Y147429D01*
X28609Y147439D01*
X28689Y147445D01*
X28769Y147447D01*
X30406Y147447D01*
X34865Y140081D02*
X36502Y140081D01*
X34865Y140081D02*
X34787Y140083D01*
X34709Y140088D01*
X34632Y140098D01*
X34555Y140111D01*
X34479Y140127D01*
X34404Y140147D01*
X34330Y140171D01*
X34257Y140198D01*
X34185Y140229D01*
X34115Y140263D01*
X34047Y140300D01*
X33980Y140341D01*
X33915Y140385D01*
X33853Y140431D01*
X33793Y140481D01*
X33735Y140533D01*
X33680Y140588D01*
X33628Y140646D01*
X33578Y140706D01*
X33532Y140768D01*
X33488Y140833D01*
X33447Y140900D01*
X33410Y140968D01*
X33376Y141038D01*
X33345Y141110D01*
X33318Y141183D01*
X33294Y141257D01*
X33274Y141332D01*
X33258Y141408D01*
X33245Y141485D01*
X33235Y141562D01*
X33230Y141640D01*
X33228Y141718D01*
X33228Y145810D01*
X33230Y145890D01*
X33236Y145970D01*
X33246Y146050D01*
X33259Y146129D01*
X33277Y146208D01*
X33298Y146285D01*
X33324Y146361D01*
X33353Y146436D01*
X33385Y146510D01*
X33421Y146582D01*
X33461Y146652D01*
X33504Y146719D01*
X33550Y146785D01*
X33600Y146848D01*
X33652Y146909D01*
X33707Y146968D01*
X33766Y147023D01*
X33826Y147075D01*
X33890Y147125D01*
X33956Y147171D01*
X34023Y147214D01*
X34093Y147254D01*
X34165Y147290D01*
X34239Y147322D01*
X34313Y147351D01*
X34390Y147377D01*
X34467Y147398D01*
X34546Y147416D01*
X34625Y147429D01*
X34705Y147439D01*
X34785Y147445D01*
X34865Y147447D01*
X36502Y147447D01*
X23523Y169573D02*
X22296Y169573D01*
X23523Y169573D02*
X23523Y165481D01*
X21068Y165481D01*
X20990Y165483D01*
X20912Y165488D01*
X20835Y165498D01*
X20758Y165511D01*
X20682Y165527D01*
X20607Y165547D01*
X20533Y165571D01*
X20460Y165598D01*
X20388Y165629D01*
X20318Y165663D01*
X20249Y165700D01*
X20183Y165741D01*
X20118Y165785D01*
X20056Y165831D01*
X19996Y165881D01*
X19938Y165933D01*
X19883Y165988D01*
X19831Y166046D01*
X19781Y166106D01*
X19735Y166168D01*
X19691Y166233D01*
X19650Y166300D01*
X19613Y166368D01*
X19579Y166438D01*
X19548Y166510D01*
X19521Y166583D01*
X19497Y166657D01*
X19477Y166732D01*
X19461Y166808D01*
X19448Y166885D01*
X19438Y166962D01*
X19433Y167040D01*
X19431Y167118D01*
X19431Y171210D01*
X19433Y171290D01*
X19439Y171370D01*
X19449Y171450D01*
X19462Y171529D01*
X19480Y171608D01*
X19501Y171685D01*
X19527Y171761D01*
X19556Y171836D01*
X19588Y171910D01*
X19624Y171982D01*
X19664Y172052D01*
X19707Y172119D01*
X19753Y172185D01*
X19803Y172248D01*
X19855Y172309D01*
X19910Y172368D01*
X19969Y172423D01*
X20029Y172475D01*
X20093Y172525D01*
X20159Y172571D01*
X20226Y172614D01*
X20296Y172654D01*
X20368Y172690D01*
X20442Y172722D01*
X20516Y172751D01*
X20593Y172777D01*
X20670Y172798D01*
X20749Y172816D01*
X20828Y172829D01*
X20908Y172839D01*
X20988Y172845D01*
X21068Y172847D01*
X23523Y172847D01*
X27234Y172847D02*
X27234Y165481D01*
X31326Y165481D02*
X27234Y172847D01*
X31326Y172847D02*
X31326Y165481D01*
X35037Y165481D02*
X35037Y172847D01*
X37083Y172847D01*
X37172Y172845D01*
X37261Y172839D01*
X37350Y172829D01*
X37438Y172816D01*
X37526Y172799D01*
X37613Y172777D01*
X37698Y172752D01*
X37783Y172724D01*
X37866Y172691D01*
X37948Y172655D01*
X38028Y172616D01*
X38106Y172573D01*
X38182Y172527D01*
X38257Y172477D01*
X38329Y172424D01*
X38398Y172368D01*
X38465Y172309D01*
X38530Y172248D01*
X38591Y172183D01*
X38650Y172116D01*
X38706Y172047D01*
X38759Y171975D01*
X38809Y171900D01*
X38855Y171824D01*
X38898Y171746D01*
X38937Y171666D01*
X38973Y171584D01*
X39006Y171501D01*
X39034Y171416D01*
X39059Y171331D01*
X39081Y171244D01*
X39098Y171156D01*
X39111Y171068D01*
X39121Y170979D01*
X39127Y170890D01*
X39129Y170801D01*
X39129Y167527D01*
X39127Y167438D01*
X39121Y167349D01*
X39111Y167260D01*
X39098Y167172D01*
X39081Y167084D01*
X39059Y166997D01*
X39034Y166912D01*
X39006Y166827D01*
X38973Y166744D01*
X38937Y166662D01*
X38898Y166582D01*
X38855Y166504D01*
X38809Y166428D01*
X38759Y166353D01*
X38706Y166281D01*
X38650Y166212D01*
X38591Y166145D01*
X38530Y166080D01*
X38465Y166019D01*
X38398Y165960D01*
X38329Y165904D01*
X38257Y165851D01*
X38182Y165801D01*
X38106Y165755D01*
X38028Y165712D01*
X37948Y165673D01*
X37866Y165637D01*
X37783Y165604D01*
X37698Y165576D01*
X37613Y165551D01*
X37526Y165529D01*
X37438Y165512D01*
X37350Y165499D01*
X37261Y165489D01*
X37172Y165483D01*
X37083Y165481D01*
X35037Y165481D01*
X21886Y190881D02*
X19431Y198247D01*
X24342Y198247D02*
X21886Y190881D01*
X27155Y192927D02*
X27155Y196201D01*
X27156Y196201D02*
X27158Y196290D01*
X27164Y196379D01*
X27174Y196468D01*
X27187Y196556D01*
X27204Y196644D01*
X27226Y196731D01*
X27251Y196816D01*
X27279Y196901D01*
X27312Y196984D01*
X27348Y197066D01*
X27387Y197146D01*
X27430Y197224D01*
X27476Y197300D01*
X27526Y197375D01*
X27579Y197447D01*
X27635Y197516D01*
X27694Y197583D01*
X27755Y197648D01*
X27820Y197709D01*
X27887Y197768D01*
X27956Y197824D01*
X28028Y197877D01*
X28103Y197927D01*
X28179Y197973D01*
X28257Y198016D01*
X28337Y198055D01*
X28419Y198091D01*
X28502Y198124D01*
X28587Y198152D01*
X28672Y198177D01*
X28759Y198199D01*
X28847Y198216D01*
X28935Y198229D01*
X29024Y198239D01*
X29113Y198245D01*
X29202Y198247D01*
X29291Y198245D01*
X29380Y198239D01*
X29469Y198229D01*
X29557Y198216D01*
X29645Y198199D01*
X29732Y198177D01*
X29817Y198152D01*
X29902Y198124D01*
X29985Y198091D01*
X30067Y198055D01*
X30147Y198016D01*
X30225Y197973D01*
X30301Y197927D01*
X30376Y197877D01*
X30448Y197824D01*
X30517Y197768D01*
X30584Y197709D01*
X30649Y197648D01*
X30710Y197583D01*
X30769Y197516D01*
X30825Y197447D01*
X30878Y197375D01*
X30928Y197300D01*
X30974Y197224D01*
X31017Y197146D01*
X31056Y197066D01*
X31092Y196984D01*
X31125Y196901D01*
X31153Y196816D01*
X31178Y196731D01*
X31200Y196644D01*
X31217Y196556D01*
X31230Y196468D01*
X31240Y196379D01*
X31246Y196290D01*
X31248Y196201D01*
X31248Y192927D01*
X31246Y192838D01*
X31240Y192749D01*
X31230Y192660D01*
X31217Y192572D01*
X31200Y192484D01*
X31178Y192397D01*
X31153Y192312D01*
X31125Y192227D01*
X31092Y192144D01*
X31056Y192062D01*
X31017Y191982D01*
X30974Y191904D01*
X30928Y191828D01*
X30878Y191753D01*
X30825Y191681D01*
X30769Y191612D01*
X30710Y191545D01*
X30649Y191480D01*
X30584Y191419D01*
X30517Y191360D01*
X30448Y191304D01*
X30376Y191251D01*
X30301Y191201D01*
X30225Y191155D01*
X30147Y191112D01*
X30067Y191073D01*
X29985Y191037D01*
X29902Y191004D01*
X29817Y190976D01*
X29732Y190951D01*
X29645Y190929D01*
X29557Y190912D01*
X29469Y190899D01*
X29380Y190889D01*
X29291Y190883D01*
X29202Y190881D01*
X29113Y190883D01*
X29024Y190889D01*
X28935Y190899D01*
X28847Y190912D01*
X28759Y190929D01*
X28672Y190951D01*
X28587Y190976D01*
X28502Y191004D01*
X28419Y191037D01*
X28337Y191073D01*
X28257Y191112D01*
X28179Y191155D01*
X28103Y191201D01*
X28028Y191251D01*
X27956Y191304D01*
X27887Y191360D01*
X27820Y191419D01*
X27755Y191480D01*
X27694Y191545D01*
X27635Y191612D01*
X27579Y191681D01*
X27526Y191753D01*
X27476Y191828D01*
X27430Y191904D01*
X27387Y191982D01*
X27348Y192062D01*
X27312Y192144D01*
X27279Y192227D01*
X27251Y192312D01*
X27226Y192397D01*
X27204Y192484D01*
X27187Y192572D01*
X27174Y192660D01*
X27164Y192749D01*
X27158Y192838D01*
X27156Y192927D01*
X34714Y192927D02*
X34714Y198247D01*
X34715Y192927D02*
X34717Y192838D01*
X34723Y192749D01*
X34733Y192660D01*
X34746Y192572D01*
X34763Y192484D01*
X34785Y192397D01*
X34810Y192312D01*
X34838Y192227D01*
X34871Y192144D01*
X34907Y192062D01*
X34946Y191982D01*
X34989Y191904D01*
X35035Y191828D01*
X35085Y191753D01*
X35138Y191681D01*
X35194Y191612D01*
X35253Y191545D01*
X35314Y191480D01*
X35379Y191419D01*
X35446Y191360D01*
X35515Y191304D01*
X35587Y191251D01*
X35662Y191201D01*
X35738Y191155D01*
X35816Y191112D01*
X35896Y191073D01*
X35978Y191037D01*
X36061Y191004D01*
X36146Y190976D01*
X36231Y190951D01*
X36318Y190929D01*
X36406Y190912D01*
X36494Y190899D01*
X36583Y190889D01*
X36672Y190883D01*
X36761Y190881D01*
X36850Y190883D01*
X36939Y190889D01*
X37028Y190899D01*
X37116Y190912D01*
X37204Y190929D01*
X37291Y190951D01*
X37376Y190976D01*
X37461Y191004D01*
X37544Y191037D01*
X37626Y191073D01*
X37706Y191112D01*
X37784Y191155D01*
X37860Y191201D01*
X37935Y191251D01*
X38007Y191304D01*
X38076Y191360D01*
X38143Y191419D01*
X38208Y191480D01*
X38269Y191545D01*
X38328Y191612D01*
X38384Y191681D01*
X38437Y191753D01*
X38487Y191828D01*
X38533Y191904D01*
X38576Y191982D01*
X38615Y192062D01*
X38651Y192144D01*
X38684Y192227D01*
X38712Y192312D01*
X38737Y192397D01*
X38759Y192484D01*
X38776Y192572D01*
X38789Y192660D01*
X38799Y192749D01*
X38805Y192838D01*
X38807Y192927D01*
X38807Y198247D01*
X43832Y198247D02*
X43832Y190881D01*
X41786Y198247D02*
X45878Y198247D01*
D11*
X184404Y62992D02*
X186267Y57404D01*
X188129Y62992D01*
X191426Y57404D02*
X192668Y57404D01*
X191426Y57404D02*
X191356Y57406D01*
X191287Y57412D01*
X191218Y57422D01*
X191150Y57435D01*
X191082Y57453D01*
X191016Y57474D01*
X190951Y57499D01*
X190887Y57527D01*
X190825Y57559D01*
X190765Y57594D01*
X190707Y57633D01*
X190652Y57675D01*
X190598Y57720D01*
X190548Y57768D01*
X190500Y57818D01*
X190455Y57872D01*
X190413Y57927D01*
X190374Y57985D01*
X190339Y58045D01*
X190307Y58107D01*
X190279Y58171D01*
X190254Y58236D01*
X190233Y58302D01*
X190215Y58370D01*
X190202Y58438D01*
X190192Y58507D01*
X190186Y58576D01*
X190184Y58646D01*
X190185Y58646D02*
X190185Y61750D01*
X190184Y61750D02*
X190186Y61820D01*
X190192Y61889D01*
X190202Y61958D01*
X190215Y62026D01*
X190233Y62094D01*
X190254Y62160D01*
X190279Y62225D01*
X190307Y62289D01*
X190339Y62351D01*
X190374Y62411D01*
X190413Y62469D01*
X190455Y62524D01*
X190500Y62578D01*
X190548Y62628D01*
X190598Y62676D01*
X190652Y62721D01*
X190707Y62763D01*
X190765Y62802D01*
X190825Y62837D01*
X190887Y62869D01*
X190951Y62897D01*
X191016Y62922D01*
X191082Y62943D01*
X191150Y62961D01*
X191218Y62974D01*
X191287Y62984D01*
X191356Y62990D01*
X191426Y62992D01*
X192668Y62992D01*
X195998Y57404D02*
X197240Y57404D01*
X195998Y57404D02*
X195928Y57406D01*
X195859Y57412D01*
X195790Y57422D01*
X195722Y57435D01*
X195654Y57453D01*
X195588Y57474D01*
X195523Y57499D01*
X195459Y57527D01*
X195397Y57559D01*
X195337Y57594D01*
X195279Y57633D01*
X195224Y57675D01*
X195170Y57720D01*
X195120Y57768D01*
X195072Y57818D01*
X195027Y57872D01*
X194985Y57927D01*
X194946Y57985D01*
X194911Y58045D01*
X194879Y58107D01*
X194851Y58171D01*
X194826Y58236D01*
X194805Y58302D01*
X194787Y58370D01*
X194774Y58438D01*
X194764Y58507D01*
X194758Y58576D01*
X194756Y58646D01*
X194756Y61750D01*
X194758Y61820D01*
X194764Y61889D01*
X194774Y61958D01*
X194787Y62026D01*
X194805Y62094D01*
X194826Y62160D01*
X194851Y62225D01*
X194879Y62289D01*
X194911Y62351D01*
X194946Y62411D01*
X194985Y62469D01*
X195027Y62524D01*
X195072Y62578D01*
X195120Y62628D01*
X195170Y62676D01*
X195224Y62721D01*
X195279Y62763D01*
X195337Y62802D01*
X195397Y62837D01*
X195459Y62869D01*
X195523Y62897D01*
X195588Y62922D01*
X195654Y62943D01*
X195722Y62961D01*
X195790Y62974D01*
X195859Y62984D01*
X195928Y62990D01*
X195998Y62992D01*
X197240Y62992D01*
X162108Y60508D02*
X161177Y60508D01*
X162108Y60508D02*
X162108Y57404D01*
X160246Y57404D01*
X160176Y57406D01*
X160107Y57412D01*
X160038Y57422D01*
X159970Y57435D01*
X159902Y57453D01*
X159836Y57474D01*
X159771Y57499D01*
X159707Y57527D01*
X159645Y57559D01*
X159585Y57594D01*
X159527Y57633D01*
X159472Y57675D01*
X159418Y57720D01*
X159368Y57768D01*
X159320Y57818D01*
X159275Y57872D01*
X159233Y57927D01*
X159194Y57985D01*
X159159Y58045D01*
X159127Y58107D01*
X159099Y58171D01*
X159074Y58236D01*
X159053Y58302D01*
X159035Y58370D01*
X159022Y58438D01*
X159012Y58507D01*
X159006Y58576D01*
X159004Y58646D01*
X159004Y61750D01*
X159006Y61820D01*
X159012Y61889D01*
X159022Y61958D01*
X159035Y62026D01*
X159053Y62094D01*
X159074Y62160D01*
X159099Y62225D01*
X159127Y62289D01*
X159159Y62351D01*
X159194Y62411D01*
X159233Y62469D01*
X159275Y62524D01*
X159320Y62578D01*
X159368Y62628D01*
X159418Y62676D01*
X159472Y62721D01*
X159527Y62763D01*
X159585Y62802D01*
X159645Y62837D01*
X159707Y62869D01*
X159771Y62897D01*
X159836Y62922D01*
X159902Y62943D01*
X159970Y62961D01*
X160038Y62974D01*
X160107Y62984D01*
X160176Y62990D01*
X160246Y62992D01*
X162108Y62992D01*
X164856Y62992D02*
X164856Y57404D01*
X167961Y57404D02*
X164856Y62992D01*
X167961Y62992D02*
X167961Y57404D01*
X170708Y57404D02*
X170708Y62992D01*
X172260Y62992D01*
X172336Y62990D01*
X172412Y62985D01*
X172488Y62975D01*
X172563Y62962D01*
X172637Y62945D01*
X172711Y62925D01*
X172783Y62901D01*
X172854Y62874D01*
X172924Y62843D01*
X172992Y62809D01*
X173058Y62771D01*
X173122Y62730D01*
X173185Y62687D01*
X173245Y62640D01*
X173302Y62590D01*
X173357Y62537D01*
X173410Y62482D01*
X173460Y62425D01*
X173507Y62365D01*
X173550Y62302D01*
X173591Y62238D01*
X173629Y62172D01*
X173663Y62104D01*
X173694Y62034D01*
X173721Y61963D01*
X173745Y61890D01*
X173765Y61817D01*
X173782Y61743D01*
X173795Y61668D01*
X173805Y61592D01*
X173810Y61516D01*
X173812Y61440D01*
X173813Y61440D02*
X173813Y58956D01*
X173812Y58956D02*
X173810Y58877D01*
X173804Y58799D01*
X173794Y58721D01*
X173780Y58644D01*
X173762Y58567D01*
X173741Y58491D01*
X173715Y58417D01*
X173686Y58344D01*
X173653Y58273D01*
X173617Y58203D01*
X173577Y58135D01*
X173534Y58069D01*
X173487Y58006D01*
X173438Y57945D01*
X173385Y57887D01*
X173329Y57831D01*
X173271Y57778D01*
X173210Y57729D01*
X173147Y57682D01*
X173081Y57639D01*
X173013Y57599D01*
X172944Y57563D01*
X172872Y57530D01*
X172799Y57501D01*
X172725Y57475D01*
X172649Y57454D01*
X172572Y57436D01*
X172495Y57422D01*
X172417Y57412D01*
X172339Y57406D01*
X172260Y57404D01*
X170708Y57404D01*
X135156Y57404D02*
X135156Y62992D01*
X133604Y62992D02*
X136708Y62992D01*
X142140Y62992D02*
X138414Y57404D01*
X142140Y57404D02*
X138414Y62992D01*
X108204Y62992D02*
X108204Y57404D01*
X108204Y62992D02*
X109756Y62992D01*
X109833Y62990D01*
X109911Y62984D01*
X109987Y62975D01*
X110064Y62961D01*
X110139Y62944D01*
X110213Y62923D01*
X110287Y62898D01*
X110359Y62870D01*
X110429Y62838D01*
X110498Y62803D01*
X110565Y62764D01*
X110630Y62722D01*
X110693Y62677D01*
X110754Y62629D01*
X110812Y62578D01*
X110867Y62524D01*
X110920Y62467D01*
X110969Y62408D01*
X111016Y62346D01*
X111060Y62282D01*
X111100Y62216D01*
X111137Y62148D01*
X111171Y62078D01*
X111201Y62007D01*
X111227Y61934D01*
X111250Y61860D01*
X111269Y61785D01*
X111284Y61710D01*
X111296Y61633D01*
X111304Y61556D01*
X111308Y61479D01*
X111308Y61401D01*
X111304Y61324D01*
X111296Y61247D01*
X111284Y61170D01*
X111269Y61095D01*
X111250Y61020D01*
X111227Y60946D01*
X111201Y60873D01*
X111171Y60802D01*
X111137Y60732D01*
X111100Y60664D01*
X111060Y60598D01*
X111016Y60534D01*
X110969Y60472D01*
X110920Y60413D01*
X110867Y60356D01*
X110812Y60302D01*
X110754Y60251D01*
X110693Y60203D01*
X110630Y60158D01*
X110565Y60116D01*
X110498Y60077D01*
X110429Y60042D01*
X110359Y60010D01*
X110287Y59982D01*
X110213Y59957D01*
X110139Y59936D01*
X110064Y59919D01*
X109987Y59905D01*
X109911Y59896D01*
X109833Y59890D01*
X109756Y59888D01*
X108204Y59888D01*
X110067Y59888D02*
X111308Y57404D01*
X113344Y57404D02*
X117069Y62992D01*
X113344Y62992D02*
X117069Y57404D01*
D12*
X99060Y152400D02*
X142240Y152400D01*
X142240Y127000D02*
X99060Y127000D01*
X144780Y129540D02*
X144780Y149860D01*
X96520Y149860D02*
X96520Y129540D01*
X142240Y152400D02*
X142340Y152398D01*
X142439Y152392D01*
X142539Y152382D01*
X142637Y152369D01*
X142736Y152351D01*
X142833Y152330D01*
X142929Y152305D01*
X143025Y152276D01*
X143119Y152243D01*
X143212Y152207D01*
X143303Y152167D01*
X143393Y152123D01*
X143481Y152076D01*
X143567Y152026D01*
X143651Y151972D01*
X143733Y151915D01*
X143812Y151855D01*
X143890Y151791D01*
X143964Y151725D01*
X144036Y151656D01*
X144105Y151584D01*
X144171Y151510D01*
X144235Y151432D01*
X144295Y151353D01*
X144352Y151271D01*
X144406Y151187D01*
X144456Y151101D01*
X144503Y151013D01*
X144547Y150923D01*
X144587Y150832D01*
X144623Y150739D01*
X144656Y150645D01*
X144685Y150549D01*
X144710Y150453D01*
X144731Y150356D01*
X144749Y150257D01*
X144762Y150159D01*
X144772Y150059D01*
X144778Y149960D01*
X144780Y149860D01*
X99060Y152400D02*
X98960Y152398D01*
X98861Y152392D01*
X98761Y152382D01*
X98663Y152369D01*
X98564Y152351D01*
X98467Y152330D01*
X98371Y152305D01*
X98275Y152276D01*
X98181Y152243D01*
X98088Y152207D01*
X97997Y152167D01*
X97907Y152123D01*
X97819Y152076D01*
X97733Y152026D01*
X97649Y151972D01*
X97567Y151915D01*
X97488Y151855D01*
X97410Y151791D01*
X97336Y151725D01*
X97264Y151656D01*
X97195Y151584D01*
X97129Y151510D01*
X97065Y151432D01*
X97005Y151353D01*
X96948Y151271D01*
X96894Y151187D01*
X96844Y151101D01*
X96797Y151013D01*
X96753Y150923D01*
X96713Y150832D01*
X96677Y150739D01*
X96644Y150645D01*
X96615Y150549D01*
X96590Y150453D01*
X96569Y150356D01*
X96551Y150257D01*
X96538Y150159D01*
X96528Y150059D01*
X96522Y149960D01*
X96520Y149860D01*
X142240Y127000D02*
X142340Y127002D01*
X142439Y127008D01*
X142539Y127018D01*
X142637Y127031D01*
X142736Y127049D01*
X142833Y127070D01*
X142929Y127095D01*
X143025Y127124D01*
X143119Y127157D01*
X143212Y127193D01*
X143303Y127233D01*
X143393Y127277D01*
X143481Y127324D01*
X143567Y127374D01*
X143651Y127428D01*
X143733Y127485D01*
X143812Y127545D01*
X143890Y127609D01*
X143964Y127675D01*
X144036Y127744D01*
X144105Y127816D01*
X144171Y127890D01*
X144235Y127968D01*
X144295Y128047D01*
X144352Y128129D01*
X144406Y128213D01*
X144456Y128299D01*
X144503Y128387D01*
X144547Y128477D01*
X144587Y128568D01*
X144623Y128661D01*
X144656Y128755D01*
X144685Y128851D01*
X144710Y128947D01*
X144731Y129044D01*
X144749Y129143D01*
X144762Y129241D01*
X144772Y129341D01*
X144778Y129440D01*
X144780Y129540D01*
X99060Y127000D02*
X98960Y127002D01*
X98861Y127008D01*
X98761Y127018D01*
X98663Y127031D01*
X98564Y127049D01*
X98467Y127070D01*
X98371Y127095D01*
X98275Y127124D01*
X98181Y127157D01*
X98088Y127193D01*
X97997Y127233D01*
X97907Y127277D01*
X97819Y127324D01*
X97733Y127374D01*
X97649Y127428D01*
X97567Y127485D01*
X97488Y127545D01*
X97410Y127609D01*
X97336Y127675D01*
X97264Y127744D01*
X97195Y127816D01*
X97129Y127890D01*
X97065Y127968D01*
X97005Y128047D01*
X96948Y128129D01*
X96894Y128213D01*
X96844Y128299D01*
X96797Y128387D01*
X96753Y128477D01*
X96713Y128568D01*
X96677Y128661D01*
X96644Y128755D01*
X96615Y128851D01*
X96590Y128947D01*
X96569Y129044D01*
X96551Y129143D01*
X96538Y129241D01*
X96528Y129341D01*
X96522Y129440D01*
X96520Y129540D01*
X123190Y139700D02*
X124460Y139700D01*
D13*
X123190Y139700D02*
X123190Y147320D01*
X123190Y139700D02*
X123190Y132080D01*
X118110Y139700D02*
X118110Y147320D01*
X118110Y139700D02*
X118110Y132080D01*
D12*
X118110Y139700D02*
X116840Y139700D01*
X171450Y53340D02*
X171450Y10160D01*
X196850Y10160D02*
X196850Y53340D01*
X194310Y55880D02*
X173990Y55880D01*
X173990Y7620D02*
X194310Y7620D01*
X171450Y53340D02*
X171452Y53440D01*
X171458Y53539D01*
X171468Y53639D01*
X171481Y53737D01*
X171499Y53836D01*
X171520Y53933D01*
X171545Y54029D01*
X171574Y54125D01*
X171607Y54219D01*
X171643Y54312D01*
X171683Y54403D01*
X171727Y54493D01*
X171774Y54581D01*
X171824Y54667D01*
X171878Y54751D01*
X171935Y54833D01*
X171995Y54912D01*
X172059Y54990D01*
X172125Y55064D01*
X172194Y55136D01*
X172266Y55205D01*
X172340Y55271D01*
X172418Y55335D01*
X172497Y55395D01*
X172579Y55452D01*
X172663Y55506D01*
X172749Y55556D01*
X172837Y55603D01*
X172927Y55647D01*
X173018Y55687D01*
X173111Y55723D01*
X173205Y55756D01*
X173301Y55785D01*
X173397Y55810D01*
X173494Y55831D01*
X173593Y55849D01*
X173691Y55862D01*
X173791Y55872D01*
X173890Y55878D01*
X173990Y55880D01*
X171450Y10160D02*
X171452Y10060D01*
X171458Y9961D01*
X171468Y9861D01*
X171481Y9763D01*
X171499Y9664D01*
X171520Y9567D01*
X171545Y9471D01*
X171574Y9375D01*
X171607Y9281D01*
X171643Y9188D01*
X171683Y9097D01*
X171727Y9007D01*
X171774Y8919D01*
X171824Y8833D01*
X171878Y8749D01*
X171935Y8667D01*
X171995Y8588D01*
X172059Y8510D01*
X172125Y8436D01*
X172194Y8364D01*
X172266Y8295D01*
X172340Y8229D01*
X172418Y8165D01*
X172497Y8105D01*
X172579Y8048D01*
X172663Y7994D01*
X172749Y7944D01*
X172837Y7897D01*
X172927Y7853D01*
X173018Y7813D01*
X173111Y7777D01*
X173205Y7744D01*
X173301Y7715D01*
X173397Y7690D01*
X173494Y7669D01*
X173593Y7651D01*
X173691Y7638D01*
X173791Y7628D01*
X173890Y7622D01*
X173990Y7620D01*
X196850Y53340D02*
X196848Y53440D01*
X196842Y53539D01*
X196832Y53639D01*
X196819Y53737D01*
X196801Y53836D01*
X196780Y53933D01*
X196755Y54029D01*
X196726Y54125D01*
X196693Y54219D01*
X196657Y54312D01*
X196617Y54403D01*
X196573Y54493D01*
X196526Y54581D01*
X196476Y54667D01*
X196422Y54751D01*
X196365Y54833D01*
X196305Y54912D01*
X196241Y54990D01*
X196175Y55064D01*
X196106Y55136D01*
X196034Y55205D01*
X195960Y55271D01*
X195882Y55335D01*
X195803Y55395D01*
X195721Y55452D01*
X195637Y55506D01*
X195551Y55556D01*
X195463Y55603D01*
X195373Y55647D01*
X195282Y55687D01*
X195189Y55723D01*
X195095Y55756D01*
X194999Y55785D01*
X194903Y55810D01*
X194806Y55831D01*
X194707Y55849D01*
X194609Y55862D01*
X194509Y55872D01*
X194410Y55878D01*
X194310Y55880D01*
X196850Y10160D02*
X196848Y10060D01*
X196842Y9961D01*
X196832Y9861D01*
X196819Y9763D01*
X196801Y9664D01*
X196780Y9567D01*
X196755Y9471D01*
X196726Y9375D01*
X196693Y9281D01*
X196657Y9188D01*
X196617Y9097D01*
X196573Y9007D01*
X196526Y8919D01*
X196476Y8833D01*
X196422Y8749D01*
X196365Y8667D01*
X196305Y8588D01*
X196241Y8510D01*
X196175Y8436D01*
X196106Y8364D01*
X196034Y8295D01*
X195960Y8229D01*
X195882Y8165D01*
X195803Y8105D01*
X195721Y8048D01*
X195637Y7994D01*
X195551Y7944D01*
X195463Y7897D01*
X195373Y7853D01*
X195282Y7813D01*
X195189Y7777D01*
X195095Y7744D01*
X194999Y7715D01*
X194903Y7690D01*
X194806Y7669D01*
X194707Y7651D01*
X194609Y7638D01*
X194509Y7628D01*
X194410Y7622D01*
X194310Y7620D01*
X184150Y34290D02*
X184150Y35560D01*
D13*
X184150Y34290D02*
X176530Y34290D01*
X184150Y34290D02*
X191770Y34290D01*
X184150Y29210D02*
X176530Y29210D01*
X184150Y29210D02*
X191770Y29210D01*
D12*
X184150Y29210D02*
X184150Y27940D01*
X203200Y162560D02*
X203200Y205740D01*
X177800Y205740D02*
X177800Y162560D01*
X180340Y160020D02*
X200660Y160020D01*
X200660Y208280D02*
X180340Y208280D01*
X203200Y162560D02*
X203198Y162460D01*
X203192Y162361D01*
X203182Y162261D01*
X203169Y162163D01*
X203151Y162064D01*
X203130Y161967D01*
X203105Y161871D01*
X203076Y161775D01*
X203043Y161681D01*
X203007Y161588D01*
X202967Y161497D01*
X202923Y161407D01*
X202876Y161319D01*
X202826Y161233D01*
X202772Y161149D01*
X202715Y161067D01*
X202655Y160988D01*
X202591Y160910D01*
X202525Y160836D01*
X202456Y160764D01*
X202384Y160695D01*
X202310Y160629D01*
X202232Y160565D01*
X202153Y160505D01*
X202071Y160448D01*
X201987Y160394D01*
X201901Y160344D01*
X201813Y160297D01*
X201723Y160253D01*
X201632Y160213D01*
X201539Y160177D01*
X201445Y160144D01*
X201349Y160115D01*
X201253Y160090D01*
X201156Y160069D01*
X201057Y160051D01*
X200959Y160038D01*
X200859Y160028D01*
X200760Y160022D01*
X200660Y160020D01*
X203200Y205740D02*
X203198Y205840D01*
X203192Y205939D01*
X203182Y206039D01*
X203169Y206137D01*
X203151Y206236D01*
X203130Y206333D01*
X203105Y206429D01*
X203076Y206525D01*
X203043Y206619D01*
X203007Y206712D01*
X202967Y206803D01*
X202923Y206893D01*
X202876Y206981D01*
X202826Y207067D01*
X202772Y207151D01*
X202715Y207233D01*
X202655Y207312D01*
X202591Y207390D01*
X202525Y207464D01*
X202456Y207536D01*
X202384Y207605D01*
X202310Y207671D01*
X202232Y207735D01*
X202153Y207795D01*
X202071Y207852D01*
X201987Y207906D01*
X201901Y207956D01*
X201813Y208003D01*
X201723Y208047D01*
X201632Y208087D01*
X201539Y208123D01*
X201445Y208156D01*
X201349Y208185D01*
X201253Y208210D01*
X201156Y208231D01*
X201057Y208249D01*
X200959Y208262D01*
X200859Y208272D01*
X200760Y208278D01*
X200660Y208280D01*
X177800Y162560D02*
X177802Y162460D01*
X177808Y162361D01*
X177818Y162261D01*
X177831Y162163D01*
X177849Y162064D01*
X177870Y161967D01*
X177895Y161871D01*
X177924Y161775D01*
X177957Y161681D01*
X177993Y161588D01*
X178033Y161497D01*
X178077Y161407D01*
X178124Y161319D01*
X178174Y161233D01*
X178228Y161149D01*
X178285Y161067D01*
X178345Y160988D01*
X178409Y160910D01*
X178475Y160836D01*
X178544Y160764D01*
X178616Y160695D01*
X178690Y160629D01*
X178768Y160565D01*
X178847Y160505D01*
X178929Y160448D01*
X179013Y160394D01*
X179099Y160344D01*
X179187Y160297D01*
X179277Y160253D01*
X179368Y160213D01*
X179461Y160177D01*
X179555Y160144D01*
X179651Y160115D01*
X179747Y160090D01*
X179844Y160069D01*
X179943Y160051D01*
X180041Y160038D01*
X180141Y160028D01*
X180240Y160022D01*
X180340Y160020D01*
X177800Y205740D02*
X177802Y205840D01*
X177808Y205939D01*
X177818Y206039D01*
X177831Y206137D01*
X177849Y206236D01*
X177870Y206333D01*
X177895Y206429D01*
X177924Y206525D01*
X177957Y206619D01*
X177993Y206712D01*
X178033Y206803D01*
X178077Y206893D01*
X178124Y206981D01*
X178174Y207067D01*
X178228Y207151D01*
X178285Y207233D01*
X178345Y207312D01*
X178409Y207390D01*
X178475Y207464D01*
X178544Y207536D01*
X178616Y207605D01*
X178690Y207671D01*
X178768Y207735D01*
X178847Y207795D01*
X178929Y207852D01*
X179013Y207906D01*
X179099Y207956D01*
X179187Y208003D01*
X179277Y208047D01*
X179368Y208087D01*
X179461Y208123D01*
X179555Y208156D01*
X179651Y208185D01*
X179747Y208210D01*
X179844Y208231D01*
X179943Y208249D01*
X180041Y208262D01*
X180141Y208272D01*
X180240Y208278D01*
X180340Y208280D01*
X190500Y181610D02*
X190500Y180340D01*
D13*
X190500Y181610D02*
X198120Y181610D01*
X190500Y181610D02*
X182880Y181610D01*
X190500Y186690D02*
X198120Y186690D01*
X190500Y186690D02*
X182880Y186690D01*
D12*
X190500Y186690D02*
X190500Y187960D01*
D14*
X196700Y89700D02*
X184000Y89700D01*
X196700Y89700D02*
X203050Y83350D01*
X203050Y70650D02*
X196700Y64300D01*
X158600Y89700D02*
X152250Y83350D01*
X158600Y89700D02*
X171300Y89700D01*
X177650Y83350D01*
X177650Y70650D02*
X171300Y64300D01*
X158600Y64300D01*
X152250Y70650D01*
X177650Y83350D02*
X184000Y89700D01*
X177650Y70650D02*
X184000Y64300D01*
X196700Y64300D01*
X120500Y89700D02*
X107800Y89700D01*
X120500Y89700D02*
X126850Y83350D01*
X126850Y70650D02*
X120500Y64300D01*
X126850Y83350D02*
X133200Y89700D01*
X145900Y89700D01*
X152250Y83350D01*
X152250Y70650D02*
X145900Y64300D01*
X133200Y64300D01*
X126850Y70650D01*
X101450Y70650D02*
X101450Y83350D01*
X107800Y89700D01*
X101450Y70650D02*
X107800Y64300D01*
X120500Y64300D01*
X203050Y70650D02*
X203050Y83350D01*
D12*
X162780Y98740D02*
X162778Y98640D01*
X162772Y98541D01*
X162762Y98441D01*
X162749Y98343D01*
X162731Y98244D01*
X162710Y98147D01*
X162685Y98051D01*
X162656Y97955D01*
X162623Y97861D01*
X162587Y97768D01*
X162547Y97677D01*
X162503Y97587D01*
X162456Y97499D01*
X162406Y97413D01*
X162352Y97329D01*
X162295Y97247D01*
X162235Y97168D01*
X162171Y97090D01*
X162105Y97016D01*
X162036Y96944D01*
X161964Y96875D01*
X161890Y96809D01*
X161812Y96745D01*
X161733Y96685D01*
X161651Y96628D01*
X161567Y96574D01*
X161481Y96524D01*
X161393Y96477D01*
X161303Y96433D01*
X161212Y96393D01*
X161119Y96357D01*
X161025Y96324D01*
X160929Y96295D01*
X160833Y96270D01*
X160736Y96249D01*
X160637Y96231D01*
X160539Y96218D01*
X160439Y96208D01*
X160340Y96202D01*
X160240Y96200D01*
X162780Y119060D02*
X162778Y119160D01*
X162772Y119259D01*
X162762Y119359D01*
X162749Y119457D01*
X162731Y119556D01*
X162710Y119653D01*
X162685Y119749D01*
X162656Y119845D01*
X162623Y119939D01*
X162587Y120032D01*
X162547Y120123D01*
X162503Y120213D01*
X162456Y120301D01*
X162406Y120387D01*
X162352Y120471D01*
X162295Y120553D01*
X162235Y120632D01*
X162171Y120710D01*
X162105Y120784D01*
X162036Y120856D01*
X161964Y120925D01*
X161890Y120991D01*
X161812Y121055D01*
X161733Y121115D01*
X161651Y121172D01*
X161567Y121226D01*
X161481Y121276D01*
X161393Y121323D01*
X161303Y121367D01*
X161212Y121407D01*
X161119Y121443D01*
X161025Y121476D01*
X160929Y121505D01*
X160833Y121530D01*
X160736Y121551D01*
X160637Y121569D01*
X160539Y121582D01*
X160439Y121592D01*
X160340Y121598D01*
X160240Y121600D01*
X129760Y121600D02*
X129660Y121598D01*
X129561Y121592D01*
X129461Y121582D01*
X129363Y121569D01*
X129264Y121551D01*
X129167Y121530D01*
X129071Y121505D01*
X128975Y121476D01*
X128881Y121443D01*
X128788Y121407D01*
X128697Y121367D01*
X128607Y121323D01*
X128519Y121276D01*
X128433Y121226D01*
X128349Y121172D01*
X128267Y121115D01*
X128188Y121055D01*
X128110Y120991D01*
X128036Y120925D01*
X127964Y120856D01*
X127895Y120784D01*
X127829Y120710D01*
X127765Y120632D01*
X127705Y120553D01*
X127648Y120471D01*
X127594Y120387D01*
X127544Y120301D01*
X127497Y120213D01*
X127453Y120123D01*
X127413Y120032D01*
X127377Y119939D01*
X127344Y119845D01*
X127315Y119749D01*
X127290Y119653D01*
X127269Y119556D01*
X127251Y119457D01*
X127238Y119359D01*
X127228Y119259D01*
X127222Y119160D01*
X127220Y119060D01*
X127220Y98740D02*
X127222Y98640D01*
X127228Y98541D01*
X127238Y98441D01*
X127251Y98343D01*
X127269Y98244D01*
X127290Y98147D01*
X127315Y98051D01*
X127344Y97955D01*
X127377Y97861D01*
X127413Y97768D01*
X127453Y97677D01*
X127497Y97587D01*
X127544Y97499D01*
X127594Y97413D01*
X127648Y97329D01*
X127705Y97247D01*
X127765Y97168D01*
X127829Y97090D01*
X127895Y97016D01*
X127964Y96944D01*
X128036Y96875D01*
X128110Y96809D01*
X128188Y96745D01*
X128267Y96685D01*
X128349Y96628D01*
X128433Y96574D01*
X128519Y96524D01*
X128607Y96477D01*
X128697Y96433D01*
X128788Y96393D01*
X128881Y96357D01*
X128975Y96324D01*
X129071Y96295D01*
X129167Y96270D01*
X129264Y96249D01*
X129363Y96231D01*
X129461Y96218D01*
X129561Y96208D01*
X129660Y96202D01*
X129760Y96200D01*
X162780Y98740D02*
X162780Y119060D01*
X160240Y96200D02*
X150080Y96200D01*
X148810Y97470D01*
X150080Y121600D02*
X160240Y121600D01*
X150080Y121600D02*
X148810Y120330D01*
X141190Y97470D02*
X139920Y96200D01*
X141190Y97470D02*
X148810Y97470D01*
X141190Y120330D02*
X139920Y121600D01*
X141190Y120330D02*
X148810Y120330D01*
X139920Y96200D02*
X129760Y96200D01*
X129760Y121600D02*
X139920Y121600D01*
X127220Y119060D02*
X127220Y98740D01*
D11*
X150080Y98740D02*
X150080Y119060D01*
X160240Y119060D02*
X160240Y98740D01*
X129760Y98740D02*
X129760Y119060D01*
X139920Y119060D02*
X139920Y98740D01*
D15*
X121505Y108900D03*
X168495Y108900D03*
D16*
X227600Y16100D02*
X227600Y213600D01*
X291600Y213600D01*
X291600Y16100D01*
X227600Y16100D01*
D17*
X145315Y9475D02*
X145315Y10848D01*
X145316Y10848D02*
X145399Y10853D01*
X145483Y10862D01*
X145565Y10875D01*
X145647Y10891D01*
X145728Y10911D01*
X145809Y10935D01*
X145888Y10963D01*
X145965Y10994D01*
X146041Y11028D01*
X146116Y11066D01*
X146189Y11107D01*
X146260Y11152D01*
X146329Y11199D01*
X146395Y11250D01*
X146459Y11303D01*
X146521Y11360D01*
X146580Y11419D01*
X146637Y11481D01*
X146690Y11545D01*
X146741Y11611D01*
X146788Y11680D01*
X146833Y11751D01*
X146874Y11824D01*
X146912Y11899D01*
X146946Y11975D01*
X146977Y12052D01*
X147005Y12131D01*
X147029Y12212D01*
X147049Y12293D01*
X147065Y12375D01*
X147078Y12457D01*
X147087Y12541D01*
X147092Y12624D01*
X148465Y12625D01*
X148465Y12624D01*
X148461Y12512D01*
X148452Y12401D01*
X148440Y12290D01*
X148424Y12179D01*
X148404Y12070D01*
X148380Y11960D01*
X148353Y11852D01*
X148321Y11745D01*
X148286Y11639D01*
X148248Y11534D01*
X148206Y11430D01*
X148160Y11329D01*
X148111Y11228D01*
X148058Y11130D01*
X148002Y11033D01*
X147943Y10938D01*
X147880Y10846D01*
X147814Y10756D01*
X147745Y10668D01*
X147674Y10582D01*
X147599Y10499D01*
X147521Y10419D01*
X147441Y10341D01*
X147358Y10266D01*
X147272Y10195D01*
X147184Y10126D01*
X147094Y10060D01*
X147002Y9997D01*
X146907Y9938D01*
X146810Y9882D01*
X146712Y9829D01*
X146611Y9780D01*
X146510Y9734D01*
X146406Y9692D01*
X146301Y9654D01*
X146195Y9619D01*
X146088Y9587D01*
X145980Y9560D01*
X145870Y9536D01*
X145761Y9516D01*
X145650Y9500D01*
X145539Y9488D01*
X145428Y9479D01*
X145316Y9475D01*
X145316Y9618D01*
X145425Y9623D01*
X145534Y9631D01*
X145642Y9643D01*
X145750Y9659D01*
X145857Y9679D01*
X145964Y9703D01*
X146069Y9731D01*
X146174Y9762D01*
X146277Y9797D01*
X146379Y9835D01*
X146480Y9877D01*
X146579Y9923D01*
X146676Y9972D01*
X146772Y10025D01*
X146866Y10080D01*
X146957Y10140D01*
X147047Y10202D01*
X147134Y10267D01*
X147219Y10336D01*
X147301Y10407D01*
X147381Y10482D01*
X147458Y10559D01*
X147533Y10639D01*
X147604Y10721D01*
X147673Y10806D01*
X147738Y10893D01*
X147800Y10983D01*
X147860Y11074D01*
X147915Y11168D01*
X147968Y11264D01*
X148017Y11361D01*
X148063Y11460D01*
X148105Y11561D01*
X148143Y11663D01*
X148178Y11766D01*
X148209Y11871D01*
X148237Y11976D01*
X148261Y12083D01*
X148281Y12190D01*
X148297Y12298D01*
X148309Y12406D01*
X148317Y12515D01*
X148322Y12624D01*
X148179Y12624D01*
X148174Y12518D01*
X148166Y12412D01*
X148154Y12306D01*
X148137Y12201D01*
X148117Y12097D01*
X148094Y11993D01*
X148066Y11890D01*
X148035Y11789D01*
X148000Y11688D01*
X147962Y11589D01*
X147920Y11491D01*
X147875Y11395D01*
X147826Y11301D01*
X147773Y11208D01*
X147718Y11117D01*
X147659Y11029D01*
X147597Y10943D01*
X147532Y10858D01*
X147464Y10777D01*
X147393Y10698D01*
X147319Y10621D01*
X147242Y10547D01*
X147163Y10476D01*
X147082Y10408D01*
X146997Y10343D01*
X146911Y10281D01*
X146823Y10222D01*
X146732Y10167D01*
X146639Y10114D01*
X146545Y10065D01*
X146449Y10020D01*
X146351Y9978D01*
X146252Y9940D01*
X146151Y9905D01*
X146050Y9874D01*
X145947Y9846D01*
X145843Y9823D01*
X145739Y9803D01*
X145634Y9786D01*
X145528Y9774D01*
X145422Y9766D01*
X145316Y9761D01*
X145316Y9904D01*
X145419Y9909D01*
X145522Y9917D01*
X145625Y9930D01*
X145727Y9946D01*
X145829Y9966D01*
X145930Y9989D01*
X146029Y10017D01*
X146128Y10048D01*
X146225Y10082D01*
X146322Y10121D01*
X146416Y10162D01*
X146509Y10208D01*
X146601Y10256D01*
X146690Y10308D01*
X146777Y10363D01*
X146863Y10422D01*
X146946Y10483D01*
X147027Y10548D01*
X147105Y10616D01*
X147181Y10686D01*
X147254Y10759D01*
X147324Y10835D01*
X147392Y10913D01*
X147457Y10994D01*
X147518Y11077D01*
X147577Y11163D01*
X147632Y11250D01*
X147684Y11339D01*
X147732Y11431D01*
X147778Y11524D01*
X147819Y11618D01*
X147858Y11715D01*
X147892Y11812D01*
X147923Y11911D01*
X147951Y12010D01*
X147974Y12111D01*
X147994Y12213D01*
X148010Y12315D01*
X148023Y12418D01*
X148031Y12521D01*
X148036Y12624D01*
X147893Y12624D01*
X147888Y12524D01*
X147880Y12424D01*
X147867Y12324D01*
X147851Y12225D01*
X147831Y12126D01*
X147808Y12029D01*
X147781Y11932D01*
X147750Y11837D01*
X147715Y11742D01*
X147677Y11649D01*
X147636Y11558D01*
X147591Y11468D01*
X147542Y11380D01*
X147491Y11294D01*
X147436Y11210D01*
X147378Y11128D01*
X147317Y11048D01*
X147253Y10971D01*
X147186Y10896D01*
X147117Y10823D01*
X147044Y10754D01*
X146969Y10687D01*
X146892Y10623D01*
X146812Y10562D01*
X146730Y10504D01*
X146646Y10449D01*
X146560Y10398D01*
X146472Y10349D01*
X146382Y10304D01*
X146291Y10263D01*
X146198Y10225D01*
X146103Y10190D01*
X146008Y10159D01*
X145911Y10132D01*
X145814Y10109D01*
X145715Y10089D01*
X145616Y10073D01*
X145516Y10060D01*
X145416Y10052D01*
X145316Y10047D01*
X145316Y10190D01*
X145416Y10195D01*
X145515Y10204D01*
X145614Y10217D01*
X145712Y10234D01*
X145810Y10255D01*
X145907Y10279D01*
X146002Y10308D01*
X146097Y10340D01*
X146190Y10376D01*
X146282Y10415D01*
X146371Y10458D01*
X146460Y10505D01*
X146546Y10555D01*
X146630Y10609D01*
X146712Y10666D01*
X146792Y10726D01*
X146869Y10789D01*
X146944Y10855D01*
X147016Y10924D01*
X147085Y10996D01*
X147151Y11071D01*
X147214Y11148D01*
X147274Y11228D01*
X147331Y11310D01*
X147385Y11394D01*
X147435Y11480D01*
X147482Y11569D01*
X147525Y11658D01*
X147564Y11750D01*
X147600Y11843D01*
X147632Y11938D01*
X147661Y12033D01*
X147685Y12130D01*
X147706Y12228D01*
X147723Y12326D01*
X147736Y12425D01*
X147745Y12524D01*
X147750Y12624D01*
X147607Y12624D01*
X147602Y12528D01*
X147593Y12432D01*
X147580Y12336D01*
X147563Y12241D01*
X147543Y12147D01*
X147518Y12054D01*
X147490Y11962D01*
X147458Y11871D01*
X147422Y11781D01*
X147383Y11693D01*
X147340Y11606D01*
X147294Y11522D01*
X147244Y11439D01*
X147191Y11359D01*
X147135Y11280D01*
X147076Y11204D01*
X147014Y11131D01*
X146948Y11060D01*
X146880Y10992D01*
X146809Y10926D01*
X146736Y10864D01*
X146660Y10805D01*
X146581Y10749D01*
X146501Y10696D01*
X146418Y10646D01*
X146334Y10600D01*
X146247Y10557D01*
X146159Y10518D01*
X146069Y10482D01*
X145978Y10450D01*
X145886Y10422D01*
X145793Y10397D01*
X145699Y10377D01*
X145604Y10360D01*
X145508Y10347D01*
X145412Y10338D01*
X145316Y10333D01*
X145316Y10476D01*
X145409Y10481D01*
X145501Y10490D01*
X145593Y10503D01*
X145684Y10520D01*
X145775Y10540D01*
X145865Y10564D01*
X145953Y10592D01*
X146041Y10624D01*
X146126Y10659D01*
X146211Y10698D01*
X146294Y10740D01*
X146374Y10786D01*
X146453Y10835D01*
X146530Y10887D01*
X146605Y10943D01*
X146677Y11001D01*
X146746Y11062D01*
X146813Y11127D01*
X146878Y11194D01*
X146939Y11263D01*
X146997Y11335D01*
X147053Y11410D01*
X147105Y11487D01*
X147154Y11566D01*
X147200Y11646D01*
X147242Y11729D01*
X147281Y11814D01*
X147316Y11899D01*
X147348Y11987D01*
X147376Y12075D01*
X147400Y12165D01*
X147420Y12256D01*
X147437Y12347D01*
X147450Y12439D01*
X147459Y12531D01*
X147464Y12624D01*
X147321Y12624D01*
X147315Y12535D01*
X147307Y12446D01*
X147294Y12358D01*
X147277Y12271D01*
X147257Y12184D01*
X147233Y12098D01*
X147206Y12013D01*
X147174Y11930D01*
X147140Y11848D01*
X147101Y11767D01*
X147060Y11689D01*
X147015Y11612D01*
X146967Y11537D01*
X146915Y11464D01*
X146861Y11393D01*
X146804Y11325D01*
X146743Y11260D01*
X146680Y11197D01*
X146615Y11136D01*
X146547Y11079D01*
X146476Y11025D01*
X146403Y10973D01*
X146328Y10925D01*
X146251Y10880D01*
X146173Y10839D01*
X146092Y10800D01*
X146010Y10766D01*
X145927Y10734D01*
X145842Y10707D01*
X145756Y10683D01*
X145669Y10663D01*
X145582Y10646D01*
X145494Y10633D01*
X145405Y10625D01*
X145316Y10619D01*
X145316Y10762D01*
X145401Y10768D01*
X145486Y10777D01*
X145570Y10789D01*
X145653Y10806D01*
X145736Y10826D01*
X145818Y10849D01*
X145898Y10876D01*
X145978Y10907D01*
X146056Y10941D01*
X146132Y10978D01*
X146207Y11019D01*
X146280Y11063D01*
X146351Y11111D01*
X146419Y11161D01*
X146486Y11214D01*
X146550Y11270D01*
X146611Y11329D01*
X146670Y11390D01*
X146726Y11454D01*
X146779Y11521D01*
X146829Y11589D01*
X146877Y11660D01*
X146921Y11733D01*
X146962Y11808D01*
X146999Y11884D01*
X147033Y11962D01*
X147064Y12042D01*
X147091Y12122D01*
X147114Y12204D01*
X147134Y12287D01*
X147151Y12370D01*
X147163Y12454D01*
X147172Y12539D01*
X147178Y12624D01*
X148465Y25475D02*
X147092Y25475D01*
X147092Y25476D02*
X147087Y25559D01*
X147078Y25643D01*
X147065Y25725D01*
X147049Y25807D01*
X147029Y25888D01*
X147005Y25969D01*
X146977Y26048D01*
X146946Y26125D01*
X146912Y26201D01*
X146874Y26276D01*
X146833Y26349D01*
X146788Y26420D01*
X146741Y26489D01*
X146690Y26555D01*
X146637Y26619D01*
X146580Y26681D01*
X146521Y26740D01*
X146459Y26797D01*
X146395Y26850D01*
X146329Y26901D01*
X146260Y26948D01*
X146189Y26993D01*
X146116Y27034D01*
X146041Y27072D01*
X145965Y27106D01*
X145888Y27137D01*
X145809Y27165D01*
X145728Y27189D01*
X145647Y27209D01*
X145565Y27225D01*
X145483Y27238D01*
X145399Y27247D01*
X145316Y27252D01*
X145315Y28625D01*
X145316Y28625D01*
X145428Y28621D01*
X145539Y28612D01*
X145650Y28600D01*
X145761Y28584D01*
X145870Y28564D01*
X145980Y28540D01*
X146088Y28513D01*
X146195Y28481D01*
X146301Y28446D01*
X146406Y28408D01*
X146510Y28366D01*
X146611Y28320D01*
X146712Y28271D01*
X146810Y28218D01*
X146907Y28162D01*
X147002Y28103D01*
X147094Y28040D01*
X147184Y27974D01*
X147272Y27905D01*
X147358Y27834D01*
X147441Y27759D01*
X147521Y27681D01*
X147599Y27601D01*
X147674Y27518D01*
X147745Y27432D01*
X147814Y27344D01*
X147880Y27254D01*
X147943Y27162D01*
X148002Y27067D01*
X148058Y26970D01*
X148111Y26872D01*
X148160Y26771D01*
X148206Y26670D01*
X148248Y26566D01*
X148286Y26461D01*
X148321Y26355D01*
X148353Y26248D01*
X148380Y26140D01*
X148404Y26030D01*
X148424Y25921D01*
X148440Y25810D01*
X148452Y25699D01*
X148461Y25588D01*
X148465Y25476D01*
X148322Y25476D01*
X148317Y25585D01*
X148309Y25694D01*
X148297Y25802D01*
X148281Y25910D01*
X148261Y26017D01*
X148237Y26124D01*
X148209Y26229D01*
X148178Y26334D01*
X148143Y26437D01*
X148105Y26539D01*
X148063Y26640D01*
X148017Y26739D01*
X147968Y26836D01*
X147915Y26932D01*
X147860Y27026D01*
X147800Y27117D01*
X147738Y27207D01*
X147673Y27294D01*
X147604Y27379D01*
X147533Y27461D01*
X147458Y27541D01*
X147381Y27618D01*
X147301Y27693D01*
X147219Y27764D01*
X147134Y27833D01*
X147047Y27898D01*
X146957Y27960D01*
X146866Y28020D01*
X146772Y28075D01*
X146676Y28128D01*
X146579Y28177D01*
X146480Y28223D01*
X146379Y28265D01*
X146277Y28303D01*
X146174Y28338D01*
X146069Y28369D01*
X145964Y28397D01*
X145857Y28421D01*
X145750Y28441D01*
X145642Y28457D01*
X145534Y28469D01*
X145425Y28477D01*
X145316Y28482D01*
X145316Y28339D01*
X145422Y28334D01*
X145528Y28326D01*
X145634Y28314D01*
X145739Y28297D01*
X145843Y28277D01*
X145947Y28254D01*
X146050Y28226D01*
X146151Y28195D01*
X146252Y28160D01*
X146351Y28122D01*
X146449Y28080D01*
X146545Y28035D01*
X146639Y27986D01*
X146732Y27933D01*
X146823Y27878D01*
X146911Y27819D01*
X146997Y27757D01*
X147082Y27692D01*
X147163Y27624D01*
X147242Y27553D01*
X147319Y27479D01*
X147393Y27402D01*
X147464Y27323D01*
X147532Y27242D01*
X147597Y27157D01*
X147659Y27071D01*
X147718Y26983D01*
X147773Y26892D01*
X147826Y26799D01*
X147875Y26705D01*
X147920Y26609D01*
X147962Y26511D01*
X148000Y26412D01*
X148035Y26311D01*
X148066Y26210D01*
X148094Y26107D01*
X148117Y26003D01*
X148137Y25899D01*
X148154Y25794D01*
X148166Y25688D01*
X148174Y25582D01*
X148179Y25476D01*
X148036Y25476D01*
X148031Y25579D01*
X148023Y25682D01*
X148010Y25785D01*
X147994Y25887D01*
X147974Y25989D01*
X147951Y26090D01*
X147923Y26189D01*
X147892Y26288D01*
X147858Y26385D01*
X147819Y26482D01*
X147778Y26576D01*
X147732Y26669D01*
X147684Y26761D01*
X147632Y26850D01*
X147577Y26937D01*
X147518Y27023D01*
X147457Y27106D01*
X147392Y27187D01*
X147324Y27265D01*
X147254Y27341D01*
X147181Y27414D01*
X147105Y27484D01*
X147027Y27552D01*
X146946Y27617D01*
X146863Y27678D01*
X146777Y27737D01*
X146690Y27792D01*
X146601Y27844D01*
X146509Y27892D01*
X146416Y27938D01*
X146322Y27979D01*
X146225Y28018D01*
X146128Y28052D01*
X146029Y28083D01*
X145930Y28111D01*
X145829Y28134D01*
X145727Y28154D01*
X145625Y28170D01*
X145522Y28183D01*
X145419Y28191D01*
X145316Y28196D01*
X145316Y28053D01*
X145416Y28048D01*
X145516Y28040D01*
X145616Y28027D01*
X145715Y28011D01*
X145814Y27991D01*
X145911Y27968D01*
X146008Y27941D01*
X146103Y27910D01*
X146198Y27875D01*
X146291Y27837D01*
X146382Y27796D01*
X146472Y27751D01*
X146560Y27702D01*
X146646Y27651D01*
X146730Y27596D01*
X146812Y27538D01*
X146892Y27477D01*
X146969Y27413D01*
X147044Y27346D01*
X147117Y27277D01*
X147186Y27204D01*
X147253Y27129D01*
X147317Y27052D01*
X147378Y26972D01*
X147436Y26890D01*
X147491Y26806D01*
X147542Y26720D01*
X147591Y26632D01*
X147636Y26542D01*
X147677Y26451D01*
X147715Y26358D01*
X147750Y26263D01*
X147781Y26168D01*
X147808Y26071D01*
X147831Y25974D01*
X147851Y25875D01*
X147867Y25776D01*
X147880Y25676D01*
X147888Y25576D01*
X147893Y25476D01*
X147750Y25476D01*
X147745Y25576D01*
X147736Y25675D01*
X147723Y25774D01*
X147706Y25872D01*
X147685Y25970D01*
X147661Y26067D01*
X147632Y26162D01*
X147600Y26257D01*
X147564Y26350D01*
X147525Y26442D01*
X147482Y26531D01*
X147435Y26620D01*
X147385Y26706D01*
X147331Y26790D01*
X147274Y26872D01*
X147214Y26952D01*
X147151Y27029D01*
X147085Y27104D01*
X147016Y27176D01*
X146944Y27245D01*
X146869Y27311D01*
X146792Y27374D01*
X146712Y27434D01*
X146630Y27491D01*
X146546Y27545D01*
X146460Y27595D01*
X146371Y27642D01*
X146282Y27685D01*
X146190Y27724D01*
X146097Y27760D01*
X146002Y27792D01*
X145907Y27821D01*
X145810Y27845D01*
X145712Y27866D01*
X145614Y27883D01*
X145515Y27896D01*
X145416Y27905D01*
X145316Y27910D01*
X145316Y27767D01*
X145412Y27762D01*
X145508Y27753D01*
X145604Y27740D01*
X145699Y27723D01*
X145793Y27703D01*
X145886Y27678D01*
X145978Y27650D01*
X146069Y27618D01*
X146159Y27582D01*
X146247Y27543D01*
X146334Y27500D01*
X146418Y27454D01*
X146501Y27404D01*
X146581Y27351D01*
X146660Y27295D01*
X146736Y27236D01*
X146809Y27174D01*
X146880Y27108D01*
X146948Y27040D01*
X147014Y26969D01*
X147076Y26896D01*
X147135Y26820D01*
X147191Y26741D01*
X147244Y26661D01*
X147294Y26578D01*
X147340Y26494D01*
X147383Y26407D01*
X147422Y26319D01*
X147458Y26229D01*
X147490Y26138D01*
X147518Y26046D01*
X147543Y25953D01*
X147563Y25859D01*
X147580Y25764D01*
X147593Y25668D01*
X147602Y25572D01*
X147607Y25476D01*
X147464Y25476D01*
X147459Y25569D01*
X147450Y25661D01*
X147437Y25753D01*
X147420Y25844D01*
X147400Y25935D01*
X147376Y26025D01*
X147348Y26113D01*
X147316Y26201D01*
X147281Y26286D01*
X147242Y26371D01*
X147200Y26454D01*
X147154Y26534D01*
X147105Y26613D01*
X147053Y26690D01*
X146997Y26765D01*
X146939Y26837D01*
X146878Y26906D01*
X146813Y26973D01*
X146746Y27038D01*
X146677Y27099D01*
X146605Y27157D01*
X146530Y27213D01*
X146453Y27265D01*
X146374Y27314D01*
X146294Y27360D01*
X146211Y27402D01*
X146126Y27441D01*
X146041Y27476D01*
X145953Y27508D01*
X145865Y27536D01*
X145775Y27560D01*
X145684Y27580D01*
X145593Y27597D01*
X145501Y27610D01*
X145409Y27619D01*
X145316Y27624D01*
X145316Y27481D01*
X145405Y27475D01*
X145494Y27467D01*
X145582Y27454D01*
X145669Y27437D01*
X145756Y27417D01*
X145842Y27393D01*
X145927Y27366D01*
X146010Y27334D01*
X146092Y27300D01*
X146173Y27261D01*
X146251Y27220D01*
X146328Y27175D01*
X146403Y27127D01*
X146476Y27075D01*
X146547Y27021D01*
X146615Y26964D01*
X146680Y26903D01*
X146743Y26840D01*
X146804Y26775D01*
X146861Y26707D01*
X146915Y26636D01*
X146967Y26563D01*
X147015Y26488D01*
X147060Y26411D01*
X147101Y26333D01*
X147140Y26252D01*
X147174Y26170D01*
X147206Y26087D01*
X147233Y26002D01*
X147257Y25916D01*
X147277Y25829D01*
X147294Y25742D01*
X147307Y25654D01*
X147315Y25565D01*
X147321Y25476D01*
X147178Y25476D01*
X147172Y25561D01*
X147163Y25646D01*
X147151Y25730D01*
X147134Y25813D01*
X147114Y25896D01*
X147091Y25978D01*
X147064Y26058D01*
X147033Y26138D01*
X146999Y26216D01*
X146962Y26292D01*
X146921Y26367D01*
X146877Y26440D01*
X146829Y26511D01*
X146779Y26579D01*
X146726Y26646D01*
X146670Y26710D01*
X146611Y26771D01*
X146550Y26830D01*
X146486Y26886D01*
X146419Y26939D01*
X146351Y26989D01*
X146280Y27037D01*
X146207Y27081D01*
X146132Y27122D01*
X146056Y27159D01*
X145978Y27193D01*
X145898Y27224D01*
X145818Y27251D01*
X145736Y27274D01*
X145653Y27294D01*
X145570Y27311D01*
X145486Y27323D01*
X145401Y27332D01*
X145316Y27338D01*
X114685Y28625D02*
X114685Y27252D01*
X114684Y27252D02*
X114601Y27247D01*
X114517Y27238D01*
X114435Y27225D01*
X114353Y27209D01*
X114272Y27189D01*
X114191Y27165D01*
X114112Y27137D01*
X114035Y27106D01*
X113959Y27072D01*
X113884Y27034D01*
X113811Y26993D01*
X113740Y26948D01*
X113671Y26901D01*
X113605Y26850D01*
X113541Y26797D01*
X113479Y26740D01*
X113420Y26681D01*
X113363Y26619D01*
X113310Y26555D01*
X113259Y26489D01*
X113212Y26420D01*
X113167Y26349D01*
X113126Y26276D01*
X113088Y26201D01*
X113054Y26125D01*
X113023Y26048D01*
X112995Y25969D01*
X112971Y25888D01*
X112951Y25807D01*
X112935Y25725D01*
X112922Y25643D01*
X112913Y25559D01*
X112908Y25476D01*
X111535Y25475D01*
X111535Y25476D01*
X111539Y25588D01*
X111548Y25699D01*
X111560Y25810D01*
X111576Y25921D01*
X111596Y26030D01*
X111620Y26140D01*
X111647Y26248D01*
X111679Y26355D01*
X111714Y26461D01*
X111752Y26566D01*
X111794Y26670D01*
X111840Y26771D01*
X111889Y26872D01*
X111942Y26970D01*
X111998Y27067D01*
X112057Y27162D01*
X112120Y27254D01*
X112186Y27344D01*
X112255Y27432D01*
X112326Y27518D01*
X112401Y27601D01*
X112479Y27681D01*
X112559Y27759D01*
X112642Y27834D01*
X112728Y27905D01*
X112816Y27974D01*
X112906Y28040D01*
X112998Y28103D01*
X113093Y28162D01*
X113190Y28218D01*
X113288Y28271D01*
X113389Y28320D01*
X113490Y28366D01*
X113594Y28408D01*
X113699Y28446D01*
X113805Y28481D01*
X113912Y28513D01*
X114020Y28540D01*
X114130Y28564D01*
X114239Y28584D01*
X114350Y28600D01*
X114461Y28612D01*
X114572Y28621D01*
X114684Y28625D01*
X114684Y28482D01*
X114575Y28477D01*
X114466Y28469D01*
X114358Y28457D01*
X114250Y28441D01*
X114143Y28421D01*
X114036Y28397D01*
X113931Y28369D01*
X113826Y28338D01*
X113723Y28303D01*
X113621Y28265D01*
X113520Y28223D01*
X113421Y28177D01*
X113324Y28128D01*
X113228Y28075D01*
X113134Y28020D01*
X113043Y27960D01*
X112953Y27898D01*
X112866Y27833D01*
X112781Y27764D01*
X112699Y27693D01*
X112619Y27618D01*
X112542Y27541D01*
X112467Y27461D01*
X112396Y27379D01*
X112327Y27294D01*
X112262Y27207D01*
X112200Y27117D01*
X112140Y27026D01*
X112085Y26932D01*
X112032Y26836D01*
X111983Y26739D01*
X111937Y26640D01*
X111895Y26539D01*
X111857Y26437D01*
X111822Y26334D01*
X111791Y26229D01*
X111763Y26124D01*
X111739Y26017D01*
X111719Y25910D01*
X111703Y25802D01*
X111691Y25694D01*
X111683Y25585D01*
X111678Y25476D01*
X111821Y25476D01*
X111826Y25582D01*
X111834Y25688D01*
X111846Y25794D01*
X111863Y25899D01*
X111883Y26003D01*
X111906Y26107D01*
X111934Y26210D01*
X111965Y26311D01*
X112000Y26412D01*
X112038Y26511D01*
X112080Y26609D01*
X112125Y26705D01*
X112174Y26799D01*
X112227Y26892D01*
X112282Y26983D01*
X112341Y27071D01*
X112403Y27157D01*
X112468Y27242D01*
X112536Y27323D01*
X112607Y27402D01*
X112681Y27479D01*
X112758Y27553D01*
X112837Y27624D01*
X112918Y27692D01*
X113003Y27757D01*
X113089Y27819D01*
X113177Y27878D01*
X113268Y27933D01*
X113361Y27986D01*
X113455Y28035D01*
X113551Y28080D01*
X113649Y28122D01*
X113748Y28160D01*
X113849Y28195D01*
X113950Y28226D01*
X114053Y28254D01*
X114157Y28277D01*
X114261Y28297D01*
X114366Y28314D01*
X114472Y28326D01*
X114578Y28334D01*
X114684Y28339D01*
X114684Y28196D01*
X114581Y28191D01*
X114478Y28183D01*
X114375Y28170D01*
X114273Y28154D01*
X114171Y28134D01*
X114070Y28111D01*
X113971Y28083D01*
X113872Y28052D01*
X113775Y28018D01*
X113678Y27979D01*
X113584Y27938D01*
X113491Y27892D01*
X113399Y27844D01*
X113310Y27792D01*
X113223Y27737D01*
X113137Y27678D01*
X113054Y27617D01*
X112973Y27552D01*
X112895Y27484D01*
X112819Y27414D01*
X112746Y27341D01*
X112676Y27265D01*
X112608Y27187D01*
X112543Y27106D01*
X112482Y27023D01*
X112423Y26937D01*
X112368Y26850D01*
X112316Y26761D01*
X112268Y26669D01*
X112222Y26576D01*
X112181Y26482D01*
X112142Y26385D01*
X112108Y26288D01*
X112077Y26189D01*
X112049Y26090D01*
X112026Y25989D01*
X112006Y25887D01*
X111990Y25785D01*
X111977Y25682D01*
X111969Y25579D01*
X111964Y25476D01*
X112107Y25476D01*
X112112Y25576D01*
X112120Y25676D01*
X112133Y25776D01*
X112149Y25875D01*
X112169Y25974D01*
X112192Y26071D01*
X112219Y26168D01*
X112250Y26263D01*
X112285Y26358D01*
X112323Y26451D01*
X112364Y26542D01*
X112409Y26632D01*
X112458Y26720D01*
X112509Y26806D01*
X112564Y26890D01*
X112622Y26972D01*
X112683Y27052D01*
X112747Y27129D01*
X112814Y27204D01*
X112883Y27277D01*
X112956Y27346D01*
X113031Y27413D01*
X113108Y27477D01*
X113188Y27538D01*
X113270Y27596D01*
X113354Y27651D01*
X113440Y27702D01*
X113528Y27751D01*
X113618Y27796D01*
X113709Y27837D01*
X113802Y27875D01*
X113897Y27910D01*
X113992Y27941D01*
X114089Y27968D01*
X114186Y27991D01*
X114285Y28011D01*
X114384Y28027D01*
X114484Y28040D01*
X114584Y28048D01*
X114684Y28053D01*
X114684Y27910D01*
X114584Y27905D01*
X114485Y27896D01*
X114386Y27883D01*
X114288Y27866D01*
X114190Y27845D01*
X114093Y27821D01*
X113998Y27792D01*
X113903Y27760D01*
X113810Y27724D01*
X113718Y27685D01*
X113629Y27642D01*
X113540Y27595D01*
X113454Y27545D01*
X113370Y27491D01*
X113288Y27434D01*
X113208Y27374D01*
X113131Y27311D01*
X113056Y27245D01*
X112984Y27176D01*
X112915Y27104D01*
X112849Y27029D01*
X112786Y26952D01*
X112726Y26872D01*
X112669Y26790D01*
X112615Y26706D01*
X112565Y26620D01*
X112518Y26531D01*
X112475Y26442D01*
X112436Y26350D01*
X112400Y26257D01*
X112368Y26162D01*
X112339Y26067D01*
X112315Y25970D01*
X112294Y25872D01*
X112277Y25774D01*
X112264Y25675D01*
X112255Y25576D01*
X112250Y25476D01*
X112393Y25476D01*
X112398Y25572D01*
X112407Y25668D01*
X112420Y25764D01*
X112437Y25859D01*
X112457Y25953D01*
X112482Y26046D01*
X112510Y26138D01*
X112542Y26229D01*
X112578Y26319D01*
X112617Y26407D01*
X112660Y26494D01*
X112706Y26578D01*
X112756Y26661D01*
X112809Y26741D01*
X112865Y26820D01*
X112924Y26896D01*
X112986Y26969D01*
X113052Y27040D01*
X113120Y27108D01*
X113191Y27174D01*
X113264Y27236D01*
X113340Y27295D01*
X113419Y27351D01*
X113499Y27404D01*
X113582Y27454D01*
X113666Y27500D01*
X113753Y27543D01*
X113841Y27582D01*
X113931Y27618D01*
X114022Y27650D01*
X114114Y27678D01*
X114207Y27703D01*
X114301Y27723D01*
X114396Y27740D01*
X114492Y27753D01*
X114588Y27762D01*
X114684Y27767D01*
X114684Y27624D01*
X114591Y27619D01*
X114499Y27610D01*
X114407Y27597D01*
X114316Y27580D01*
X114225Y27560D01*
X114135Y27536D01*
X114047Y27508D01*
X113959Y27476D01*
X113874Y27441D01*
X113789Y27402D01*
X113706Y27360D01*
X113626Y27314D01*
X113547Y27265D01*
X113470Y27213D01*
X113395Y27157D01*
X113323Y27099D01*
X113254Y27038D01*
X113187Y26973D01*
X113122Y26906D01*
X113061Y26837D01*
X113003Y26765D01*
X112947Y26690D01*
X112895Y26613D01*
X112846Y26534D01*
X112800Y26454D01*
X112758Y26371D01*
X112719Y26286D01*
X112684Y26201D01*
X112652Y26113D01*
X112624Y26025D01*
X112600Y25935D01*
X112580Y25844D01*
X112563Y25753D01*
X112550Y25661D01*
X112541Y25569D01*
X112536Y25476D01*
X112679Y25476D01*
X112685Y25565D01*
X112693Y25654D01*
X112706Y25742D01*
X112723Y25829D01*
X112743Y25916D01*
X112767Y26002D01*
X112794Y26087D01*
X112826Y26170D01*
X112860Y26252D01*
X112899Y26333D01*
X112940Y26411D01*
X112985Y26488D01*
X113033Y26563D01*
X113085Y26636D01*
X113139Y26707D01*
X113196Y26775D01*
X113257Y26840D01*
X113320Y26903D01*
X113385Y26964D01*
X113453Y27021D01*
X113524Y27075D01*
X113597Y27127D01*
X113672Y27175D01*
X113749Y27220D01*
X113827Y27261D01*
X113908Y27300D01*
X113990Y27334D01*
X114073Y27366D01*
X114158Y27393D01*
X114244Y27417D01*
X114331Y27437D01*
X114418Y27454D01*
X114506Y27467D01*
X114595Y27475D01*
X114684Y27481D01*
X114684Y27338D01*
X114599Y27332D01*
X114514Y27323D01*
X114430Y27311D01*
X114347Y27294D01*
X114264Y27274D01*
X114182Y27251D01*
X114102Y27224D01*
X114022Y27193D01*
X113944Y27159D01*
X113868Y27122D01*
X113793Y27081D01*
X113720Y27037D01*
X113649Y26989D01*
X113581Y26939D01*
X113514Y26886D01*
X113450Y26830D01*
X113389Y26771D01*
X113330Y26710D01*
X113274Y26646D01*
X113221Y26579D01*
X113171Y26511D01*
X113123Y26440D01*
X113079Y26367D01*
X113038Y26292D01*
X113001Y26216D01*
X112967Y26138D01*
X112936Y26058D01*
X112909Y25978D01*
X112886Y25896D01*
X112866Y25813D01*
X112849Y25730D01*
X112837Y25646D01*
X112828Y25561D01*
X112822Y25476D01*
X111535Y12625D02*
X112908Y12625D01*
X112908Y12624D02*
X112913Y12541D01*
X112922Y12457D01*
X112935Y12375D01*
X112951Y12293D01*
X112971Y12212D01*
X112995Y12131D01*
X113023Y12052D01*
X113054Y11975D01*
X113088Y11899D01*
X113126Y11824D01*
X113167Y11751D01*
X113212Y11680D01*
X113259Y11611D01*
X113310Y11545D01*
X113363Y11481D01*
X113420Y11419D01*
X113479Y11360D01*
X113541Y11303D01*
X113605Y11250D01*
X113671Y11199D01*
X113740Y11152D01*
X113811Y11107D01*
X113884Y11066D01*
X113959Y11028D01*
X114035Y10994D01*
X114112Y10963D01*
X114191Y10935D01*
X114272Y10911D01*
X114353Y10891D01*
X114435Y10875D01*
X114517Y10862D01*
X114601Y10853D01*
X114684Y10848D01*
X114685Y9475D01*
X114684Y9475D01*
X114572Y9479D01*
X114461Y9488D01*
X114350Y9500D01*
X114239Y9516D01*
X114130Y9536D01*
X114020Y9560D01*
X113912Y9587D01*
X113805Y9619D01*
X113699Y9654D01*
X113594Y9692D01*
X113490Y9734D01*
X113389Y9780D01*
X113288Y9829D01*
X113190Y9882D01*
X113093Y9938D01*
X112998Y9997D01*
X112906Y10060D01*
X112816Y10126D01*
X112728Y10195D01*
X112642Y10266D01*
X112559Y10341D01*
X112479Y10419D01*
X112401Y10499D01*
X112326Y10582D01*
X112255Y10668D01*
X112186Y10756D01*
X112120Y10846D01*
X112057Y10938D01*
X111998Y11033D01*
X111942Y11130D01*
X111889Y11228D01*
X111840Y11329D01*
X111794Y11430D01*
X111752Y11534D01*
X111714Y11639D01*
X111679Y11745D01*
X111647Y11852D01*
X111620Y11960D01*
X111596Y12070D01*
X111576Y12179D01*
X111560Y12290D01*
X111548Y12401D01*
X111539Y12512D01*
X111535Y12624D01*
X111678Y12624D01*
X111683Y12515D01*
X111691Y12406D01*
X111703Y12298D01*
X111719Y12190D01*
X111739Y12083D01*
X111763Y11976D01*
X111791Y11871D01*
X111822Y11766D01*
X111857Y11663D01*
X111895Y11561D01*
X111937Y11460D01*
X111983Y11361D01*
X112032Y11264D01*
X112085Y11168D01*
X112140Y11074D01*
X112200Y10983D01*
X112262Y10893D01*
X112327Y10806D01*
X112396Y10721D01*
X112467Y10639D01*
X112542Y10559D01*
X112619Y10482D01*
X112699Y10407D01*
X112781Y10336D01*
X112866Y10267D01*
X112953Y10202D01*
X113043Y10140D01*
X113134Y10080D01*
X113228Y10025D01*
X113324Y9972D01*
X113421Y9923D01*
X113520Y9877D01*
X113621Y9835D01*
X113723Y9797D01*
X113826Y9762D01*
X113931Y9731D01*
X114036Y9703D01*
X114143Y9679D01*
X114250Y9659D01*
X114358Y9643D01*
X114466Y9631D01*
X114575Y9623D01*
X114684Y9618D01*
X114684Y9761D01*
X114578Y9766D01*
X114472Y9774D01*
X114366Y9786D01*
X114261Y9803D01*
X114157Y9823D01*
X114053Y9846D01*
X113950Y9874D01*
X113849Y9905D01*
X113748Y9940D01*
X113649Y9978D01*
X113551Y10020D01*
X113455Y10065D01*
X113361Y10114D01*
X113268Y10167D01*
X113177Y10222D01*
X113089Y10281D01*
X113003Y10343D01*
X112918Y10408D01*
X112837Y10476D01*
X112758Y10547D01*
X112681Y10621D01*
X112607Y10698D01*
X112536Y10777D01*
X112468Y10858D01*
X112403Y10943D01*
X112341Y11029D01*
X112282Y11117D01*
X112227Y11208D01*
X112174Y11301D01*
X112125Y11395D01*
X112080Y11491D01*
X112038Y11589D01*
X112000Y11688D01*
X111965Y11789D01*
X111934Y11890D01*
X111906Y11993D01*
X111883Y12097D01*
X111863Y12201D01*
X111846Y12306D01*
X111834Y12412D01*
X111826Y12518D01*
X111821Y12624D01*
X111964Y12624D01*
X111969Y12521D01*
X111977Y12418D01*
X111990Y12315D01*
X112006Y12213D01*
X112026Y12111D01*
X112049Y12010D01*
X112077Y11911D01*
X112108Y11812D01*
X112142Y11715D01*
X112181Y11618D01*
X112222Y11524D01*
X112268Y11431D01*
X112316Y11339D01*
X112368Y11250D01*
X112423Y11163D01*
X112482Y11077D01*
X112543Y10994D01*
X112608Y10913D01*
X112676Y10835D01*
X112746Y10759D01*
X112819Y10686D01*
X112895Y10616D01*
X112973Y10548D01*
X113054Y10483D01*
X113137Y10422D01*
X113223Y10363D01*
X113310Y10308D01*
X113399Y10256D01*
X113491Y10208D01*
X113584Y10162D01*
X113678Y10121D01*
X113775Y10082D01*
X113872Y10048D01*
X113971Y10017D01*
X114070Y9989D01*
X114171Y9966D01*
X114273Y9946D01*
X114375Y9930D01*
X114478Y9917D01*
X114581Y9909D01*
X114684Y9904D01*
X114684Y10047D01*
X114584Y10052D01*
X114484Y10060D01*
X114384Y10073D01*
X114285Y10089D01*
X114186Y10109D01*
X114089Y10132D01*
X113992Y10159D01*
X113897Y10190D01*
X113802Y10225D01*
X113709Y10263D01*
X113618Y10304D01*
X113528Y10349D01*
X113440Y10398D01*
X113354Y10449D01*
X113270Y10504D01*
X113188Y10562D01*
X113108Y10623D01*
X113031Y10687D01*
X112956Y10754D01*
X112883Y10823D01*
X112814Y10896D01*
X112747Y10971D01*
X112683Y11048D01*
X112622Y11128D01*
X112564Y11210D01*
X112509Y11294D01*
X112458Y11380D01*
X112409Y11468D01*
X112364Y11558D01*
X112323Y11649D01*
X112285Y11742D01*
X112250Y11837D01*
X112219Y11932D01*
X112192Y12029D01*
X112169Y12126D01*
X112149Y12225D01*
X112133Y12324D01*
X112120Y12424D01*
X112112Y12524D01*
X112107Y12624D01*
X112250Y12624D01*
X112255Y12524D01*
X112264Y12425D01*
X112277Y12326D01*
X112294Y12228D01*
X112315Y12130D01*
X112339Y12033D01*
X112368Y11938D01*
X112400Y11843D01*
X112436Y11750D01*
X112475Y11658D01*
X112518Y11569D01*
X112565Y11480D01*
X112615Y11394D01*
X112669Y11310D01*
X112726Y11228D01*
X112786Y11148D01*
X112849Y11071D01*
X112915Y10996D01*
X112984Y10924D01*
X113056Y10855D01*
X113131Y10789D01*
X113208Y10726D01*
X113288Y10666D01*
X113370Y10609D01*
X113454Y10555D01*
X113540Y10505D01*
X113629Y10458D01*
X113718Y10415D01*
X113810Y10376D01*
X113903Y10340D01*
X113998Y10308D01*
X114093Y10279D01*
X114190Y10255D01*
X114288Y10234D01*
X114386Y10217D01*
X114485Y10204D01*
X114584Y10195D01*
X114684Y10190D01*
X114684Y10333D01*
X114588Y10338D01*
X114492Y10347D01*
X114396Y10360D01*
X114301Y10377D01*
X114207Y10397D01*
X114114Y10422D01*
X114022Y10450D01*
X113931Y10482D01*
X113841Y10518D01*
X113753Y10557D01*
X113666Y10600D01*
X113582Y10646D01*
X113499Y10696D01*
X113419Y10749D01*
X113340Y10805D01*
X113264Y10864D01*
X113191Y10926D01*
X113120Y10992D01*
X113052Y11060D01*
X112986Y11131D01*
X112924Y11204D01*
X112865Y11280D01*
X112809Y11359D01*
X112756Y11439D01*
X112706Y11522D01*
X112660Y11606D01*
X112617Y11693D01*
X112578Y11781D01*
X112542Y11871D01*
X112510Y11962D01*
X112482Y12054D01*
X112457Y12147D01*
X112437Y12241D01*
X112420Y12336D01*
X112407Y12432D01*
X112398Y12528D01*
X112393Y12624D01*
X112536Y12624D01*
X112541Y12531D01*
X112550Y12439D01*
X112563Y12347D01*
X112580Y12256D01*
X112600Y12165D01*
X112624Y12075D01*
X112652Y11987D01*
X112684Y11899D01*
X112719Y11814D01*
X112758Y11729D01*
X112800Y11646D01*
X112846Y11566D01*
X112895Y11487D01*
X112947Y11410D01*
X113003Y11335D01*
X113061Y11263D01*
X113122Y11194D01*
X113187Y11127D01*
X113254Y11062D01*
X113323Y11001D01*
X113395Y10943D01*
X113470Y10887D01*
X113547Y10835D01*
X113626Y10786D01*
X113706Y10740D01*
X113789Y10698D01*
X113874Y10659D01*
X113959Y10624D01*
X114047Y10592D01*
X114135Y10564D01*
X114225Y10540D01*
X114316Y10520D01*
X114407Y10503D01*
X114499Y10490D01*
X114591Y10481D01*
X114684Y10476D01*
X114684Y10619D01*
X114595Y10625D01*
X114506Y10633D01*
X114418Y10646D01*
X114331Y10663D01*
X114244Y10683D01*
X114158Y10707D01*
X114073Y10734D01*
X113990Y10766D01*
X113908Y10800D01*
X113827Y10839D01*
X113749Y10880D01*
X113672Y10925D01*
X113597Y10973D01*
X113524Y11025D01*
X113453Y11079D01*
X113385Y11136D01*
X113320Y11197D01*
X113257Y11260D01*
X113196Y11325D01*
X113139Y11393D01*
X113085Y11464D01*
X113033Y11537D01*
X112985Y11612D01*
X112940Y11689D01*
X112899Y11767D01*
X112860Y11848D01*
X112826Y11930D01*
X112794Y12013D01*
X112767Y12098D01*
X112743Y12184D01*
X112723Y12271D01*
X112706Y12358D01*
X112693Y12446D01*
X112685Y12535D01*
X112679Y12624D01*
X112822Y12624D01*
X112828Y12539D01*
X112837Y12454D01*
X112849Y12370D01*
X112866Y12287D01*
X112886Y12204D01*
X112909Y12122D01*
X112936Y12042D01*
X112967Y11962D01*
X113001Y11884D01*
X113038Y11808D01*
X113079Y11733D01*
X113123Y11660D01*
X113171Y11589D01*
X113221Y11521D01*
X113274Y11454D01*
X113330Y11390D01*
X113389Y11329D01*
X113450Y11270D01*
X113514Y11214D01*
X113581Y11161D01*
X113649Y11111D01*
X113720Y11063D01*
X113793Y11019D01*
X113868Y10978D01*
X113944Y10941D01*
X114022Y10907D01*
X114102Y10876D01*
X114182Y10849D01*
X114264Y10826D01*
X114347Y10806D01*
X114430Y10789D01*
X114514Y10777D01*
X114599Y10768D01*
X114684Y10762D01*
D12*
X142700Y10160D02*
X145240Y10160D01*
X142700Y10160D02*
X141430Y11430D01*
X142700Y27940D02*
X145240Y27940D01*
X142700Y27940D02*
X141430Y26670D01*
X118570Y11430D02*
X117300Y10160D01*
X118570Y11430D02*
X141430Y11430D01*
X118570Y26670D02*
X117300Y27940D01*
X118570Y26670D02*
X141430Y26670D01*
X117300Y10160D02*
X114760Y10160D01*
X114760Y27940D02*
X117300Y27940D01*
D17*
X145315Y34875D02*
X145315Y36248D01*
X145316Y36248D02*
X145399Y36253D01*
X145483Y36262D01*
X145565Y36275D01*
X145647Y36291D01*
X145728Y36311D01*
X145809Y36335D01*
X145888Y36363D01*
X145965Y36394D01*
X146041Y36428D01*
X146116Y36466D01*
X146189Y36507D01*
X146260Y36552D01*
X146329Y36599D01*
X146395Y36650D01*
X146459Y36703D01*
X146521Y36760D01*
X146580Y36819D01*
X146637Y36881D01*
X146690Y36945D01*
X146741Y37011D01*
X146788Y37080D01*
X146833Y37151D01*
X146874Y37224D01*
X146912Y37299D01*
X146946Y37375D01*
X146977Y37452D01*
X147005Y37531D01*
X147029Y37612D01*
X147049Y37693D01*
X147065Y37775D01*
X147078Y37857D01*
X147087Y37941D01*
X147092Y38024D01*
X148465Y38025D01*
X148465Y38024D01*
X148461Y37912D01*
X148452Y37801D01*
X148440Y37690D01*
X148424Y37579D01*
X148404Y37470D01*
X148380Y37360D01*
X148353Y37252D01*
X148321Y37145D01*
X148286Y37039D01*
X148248Y36934D01*
X148206Y36830D01*
X148160Y36729D01*
X148111Y36628D01*
X148058Y36530D01*
X148002Y36433D01*
X147943Y36338D01*
X147880Y36246D01*
X147814Y36156D01*
X147745Y36068D01*
X147674Y35982D01*
X147599Y35899D01*
X147521Y35819D01*
X147441Y35741D01*
X147358Y35666D01*
X147272Y35595D01*
X147184Y35526D01*
X147094Y35460D01*
X147002Y35397D01*
X146907Y35338D01*
X146810Y35282D01*
X146712Y35229D01*
X146611Y35180D01*
X146510Y35134D01*
X146406Y35092D01*
X146301Y35054D01*
X146195Y35019D01*
X146088Y34987D01*
X145980Y34960D01*
X145870Y34936D01*
X145761Y34916D01*
X145650Y34900D01*
X145539Y34888D01*
X145428Y34879D01*
X145316Y34875D01*
X145316Y35018D01*
X145425Y35023D01*
X145534Y35031D01*
X145642Y35043D01*
X145750Y35059D01*
X145857Y35079D01*
X145964Y35103D01*
X146069Y35131D01*
X146174Y35162D01*
X146277Y35197D01*
X146379Y35235D01*
X146480Y35277D01*
X146579Y35323D01*
X146676Y35372D01*
X146772Y35425D01*
X146866Y35480D01*
X146957Y35540D01*
X147047Y35602D01*
X147134Y35667D01*
X147219Y35736D01*
X147301Y35807D01*
X147381Y35882D01*
X147458Y35959D01*
X147533Y36039D01*
X147604Y36121D01*
X147673Y36206D01*
X147738Y36293D01*
X147800Y36383D01*
X147860Y36474D01*
X147915Y36568D01*
X147968Y36664D01*
X148017Y36761D01*
X148063Y36860D01*
X148105Y36961D01*
X148143Y37063D01*
X148178Y37166D01*
X148209Y37271D01*
X148237Y37376D01*
X148261Y37483D01*
X148281Y37590D01*
X148297Y37698D01*
X148309Y37806D01*
X148317Y37915D01*
X148322Y38024D01*
X148179Y38024D01*
X148174Y37918D01*
X148166Y37812D01*
X148154Y37706D01*
X148137Y37601D01*
X148117Y37497D01*
X148094Y37393D01*
X148066Y37290D01*
X148035Y37189D01*
X148000Y37088D01*
X147962Y36989D01*
X147920Y36891D01*
X147875Y36795D01*
X147826Y36701D01*
X147773Y36608D01*
X147718Y36517D01*
X147659Y36429D01*
X147597Y36343D01*
X147532Y36258D01*
X147464Y36177D01*
X147393Y36098D01*
X147319Y36021D01*
X147242Y35947D01*
X147163Y35876D01*
X147082Y35808D01*
X146997Y35743D01*
X146911Y35681D01*
X146823Y35622D01*
X146732Y35567D01*
X146639Y35514D01*
X146545Y35465D01*
X146449Y35420D01*
X146351Y35378D01*
X146252Y35340D01*
X146151Y35305D01*
X146050Y35274D01*
X145947Y35246D01*
X145843Y35223D01*
X145739Y35203D01*
X145634Y35186D01*
X145528Y35174D01*
X145422Y35166D01*
X145316Y35161D01*
X145316Y35304D01*
X145419Y35309D01*
X145522Y35317D01*
X145625Y35330D01*
X145727Y35346D01*
X145829Y35366D01*
X145930Y35389D01*
X146029Y35417D01*
X146128Y35448D01*
X146225Y35482D01*
X146322Y35521D01*
X146416Y35562D01*
X146509Y35608D01*
X146601Y35656D01*
X146690Y35708D01*
X146777Y35763D01*
X146863Y35822D01*
X146946Y35883D01*
X147027Y35948D01*
X147105Y36016D01*
X147181Y36086D01*
X147254Y36159D01*
X147324Y36235D01*
X147392Y36313D01*
X147457Y36394D01*
X147518Y36477D01*
X147577Y36563D01*
X147632Y36650D01*
X147684Y36739D01*
X147732Y36831D01*
X147778Y36924D01*
X147819Y37018D01*
X147858Y37115D01*
X147892Y37212D01*
X147923Y37311D01*
X147951Y37410D01*
X147974Y37511D01*
X147994Y37613D01*
X148010Y37715D01*
X148023Y37818D01*
X148031Y37921D01*
X148036Y38024D01*
X147893Y38024D01*
X147888Y37924D01*
X147880Y37824D01*
X147867Y37724D01*
X147851Y37625D01*
X147831Y37526D01*
X147808Y37429D01*
X147781Y37332D01*
X147750Y37237D01*
X147715Y37142D01*
X147677Y37049D01*
X147636Y36958D01*
X147591Y36868D01*
X147542Y36780D01*
X147491Y36694D01*
X147436Y36610D01*
X147378Y36528D01*
X147317Y36448D01*
X147253Y36371D01*
X147186Y36296D01*
X147117Y36223D01*
X147044Y36154D01*
X146969Y36087D01*
X146892Y36023D01*
X146812Y35962D01*
X146730Y35904D01*
X146646Y35849D01*
X146560Y35798D01*
X146472Y35749D01*
X146382Y35704D01*
X146291Y35663D01*
X146198Y35625D01*
X146103Y35590D01*
X146008Y35559D01*
X145911Y35532D01*
X145814Y35509D01*
X145715Y35489D01*
X145616Y35473D01*
X145516Y35460D01*
X145416Y35452D01*
X145316Y35447D01*
X145316Y35590D01*
X145416Y35595D01*
X145515Y35604D01*
X145614Y35617D01*
X145712Y35634D01*
X145810Y35655D01*
X145907Y35679D01*
X146002Y35708D01*
X146097Y35740D01*
X146190Y35776D01*
X146282Y35815D01*
X146371Y35858D01*
X146460Y35905D01*
X146546Y35955D01*
X146630Y36009D01*
X146712Y36066D01*
X146792Y36126D01*
X146869Y36189D01*
X146944Y36255D01*
X147016Y36324D01*
X147085Y36396D01*
X147151Y36471D01*
X147214Y36548D01*
X147274Y36628D01*
X147331Y36710D01*
X147385Y36794D01*
X147435Y36880D01*
X147482Y36969D01*
X147525Y37058D01*
X147564Y37150D01*
X147600Y37243D01*
X147632Y37338D01*
X147661Y37433D01*
X147685Y37530D01*
X147706Y37628D01*
X147723Y37726D01*
X147736Y37825D01*
X147745Y37924D01*
X147750Y38024D01*
X147607Y38024D01*
X147602Y37928D01*
X147593Y37832D01*
X147580Y37736D01*
X147563Y37641D01*
X147543Y37547D01*
X147518Y37454D01*
X147490Y37362D01*
X147458Y37271D01*
X147422Y37181D01*
X147383Y37093D01*
X147340Y37006D01*
X147294Y36922D01*
X147244Y36839D01*
X147191Y36759D01*
X147135Y36680D01*
X147076Y36604D01*
X147014Y36531D01*
X146948Y36460D01*
X146880Y36392D01*
X146809Y36326D01*
X146736Y36264D01*
X146660Y36205D01*
X146581Y36149D01*
X146501Y36096D01*
X146418Y36046D01*
X146334Y36000D01*
X146247Y35957D01*
X146159Y35918D01*
X146069Y35882D01*
X145978Y35850D01*
X145886Y35822D01*
X145793Y35797D01*
X145699Y35777D01*
X145604Y35760D01*
X145508Y35747D01*
X145412Y35738D01*
X145316Y35733D01*
X145316Y35876D01*
X145409Y35881D01*
X145501Y35890D01*
X145593Y35903D01*
X145684Y35920D01*
X145775Y35940D01*
X145865Y35964D01*
X145953Y35992D01*
X146041Y36024D01*
X146126Y36059D01*
X146211Y36098D01*
X146294Y36140D01*
X146374Y36186D01*
X146453Y36235D01*
X146530Y36287D01*
X146605Y36343D01*
X146677Y36401D01*
X146746Y36462D01*
X146813Y36527D01*
X146878Y36594D01*
X146939Y36663D01*
X146997Y36735D01*
X147053Y36810D01*
X147105Y36887D01*
X147154Y36966D01*
X147200Y37046D01*
X147242Y37129D01*
X147281Y37214D01*
X147316Y37299D01*
X147348Y37387D01*
X147376Y37475D01*
X147400Y37565D01*
X147420Y37656D01*
X147437Y37747D01*
X147450Y37839D01*
X147459Y37931D01*
X147464Y38024D01*
X147321Y38024D01*
X147315Y37935D01*
X147307Y37846D01*
X147294Y37758D01*
X147277Y37671D01*
X147257Y37584D01*
X147233Y37498D01*
X147206Y37413D01*
X147174Y37330D01*
X147140Y37248D01*
X147101Y37167D01*
X147060Y37089D01*
X147015Y37012D01*
X146967Y36937D01*
X146915Y36864D01*
X146861Y36793D01*
X146804Y36725D01*
X146743Y36660D01*
X146680Y36597D01*
X146615Y36536D01*
X146547Y36479D01*
X146476Y36425D01*
X146403Y36373D01*
X146328Y36325D01*
X146251Y36280D01*
X146173Y36239D01*
X146092Y36200D01*
X146010Y36166D01*
X145927Y36134D01*
X145842Y36107D01*
X145756Y36083D01*
X145669Y36063D01*
X145582Y36046D01*
X145494Y36033D01*
X145405Y36025D01*
X145316Y36019D01*
X145316Y36162D01*
X145401Y36168D01*
X145486Y36177D01*
X145570Y36189D01*
X145653Y36206D01*
X145736Y36226D01*
X145818Y36249D01*
X145898Y36276D01*
X145978Y36307D01*
X146056Y36341D01*
X146132Y36378D01*
X146207Y36419D01*
X146280Y36463D01*
X146351Y36511D01*
X146419Y36561D01*
X146486Y36614D01*
X146550Y36670D01*
X146611Y36729D01*
X146670Y36790D01*
X146726Y36854D01*
X146779Y36921D01*
X146829Y36989D01*
X146877Y37060D01*
X146921Y37133D01*
X146962Y37208D01*
X146999Y37284D01*
X147033Y37362D01*
X147064Y37442D01*
X147091Y37522D01*
X147114Y37604D01*
X147134Y37687D01*
X147151Y37770D01*
X147163Y37854D01*
X147172Y37939D01*
X147178Y38024D01*
X148465Y50875D02*
X147092Y50875D01*
X147092Y50876D02*
X147087Y50959D01*
X147078Y51043D01*
X147065Y51125D01*
X147049Y51207D01*
X147029Y51288D01*
X147005Y51369D01*
X146977Y51448D01*
X146946Y51525D01*
X146912Y51601D01*
X146874Y51676D01*
X146833Y51749D01*
X146788Y51820D01*
X146741Y51889D01*
X146690Y51955D01*
X146637Y52019D01*
X146580Y52081D01*
X146521Y52140D01*
X146459Y52197D01*
X146395Y52250D01*
X146329Y52301D01*
X146260Y52348D01*
X146189Y52393D01*
X146116Y52434D01*
X146041Y52472D01*
X145965Y52506D01*
X145888Y52537D01*
X145809Y52565D01*
X145728Y52589D01*
X145647Y52609D01*
X145565Y52625D01*
X145483Y52638D01*
X145399Y52647D01*
X145316Y52652D01*
X145315Y54025D01*
X145316Y54025D01*
X145428Y54021D01*
X145539Y54012D01*
X145650Y54000D01*
X145761Y53984D01*
X145870Y53964D01*
X145980Y53940D01*
X146088Y53913D01*
X146195Y53881D01*
X146301Y53846D01*
X146406Y53808D01*
X146510Y53766D01*
X146611Y53720D01*
X146712Y53671D01*
X146810Y53618D01*
X146907Y53562D01*
X147002Y53503D01*
X147094Y53440D01*
X147184Y53374D01*
X147272Y53305D01*
X147358Y53234D01*
X147441Y53159D01*
X147521Y53081D01*
X147599Y53001D01*
X147674Y52918D01*
X147745Y52832D01*
X147814Y52744D01*
X147880Y52654D01*
X147943Y52562D01*
X148002Y52467D01*
X148058Y52370D01*
X148111Y52272D01*
X148160Y52171D01*
X148206Y52070D01*
X148248Y51966D01*
X148286Y51861D01*
X148321Y51755D01*
X148353Y51648D01*
X148380Y51540D01*
X148404Y51430D01*
X148424Y51321D01*
X148440Y51210D01*
X148452Y51099D01*
X148461Y50988D01*
X148465Y50876D01*
X148322Y50876D01*
X148317Y50985D01*
X148309Y51094D01*
X148297Y51202D01*
X148281Y51310D01*
X148261Y51417D01*
X148237Y51524D01*
X148209Y51629D01*
X148178Y51734D01*
X148143Y51837D01*
X148105Y51939D01*
X148063Y52040D01*
X148017Y52139D01*
X147968Y52236D01*
X147915Y52332D01*
X147860Y52426D01*
X147800Y52517D01*
X147738Y52607D01*
X147673Y52694D01*
X147604Y52779D01*
X147533Y52861D01*
X147458Y52941D01*
X147381Y53018D01*
X147301Y53093D01*
X147219Y53164D01*
X147134Y53233D01*
X147047Y53298D01*
X146957Y53360D01*
X146866Y53420D01*
X146772Y53475D01*
X146676Y53528D01*
X146579Y53577D01*
X146480Y53623D01*
X146379Y53665D01*
X146277Y53703D01*
X146174Y53738D01*
X146069Y53769D01*
X145964Y53797D01*
X145857Y53821D01*
X145750Y53841D01*
X145642Y53857D01*
X145534Y53869D01*
X145425Y53877D01*
X145316Y53882D01*
X145316Y53739D01*
X145422Y53734D01*
X145528Y53726D01*
X145634Y53714D01*
X145739Y53697D01*
X145843Y53677D01*
X145947Y53654D01*
X146050Y53626D01*
X146151Y53595D01*
X146252Y53560D01*
X146351Y53522D01*
X146449Y53480D01*
X146545Y53435D01*
X146639Y53386D01*
X146732Y53333D01*
X146823Y53278D01*
X146911Y53219D01*
X146997Y53157D01*
X147082Y53092D01*
X147163Y53024D01*
X147242Y52953D01*
X147319Y52879D01*
X147393Y52802D01*
X147464Y52723D01*
X147532Y52642D01*
X147597Y52557D01*
X147659Y52471D01*
X147718Y52383D01*
X147773Y52292D01*
X147826Y52199D01*
X147875Y52105D01*
X147920Y52009D01*
X147962Y51911D01*
X148000Y51812D01*
X148035Y51711D01*
X148066Y51610D01*
X148094Y51507D01*
X148117Y51403D01*
X148137Y51299D01*
X148154Y51194D01*
X148166Y51088D01*
X148174Y50982D01*
X148179Y50876D01*
X148036Y50876D01*
X148031Y50979D01*
X148023Y51082D01*
X148010Y51185D01*
X147994Y51287D01*
X147974Y51389D01*
X147951Y51490D01*
X147923Y51589D01*
X147892Y51688D01*
X147858Y51785D01*
X147819Y51882D01*
X147778Y51976D01*
X147732Y52069D01*
X147684Y52161D01*
X147632Y52250D01*
X147577Y52337D01*
X147518Y52423D01*
X147457Y52506D01*
X147392Y52587D01*
X147324Y52665D01*
X147254Y52741D01*
X147181Y52814D01*
X147105Y52884D01*
X147027Y52952D01*
X146946Y53017D01*
X146863Y53078D01*
X146777Y53137D01*
X146690Y53192D01*
X146601Y53244D01*
X146509Y53292D01*
X146416Y53338D01*
X146322Y53379D01*
X146225Y53418D01*
X146128Y53452D01*
X146029Y53483D01*
X145930Y53511D01*
X145829Y53534D01*
X145727Y53554D01*
X145625Y53570D01*
X145522Y53583D01*
X145419Y53591D01*
X145316Y53596D01*
X145316Y53453D01*
X145416Y53448D01*
X145516Y53440D01*
X145616Y53427D01*
X145715Y53411D01*
X145814Y53391D01*
X145911Y53368D01*
X146008Y53341D01*
X146103Y53310D01*
X146198Y53275D01*
X146291Y53237D01*
X146382Y53196D01*
X146472Y53151D01*
X146560Y53102D01*
X146646Y53051D01*
X146730Y52996D01*
X146812Y52938D01*
X146892Y52877D01*
X146969Y52813D01*
X147044Y52746D01*
X147117Y52677D01*
X147186Y52604D01*
X147253Y52529D01*
X147317Y52452D01*
X147378Y52372D01*
X147436Y52290D01*
X147491Y52206D01*
X147542Y52120D01*
X147591Y52032D01*
X147636Y51942D01*
X147677Y51851D01*
X147715Y51758D01*
X147750Y51663D01*
X147781Y51568D01*
X147808Y51471D01*
X147831Y51374D01*
X147851Y51275D01*
X147867Y51176D01*
X147880Y51076D01*
X147888Y50976D01*
X147893Y50876D01*
X147750Y50876D01*
X147745Y50976D01*
X147736Y51075D01*
X147723Y51174D01*
X147706Y51272D01*
X147685Y51370D01*
X147661Y51467D01*
X147632Y51562D01*
X147600Y51657D01*
X147564Y51750D01*
X147525Y51842D01*
X147482Y51931D01*
X147435Y52020D01*
X147385Y52106D01*
X147331Y52190D01*
X147274Y52272D01*
X147214Y52352D01*
X147151Y52429D01*
X147085Y52504D01*
X147016Y52576D01*
X146944Y52645D01*
X146869Y52711D01*
X146792Y52774D01*
X146712Y52834D01*
X146630Y52891D01*
X146546Y52945D01*
X146460Y52995D01*
X146371Y53042D01*
X146282Y53085D01*
X146190Y53124D01*
X146097Y53160D01*
X146002Y53192D01*
X145907Y53221D01*
X145810Y53245D01*
X145712Y53266D01*
X145614Y53283D01*
X145515Y53296D01*
X145416Y53305D01*
X145316Y53310D01*
X145316Y53167D01*
X145412Y53162D01*
X145508Y53153D01*
X145604Y53140D01*
X145699Y53123D01*
X145793Y53103D01*
X145886Y53078D01*
X145978Y53050D01*
X146069Y53018D01*
X146159Y52982D01*
X146247Y52943D01*
X146334Y52900D01*
X146418Y52854D01*
X146501Y52804D01*
X146581Y52751D01*
X146660Y52695D01*
X146736Y52636D01*
X146809Y52574D01*
X146880Y52508D01*
X146948Y52440D01*
X147014Y52369D01*
X147076Y52296D01*
X147135Y52220D01*
X147191Y52141D01*
X147244Y52061D01*
X147294Y51978D01*
X147340Y51894D01*
X147383Y51807D01*
X147422Y51719D01*
X147458Y51629D01*
X147490Y51538D01*
X147518Y51446D01*
X147543Y51353D01*
X147563Y51259D01*
X147580Y51164D01*
X147593Y51068D01*
X147602Y50972D01*
X147607Y50876D01*
X147464Y50876D01*
X147459Y50969D01*
X147450Y51061D01*
X147437Y51153D01*
X147420Y51244D01*
X147400Y51335D01*
X147376Y51425D01*
X147348Y51513D01*
X147316Y51601D01*
X147281Y51686D01*
X147242Y51771D01*
X147200Y51854D01*
X147154Y51934D01*
X147105Y52013D01*
X147053Y52090D01*
X146997Y52165D01*
X146939Y52237D01*
X146878Y52306D01*
X146813Y52373D01*
X146746Y52438D01*
X146677Y52499D01*
X146605Y52557D01*
X146530Y52613D01*
X146453Y52665D01*
X146374Y52714D01*
X146294Y52760D01*
X146211Y52802D01*
X146126Y52841D01*
X146041Y52876D01*
X145953Y52908D01*
X145865Y52936D01*
X145775Y52960D01*
X145684Y52980D01*
X145593Y52997D01*
X145501Y53010D01*
X145409Y53019D01*
X145316Y53024D01*
X145316Y52881D01*
X145405Y52875D01*
X145494Y52867D01*
X145582Y52854D01*
X145669Y52837D01*
X145756Y52817D01*
X145842Y52793D01*
X145927Y52766D01*
X146010Y52734D01*
X146092Y52700D01*
X146173Y52661D01*
X146251Y52620D01*
X146328Y52575D01*
X146403Y52527D01*
X146476Y52475D01*
X146547Y52421D01*
X146615Y52364D01*
X146680Y52303D01*
X146743Y52240D01*
X146804Y52175D01*
X146861Y52107D01*
X146915Y52036D01*
X146967Y51963D01*
X147015Y51888D01*
X147060Y51811D01*
X147101Y51733D01*
X147140Y51652D01*
X147174Y51570D01*
X147206Y51487D01*
X147233Y51402D01*
X147257Y51316D01*
X147277Y51229D01*
X147294Y51142D01*
X147307Y51054D01*
X147315Y50965D01*
X147321Y50876D01*
X147178Y50876D01*
X147172Y50961D01*
X147163Y51046D01*
X147151Y51130D01*
X147134Y51213D01*
X147114Y51296D01*
X147091Y51378D01*
X147064Y51458D01*
X147033Y51538D01*
X146999Y51616D01*
X146962Y51692D01*
X146921Y51767D01*
X146877Y51840D01*
X146829Y51911D01*
X146779Y51979D01*
X146726Y52046D01*
X146670Y52110D01*
X146611Y52171D01*
X146550Y52230D01*
X146486Y52286D01*
X146419Y52339D01*
X146351Y52389D01*
X146280Y52437D01*
X146207Y52481D01*
X146132Y52522D01*
X146056Y52559D01*
X145978Y52593D01*
X145898Y52624D01*
X145818Y52651D01*
X145736Y52674D01*
X145653Y52694D01*
X145570Y52711D01*
X145486Y52723D01*
X145401Y52732D01*
X145316Y52738D01*
X114685Y54025D02*
X114685Y52652D01*
X114684Y52652D02*
X114601Y52647D01*
X114517Y52638D01*
X114435Y52625D01*
X114353Y52609D01*
X114272Y52589D01*
X114191Y52565D01*
X114112Y52537D01*
X114035Y52506D01*
X113959Y52472D01*
X113884Y52434D01*
X113811Y52393D01*
X113740Y52348D01*
X113671Y52301D01*
X113605Y52250D01*
X113541Y52197D01*
X113479Y52140D01*
X113420Y52081D01*
X113363Y52019D01*
X113310Y51955D01*
X113259Y51889D01*
X113212Y51820D01*
X113167Y51749D01*
X113126Y51676D01*
X113088Y51601D01*
X113054Y51525D01*
X113023Y51448D01*
X112995Y51369D01*
X112971Y51288D01*
X112951Y51207D01*
X112935Y51125D01*
X112922Y51043D01*
X112913Y50959D01*
X112908Y50876D01*
X111535Y50875D01*
X111535Y50876D01*
X111539Y50988D01*
X111548Y51099D01*
X111560Y51210D01*
X111576Y51321D01*
X111596Y51430D01*
X111620Y51540D01*
X111647Y51648D01*
X111679Y51755D01*
X111714Y51861D01*
X111752Y51966D01*
X111794Y52070D01*
X111840Y52171D01*
X111889Y52272D01*
X111942Y52370D01*
X111998Y52467D01*
X112057Y52562D01*
X112120Y52654D01*
X112186Y52744D01*
X112255Y52832D01*
X112326Y52918D01*
X112401Y53001D01*
X112479Y53081D01*
X112559Y53159D01*
X112642Y53234D01*
X112728Y53305D01*
X112816Y53374D01*
X112906Y53440D01*
X112998Y53503D01*
X113093Y53562D01*
X113190Y53618D01*
X113288Y53671D01*
X113389Y53720D01*
X113490Y53766D01*
X113594Y53808D01*
X113699Y53846D01*
X113805Y53881D01*
X113912Y53913D01*
X114020Y53940D01*
X114130Y53964D01*
X114239Y53984D01*
X114350Y54000D01*
X114461Y54012D01*
X114572Y54021D01*
X114684Y54025D01*
X114684Y53882D01*
X114575Y53877D01*
X114466Y53869D01*
X114358Y53857D01*
X114250Y53841D01*
X114143Y53821D01*
X114036Y53797D01*
X113931Y53769D01*
X113826Y53738D01*
X113723Y53703D01*
X113621Y53665D01*
X113520Y53623D01*
X113421Y53577D01*
X113324Y53528D01*
X113228Y53475D01*
X113134Y53420D01*
X113043Y53360D01*
X112953Y53298D01*
X112866Y53233D01*
X112781Y53164D01*
X112699Y53093D01*
X112619Y53018D01*
X112542Y52941D01*
X112467Y52861D01*
X112396Y52779D01*
X112327Y52694D01*
X112262Y52607D01*
X112200Y52517D01*
X112140Y52426D01*
X112085Y52332D01*
X112032Y52236D01*
X111983Y52139D01*
X111937Y52040D01*
X111895Y51939D01*
X111857Y51837D01*
X111822Y51734D01*
X111791Y51629D01*
X111763Y51524D01*
X111739Y51417D01*
X111719Y51310D01*
X111703Y51202D01*
X111691Y51094D01*
X111683Y50985D01*
X111678Y50876D01*
X111821Y50876D01*
X111826Y50982D01*
X111834Y51088D01*
X111846Y51194D01*
X111863Y51299D01*
X111883Y51403D01*
X111906Y51507D01*
X111934Y51610D01*
X111965Y51711D01*
X112000Y51812D01*
X112038Y51911D01*
X112080Y52009D01*
X112125Y52105D01*
X112174Y52199D01*
X112227Y52292D01*
X112282Y52383D01*
X112341Y52471D01*
X112403Y52557D01*
X112468Y52642D01*
X112536Y52723D01*
X112607Y52802D01*
X112681Y52879D01*
X112758Y52953D01*
X112837Y53024D01*
X112918Y53092D01*
X113003Y53157D01*
X113089Y53219D01*
X113177Y53278D01*
X113268Y53333D01*
X113361Y53386D01*
X113455Y53435D01*
X113551Y53480D01*
X113649Y53522D01*
X113748Y53560D01*
X113849Y53595D01*
X113950Y53626D01*
X114053Y53654D01*
X114157Y53677D01*
X114261Y53697D01*
X114366Y53714D01*
X114472Y53726D01*
X114578Y53734D01*
X114684Y53739D01*
X114684Y53596D01*
X114581Y53591D01*
X114478Y53583D01*
X114375Y53570D01*
X114273Y53554D01*
X114171Y53534D01*
X114070Y53511D01*
X113971Y53483D01*
X113872Y53452D01*
X113775Y53418D01*
X113678Y53379D01*
X113584Y53338D01*
X113491Y53292D01*
X113399Y53244D01*
X113310Y53192D01*
X113223Y53137D01*
X113137Y53078D01*
X113054Y53017D01*
X112973Y52952D01*
X112895Y52884D01*
X112819Y52814D01*
X112746Y52741D01*
X112676Y52665D01*
X112608Y52587D01*
X112543Y52506D01*
X112482Y52423D01*
X112423Y52337D01*
X112368Y52250D01*
X112316Y52161D01*
X112268Y52069D01*
X112222Y51976D01*
X112181Y51882D01*
X112142Y51785D01*
X112108Y51688D01*
X112077Y51589D01*
X112049Y51490D01*
X112026Y51389D01*
X112006Y51287D01*
X111990Y51185D01*
X111977Y51082D01*
X111969Y50979D01*
X111964Y50876D01*
X112107Y50876D01*
X112112Y50976D01*
X112120Y51076D01*
X112133Y51176D01*
X112149Y51275D01*
X112169Y51374D01*
X112192Y51471D01*
X112219Y51568D01*
X112250Y51663D01*
X112285Y51758D01*
X112323Y51851D01*
X112364Y51942D01*
X112409Y52032D01*
X112458Y52120D01*
X112509Y52206D01*
X112564Y52290D01*
X112622Y52372D01*
X112683Y52452D01*
X112747Y52529D01*
X112814Y52604D01*
X112883Y52677D01*
X112956Y52746D01*
X113031Y52813D01*
X113108Y52877D01*
X113188Y52938D01*
X113270Y52996D01*
X113354Y53051D01*
X113440Y53102D01*
X113528Y53151D01*
X113618Y53196D01*
X113709Y53237D01*
X113802Y53275D01*
X113897Y53310D01*
X113992Y53341D01*
X114089Y53368D01*
X114186Y53391D01*
X114285Y53411D01*
X114384Y53427D01*
X114484Y53440D01*
X114584Y53448D01*
X114684Y53453D01*
X114684Y53310D01*
X114584Y53305D01*
X114485Y53296D01*
X114386Y53283D01*
X114288Y53266D01*
X114190Y53245D01*
X114093Y53221D01*
X113998Y53192D01*
X113903Y53160D01*
X113810Y53124D01*
X113718Y53085D01*
X113629Y53042D01*
X113540Y52995D01*
X113454Y52945D01*
X113370Y52891D01*
X113288Y52834D01*
X113208Y52774D01*
X113131Y52711D01*
X113056Y52645D01*
X112984Y52576D01*
X112915Y52504D01*
X112849Y52429D01*
X112786Y52352D01*
X112726Y52272D01*
X112669Y52190D01*
X112615Y52106D01*
X112565Y52020D01*
X112518Y51931D01*
X112475Y51842D01*
X112436Y51750D01*
X112400Y51657D01*
X112368Y51562D01*
X112339Y51467D01*
X112315Y51370D01*
X112294Y51272D01*
X112277Y51174D01*
X112264Y51075D01*
X112255Y50976D01*
X112250Y50876D01*
X112393Y50876D01*
X112398Y50972D01*
X112407Y51068D01*
X112420Y51164D01*
X112437Y51259D01*
X112457Y51353D01*
X112482Y51446D01*
X112510Y51538D01*
X112542Y51629D01*
X112578Y51719D01*
X112617Y51807D01*
X112660Y51894D01*
X112706Y51978D01*
X112756Y52061D01*
X112809Y52141D01*
X112865Y52220D01*
X112924Y52296D01*
X112986Y52369D01*
X113052Y52440D01*
X113120Y52508D01*
X113191Y52574D01*
X113264Y52636D01*
X113340Y52695D01*
X113419Y52751D01*
X113499Y52804D01*
X113582Y52854D01*
X113666Y52900D01*
X113753Y52943D01*
X113841Y52982D01*
X113931Y53018D01*
X114022Y53050D01*
X114114Y53078D01*
X114207Y53103D01*
X114301Y53123D01*
X114396Y53140D01*
X114492Y53153D01*
X114588Y53162D01*
X114684Y53167D01*
X114684Y53024D01*
X114591Y53019D01*
X114499Y53010D01*
X114407Y52997D01*
X114316Y52980D01*
X114225Y52960D01*
X114135Y52936D01*
X114047Y52908D01*
X113959Y52876D01*
X113874Y52841D01*
X113789Y52802D01*
X113706Y52760D01*
X113626Y52714D01*
X113547Y52665D01*
X113470Y52613D01*
X113395Y52557D01*
X113323Y52499D01*
X113254Y52438D01*
X113187Y52373D01*
X113122Y52306D01*
X113061Y52237D01*
X113003Y52165D01*
X112947Y52090D01*
X112895Y52013D01*
X112846Y51934D01*
X112800Y51854D01*
X112758Y51771D01*
X112719Y51686D01*
X112684Y51601D01*
X112652Y51513D01*
X112624Y51425D01*
X112600Y51335D01*
X112580Y51244D01*
X112563Y51153D01*
X112550Y51061D01*
X112541Y50969D01*
X112536Y50876D01*
X112679Y50876D01*
X112685Y50965D01*
X112693Y51054D01*
X112706Y51142D01*
X112723Y51229D01*
X112743Y51316D01*
X112767Y51402D01*
X112794Y51487D01*
X112826Y51570D01*
X112860Y51652D01*
X112899Y51733D01*
X112940Y51811D01*
X112985Y51888D01*
X113033Y51963D01*
X113085Y52036D01*
X113139Y52107D01*
X113196Y52175D01*
X113257Y52240D01*
X113320Y52303D01*
X113385Y52364D01*
X113453Y52421D01*
X113524Y52475D01*
X113597Y52527D01*
X113672Y52575D01*
X113749Y52620D01*
X113827Y52661D01*
X113908Y52700D01*
X113990Y52734D01*
X114073Y52766D01*
X114158Y52793D01*
X114244Y52817D01*
X114331Y52837D01*
X114418Y52854D01*
X114506Y52867D01*
X114595Y52875D01*
X114684Y52881D01*
X114684Y52738D01*
X114599Y52732D01*
X114514Y52723D01*
X114430Y52711D01*
X114347Y52694D01*
X114264Y52674D01*
X114182Y52651D01*
X114102Y52624D01*
X114022Y52593D01*
X113944Y52559D01*
X113868Y52522D01*
X113793Y52481D01*
X113720Y52437D01*
X113649Y52389D01*
X113581Y52339D01*
X113514Y52286D01*
X113450Y52230D01*
X113389Y52171D01*
X113330Y52110D01*
X113274Y52046D01*
X113221Y51979D01*
X113171Y51911D01*
X113123Y51840D01*
X113079Y51767D01*
X113038Y51692D01*
X113001Y51616D01*
X112967Y51538D01*
X112936Y51458D01*
X112909Y51378D01*
X112886Y51296D01*
X112866Y51213D01*
X112849Y51130D01*
X112837Y51046D01*
X112828Y50961D01*
X112822Y50876D01*
X111535Y38025D02*
X112908Y38025D01*
X112908Y38024D02*
X112913Y37941D01*
X112922Y37857D01*
X112935Y37775D01*
X112951Y37693D01*
X112971Y37612D01*
X112995Y37531D01*
X113023Y37452D01*
X113054Y37375D01*
X113088Y37299D01*
X113126Y37224D01*
X113167Y37151D01*
X113212Y37080D01*
X113259Y37011D01*
X113310Y36945D01*
X113363Y36881D01*
X113420Y36819D01*
X113479Y36760D01*
X113541Y36703D01*
X113605Y36650D01*
X113671Y36599D01*
X113740Y36552D01*
X113811Y36507D01*
X113884Y36466D01*
X113959Y36428D01*
X114035Y36394D01*
X114112Y36363D01*
X114191Y36335D01*
X114272Y36311D01*
X114353Y36291D01*
X114435Y36275D01*
X114517Y36262D01*
X114601Y36253D01*
X114684Y36248D01*
X114685Y34875D01*
X114684Y34875D01*
X114572Y34879D01*
X114461Y34888D01*
X114350Y34900D01*
X114239Y34916D01*
X114130Y34936D01*
X114020Y34960D01*
X113912Y34987D01*
X113805Y35019D01*
X113699Y35054D01*
X113594Y35092D01*
X113490Y35134D01*
X113389Y35180D01*
X113288Y35229D01*
X113190Y35282D01*
X113093Y35338D01*
X112998Y35397D01*
X112906Y35460D01*
X112816Y35526D01*
X112728Y35595D01*
X112642Y35666D01*
X112559Y35741D01*
X112479Y35819D01*
X112401Y35899D01*
X112326Y35982D01*
X112255Y36068D01*
X112186Y36156D01*
X112120Y36246D01*
X112057Y36338D01*
X111998Y36433D01*
X111942Y36530D01*
X111889Y36628D01*
X111840Y36729D01*
X111794Y36830D01*
X111752Y36934D01*
X111714Y37039D01*
X111679Y37145D01*
X111647Y37252D01*
X111620Y37360D01*
X111596Y37470D01*
X111576Y37579D01*
X111560Y37690D01*
X111548Y37801D01*
X111539Y37912D01*
X111535Y38024D01*
X111678Y38024D01*
X111683Y37915D01*
X111691Y37806D01*
X111703Y37698D01*
X111719Y37590D01*
X111739Y37483D01*
X111763Y37376D01*
X111791Y37271D01*
X111822Y37166D01*
X111857Y37063D01*
X111895Y36961D01*
X111937Y36860D01*
X111983Y36761D01*
X112032Y36664D01*
X112085Y36568D01*
X112140Y36474D01*
X112200Y36383D01*
X112262Y36293D01*
X112327Y36206D01*
X112396Y36121D01*
X112467Y36039D01*
X112542Y35959D01*
X112619Y35882D01*
X112699Y35807D01*
X112781Y35736D01*
X112866Y35667D01*
X112953Y35602D01*
X113043Y35540D01*
X113134Y35480D01*
X113228Y35425D01*
X113324Y35372D01*
X113421Y35323D01*
X113520Y35277D01*
X113621Y35235D01*
X113723Y35197D01*
X113826Y35162D01*
X113931Y35131D01*
X114036Y35103D01*
X114143Y35079D01*
X114250Y35059D01*
X114358Y35043D01*
X114466Y35031D01*
X114575Y35023D01*
X114684Y35018D01*
X114684Y35161D01*
X114578Y35166D01*
X114472Y35174D01*
X114366Y35186D01*
X114261Y35203D01*
X114157Y35223D01*
X114053Y35246D01*
X113950Y35274D01*
X113849Y35305D01*
X113748Y35340D01*
X113649Y35378D01*
X113551Y35420D01*
X113455Y35465D01*
X113361Y35514D01*
X113268Y35567D01*
X113177Y35622D01*
X113089Y35681D01*
X113003Y35743D01*
X112918Y35808D01*
X112837Y35876D01*
X112758Y35947D01*
X112681Y36021D01*
X112607Y36098D01*
X112536Y36177D01*
X112468Y36258D01*
X112403Y36343D01*
X112341Y36429D01*
X112282Y36517D01*
X112227Y36608D01*
X112174Y36701D01*
X112125Y36795D01*
X112080Y36891D01*
X112038Y36989D01*
X112000Y37088D01*
X111965Y37189D01*
X111934Y37290D01*
X111906Y37393D01*
X111883Y37497D01*
X111863Y37601D01*
X111846Y37706D01*
X111834Y37812D01*
X111826Y37918D01*
X111821Y38024D01*
X111964Y38024D01*
X111969Y37921D01*
X111977Y37818D01*
X111990Y37715D01*
X112006Y37613D01*
X112026Y37511D01*
X112049Y37410D01*
X112077Y37311D01*
X112108Y37212D01*
X112142Y37115D01*
X112181Y37018D01*
X112222Y36924D01*
X112268Y36831D01*
X112316Y36739D01*
X112368Y36650D01*
X112423Y36563D01*
X112482Y36477D01*
X112543Y36394D01*
X112608Y36313D01*
X112676Y36235D01*
X112746Y36159D01*
X112819Y36086D01*
X112895Y36016D01*
X112973Y35948D01*
X113054Y35883D01*
X113137Y35822D01*
X113223Y35763D01*
X113310Y35708D01*
X113399Y35656D01*
X113491Y35608D01*
X113584Y35562D01*
X113678Y35521D01*
X113775Y35482D01*
X113872Y35448D01*
X113971Y35417D01*
X114070Y35389D01*
X114171Y35366D01*
X114273Y35346D01*
X114375Y35330D01*
X114478Y35317D01*
X114581Y35309D01*
X114684Y35304D01*
X114684Y35447D01*
X114584Y35452D01*
X114484Y35460D01*
X114384Y35473D01*
X114285Y35489D01*
X114186Y35509D01*
X114089Y35532D01*
X113992Y35559D01*
X113897Y35590D01*
X113802Y35625D01*
X113709Y35663D01*
X113618Y35704D01*
X113528Y35749D01*
X113440Y35798D01*
X113354Y35849D01*
X113270Y35904D01*
X113188Y35962D01*
X113108Y36023D01*
X113031Y36087D01*
X112956Y36154D01*
X112883Y36223D01*
X112814Y36296D01*
X112747Y36371D01*
X112683Y36448D01*
X112622Y36528D01*
X112564Y36610D01*
X112509Y36694D01*
X112458Y36780D01*
X112409Y36868D01*
X112364Y36958D01*
X112323Y37049D01*
X112285Y37142D01*
X112250Y37237D01*
X112219Y37332D01*
X112192Y37429D01*
X112169Y37526D01*
X112149Y37625D01*
X112133Y37724D01*
X112120Y37824D01*
X112112Y37924D01*
X112107Y38024D01*
X112250Y38024D01*
X112255Y37924D01*
X112264Y37825D01*
X112277Y37726D01*
X112294Y37628D01*
X112315Y37530D01*
X112339Y37433D01*
X112368Y37338D01*
X112400Y37243D01*
X112436Y37150D01*
X112475Y37058D01*
X112518Y36969D01*
X112565Y36880D01*
X112615Y36794D01*
X112669Y36710D01*
X112726Y36628D01*
X112786Y36548D01*
X112849Y36471D01*
X112915Y36396D01*
X112984Y36324D01*
X113056Y36255D01*
X113131Y36189D01*
X113208Y36126D01*
X113288Y36066D01*
X113370Y36009D01*
X113454Y35955D01*
X113540Y35905D01*
X113629Y35858D01*
X113718Y35815D01*
X113810Y35776D01*
X113903Y35740D01*
X113998Y35708D01*
X114093Y35679D01*
X114190Y35655D01*
X114288Y35634D01*
X114386Y35617D01*
X114485Y35604D01*
X114584Y35595D01*
X114684Y35590D01*
X114684Y35733D01*
X114588Y35738D01*
X114492Y35747D01*
X114396Y35760D01*
X114301Y35777D01*
X114207Y35797D01*
X114114Y35822D01*
X114022Y35850D01*
X113931Y35882D01*
X113841Y35918D01*
X113753Y35957D01*
X113666Y36000D01*
X113582Y36046D01*
X113499Y36096D01*
X113419Y36149D01*
X113340Y36205D01*
X113264Y36264D01*
X113191Y36326D01*
X113120Y36392D01*
X113052Y36460D01*
X112986Y36531D01*
X112924Y36604D01*
X112865Y36680D01*
X112809Y36759D01*
X112756Y36839D01*
X112706Y36922D01*
X112660Y37006D01*
X112617Y37093D01*
X112578Y37181D01*
X112542Y37271D01*
X112510Y37362D01*
X112482Y37454D01*
X112457Y37547D01*
X112437Y37641D01*
X112420Y37736D01*
X112407Y37832D01*
X112398Y37928D01*
X112393Y38024D01*
X112536Y38024D01*
X112541Y37931D01*
X112550Y37839D01*
X112563Y37747D01*
X112580Y37656D01*
X112600Y37565D01*
X112624Y37475D01*
X112652Y37387D01*
X112684Y37299D01*
X112719Y37214D01*
X112758Y37129D01*
X112800Y37046D01*
X112846Y36966D01*
X112895Y36887D01*
X112947Y36810D01*
X113003Y36735D01*
X113061Y36663D01*
X113122Y36594D01*
X113187Y36527D01*
X113254Y36462D01*
X113323Y36401D01*
X113395Y36343D01*
X113470Y36287D01*
X113547Y36235D01*
X113626Y36186D01*
X113706Y36140D01*
X113789Y36098D01*
X113874Y36059D01*
X113959Y36024D01*
X114047Y35992D01*
X114135Y35964D01*
X114225Y35940D01*
X114316Y35920D01*
X114407Y35903D01*
X114499Y35890D01*
X114591Y35881D01*
X114684Y35876D01*
X114684Y36019D01*
X114595Y36025D01*
X114506Y36033D01*
X114418Y36046D01*
X114331Y36063D01*
X114244Y36083D01*
X114158Y36107D01*
X114073Y36134D01*
X113990Y36166D01*
X113908Y36200D01*
X113827Y36239D01*
X113749Y36280D01*
X113672Y36325D01*
X113597Y36373D01*
X113524Y36425D01*
X113453Y36479D01*
X113385Y36536D01*
X113320Y36597D01*
X113257Y36660D01*
X113196Y36725D01*
X113139Y36793D01*
X113085Y36864D01*
X113033Y36937D01*
X112985Y37012D01*
X112940Y37089D01*
X112899Y37167D01*
X112860Y37248D01*
X112826Y37330D01*
X112794Y37413D01*
X112767Y37498D01*
X112743Y37584D01*
X112723Y37671D01*
X112706Y37758D01*
X112693Y37846D01*
X112685Y37935D01*
X112679Y38024D01*
X112822Y38024D01*
X112828Y37939D01*
X112837Y37854D01*
X112849Y37770D01*
X112866Y37687D01*
X112886Y37604D01*
X112909Y37522D01*
X112936Y37442D01*
X112967Y37362D01*
X113001Y37284D01*
X113038Y37208D01*
X113079Y37133D01*
X113123Y37060D01*
X113171Y36989D01*
X113221Y36921D01*
X113274Y36854D01*
X113330Y36790D01*
X113389Y36729D01*
X113450Y36670D01*
X113514Y36614D01*
X113581Y36561D01*
X113649Y36511D01*
X113720Y36463D01*
X113793Y36419D01*
X113868Y36378D01*
X113944Y36341D01*
X114022Y36307D01*
X114102Y36276D01*
X114182Y36249D01*
X114264Y36226D01*
X114347Y36206D01*
X114430Y36189D01*
X114514Y36177D01*
X114599Y36168D01*
X114684Y36162D01*
D12*
X142700Y35560D02*
X145240Y35560D01*
X142700Y35560D02*
X141430Y36830D01*
X142700Y53340D02*
X145240Y53340D01*
X142700Y53340D02*
X141430Y52070D01*
X118570Y36830D02*
X117300Y35560D01*
X118570Y36830D02*
X141430Y36830D01*
X118570Y52070D02*
X117300Y53340D01*
X118570Y52070D02*
X141430Y52070D01*
X117300Y35560D02*
X114760Y35560D01*
X114760Y53340D02*
X117300Y53340D01*
M02*
