G04 EAGLE Gerber RS-274X export*
G75*
%MOMM*%
%FSLAX34Y34*%
%LPD*%
%INSoldermask Top*%
%IPPOS*%
%AMOC8*
5,1,8,0,0,1.08239X$1,22.5*%
G01*
%ADD10C,3.603200*%
%ADD11P,1.951982X8X22.500000*%
%ADD12P,1.951982X8X112.500000*%
%ADD13P,1.951982X8X292.500000*%
%ADD14C,2.082800*%
%ADD15C,1.524000*%
%ADD16R,1.511200X1.511200*%
%ADD17R,1.711200X1.711200*%
%ADD18P,2.034460X8X202.500000*%


D10*
X123200Y188500D03*
D11*
X107950Y139700D03*
X133350Y139700D03*
D12*
X184150Y19050D03*
X184150Y44450D03*
D13*
X190500Y196850D03*
X190500Y171450D03*
D14*
X114150Y77000D03*
X139550Y77000D03*
X164950Y77000D03*
X190350Y77000D03*
D15*
X189704Y108900D02*
X176496Y108900D01*
X113504Y108900D02*
X100296Y108900D01*
D16*
X297700Y114850D03*
X221500Y114850D03*
X297700Y140250D03*
X297700Y165650D03*
X297700Y191050D03*
X221500Y191050D03*
X221500Y165650D03*
X221500Y140250D03*
X221500Y89450D03*
X221500Y64050D03*
X221500Y38650D03*
X297700Y89450D03*
X297700Y64050D03*
X297700Y38650D03*
X60000Y145400D03*
X60000Y170800D03*
X60000Y196200D03*
X60000Y94600D03*
X60000Y69200D03*
X60000Y43800D03*
D17*
X18000Y20000D03*
X18000Y220000D03*
D18*
X155400Y19050D03*
X104600Y19050D03*
X155400Y44450D03*
X104600Y44450D03*
M02*
