G04 EAGLE Gerber RS-274X export*
G75*
%MOMM*%
%FSLAX34Y34*%
%LPD*%
%INTop Copper*%
%IPPOS*%
%AMOC8*
5,1,8,0,0,1.08239X$1,22.5*%
G01*
%ADD10P,1.732040X8X112.500000*%
%ADD11P,1.732040X8X22.500000*%
%ADD12C,1.879600*%
%ADD13C,1.320800*%
%ADD14R,1.308000X1.308000*%
%ADD15R,1.508000X1.508000*%
%ADD16P,1.814519X8X202.500000*%
%ADD17C,0.609600*%
%ADD18C,0.304800*%


D10*
X114300Y114300D03*
X114300Y139700D03*
D11*
X215900Y190500D03*
X241300Y190500D03*
D10*
X88900Y304800D03*
X88900Y330200D03*
D12*
X304000Y209400D03*
X304000Y184000D03*
X304000Y158600D03*
X304000Y133200D03*
D13*
X247904Y101600D02*
X234696Y101600D01*
X171704Y101600D02*
X158496Y101600D01*
D14*
X203200Y304800D03*
X203200Y228600D03*
X177800Y304800D03*
X152400Y304800D03*
X127000Y304800D03*
X127000Y228600D03*
X152400Y228600D03*
X177800Y228600D03*
X228600Y228600D03*
X254000Y228600D03*
X279400Y228600D03*
X228600Y304800D03*
X254000Y304800D03*
X279400Y304800D03*
X63500Y149600D03*
X63500Y124200D03*
X63500Y98800D03*
X63500Y200400D03*
X63500Y225800D03*
X63500Y251200D03*
D15*
X21500Y275000D03*
X21500Y75000D03*
D16*
X165100Y190500D03*
X114300Y190500D03*
X254000Y152400D03*
X203200Y152400D03*
D17*
X272400Y101600D02*
X304000Y133200D01*
X272400Y101600D02*
X241300Y101600D01*
X304000Y133200D02*
X342900Y172100D01*
X342900Y254000D01*
X317500Y279400D01*
X91700Y279400D02*
X63500Y251200D01*
X91700Y279400D02*
X317500Y279400D01*
X91700Y279400D02*
X88900Y282200D01*
X88900Y304800D01*
X127000Y304800D01*
D18*
X304000Y184000D02*
X330200Y210200D01*
X330200Y228600D01*
X304800Y254000D01*
X203200Y254000D01*
X177800Y254000D01*
X152400Y254000D01*
X127000Y228600D01*
X177800Y228600D02*
X203200Y254000D01*
X279400Y184800D02*
X304000Y209400D01*
X279400Y184800D02*
X279400Y139700D01*
X266700Y127000D01*
X165100Y127000D01*
X127000Y165100D01*
X50800Y165100D01*
X38100Y152400D01*
X38100Y114300D01*
X53600Y98800D01*
X63500Y98800D01*
D17*
X127000Y101600D02*
X165100Y101600D01*
X127000Y101600D02*
X114300Y114300D01*
X98800Y114300D01*
X63500Y149600D01*
D18*
X114300Y190500D02*
X79000Y225800D01*
X63500Y225800D01*
X165100Y190500D02*
X215900Y190500D01*
X203200Y177800D02*
X203200Y152400D01*
X203200Y177800D02*
X215900Y190500D01*
X165100Y215900D02*
X152400Y228600D01*
X215900Y215900D02*
X241300Y190500D01*
X215900Y215900D02*
X165100Y215900D01*
X203200Y228600D02*
X215900Y215900D01*
X241300Y190500D02*
X254000Y177800D01*
X254000Y152400D01*
M02*
