G04 EAGLE Gerber RS-274X export*
G75*
%MOMM*%
%FSLAX34Y34*%
%LPD*%
%INBottom Copper*%
%IPPOS*%
%AMOC8*
5,1,8,0,0,1.08239X$1,22.5*%
G01*
%ADD10P,1.732040X8X112.500000*%
%ADD11P,1.732040X8X22.500000*%
%ADD12C,1.879600*%
%ADD13C,1.320800*%
%ADD14R,1.308000X1.308000*%
%ADD15R,1.508000X1.508000*%
%ADD16P,1.814519X8X202.500000*%

G36*
X400980Y10176D02*
X400980Y10176D01*
X401075Y10185D01*
X401101Y10196D01*
X401129Y10200D01*
X401213Y10245D01*
X401301Y10283D01*
X401322Y10302D01*
X401347Y10316D01*
X401412Y10385D01*
X401483Y10449D01*
X401496Y10473D01*
X401516Y10494D01*
X401556Y10580D01*
X401603Y10664D01*
X401608Y10691D01*
X401620Y10717D01*
X401630Y10812D01*
X401648Y10905D01*
X401644Y10933D01*
X401647Y10961D01*
X401626Y11055D01*
X401613Y11149D01*
X401599Y11181D01*
X401594Y11202D01*
X401577Y11230D01*
X401546Y11303D01*
X399690Y14516D01*
X397839Y21424D01*
X397839Y28576D01*
X399690Y35484D01*
X403266Y41677D01*
X408323Y46734D01*
X414516Y50310D01*
X421424Y52161D01*
X428576Y52161D01*
X435484Y50310D01*
X438697Y48454D01*
X438786Y48421D01*
X438873Y48380D01*
X438901Y48377D01*
X438927Y48367D01*
X439023Y48364D01*
X439117Y48353D01*
X439145Y48359D01*
X439173Y48358D01*
X439265Y48385D01*
X439358Y48406D01*
X439382Y48420D01*
X439409Y48428D01*
X439487Y48483D01*
X439569Y48532D01*
X439587Y48553D01*
X439610Y48569D01*
X439667Y48646D01*
X439729Y48719D01*
X439739Y48745D01*
X439756Y48768D01*
X439785Y48858D01*
X439821Y48947D01*
X439825Y48982D01*
X439831Y49002D01*
X439831Y49035D01*
X439839Y49114D01*
X439839Y300886D01*
X439824Y300980D01*
X439815Y301075D01*
X439804Y301101D01*
X439800Y301129D01*
X439755Y301213D01*
X439717Y301301D01*
X439698Y301322D01*
X439684Y301347D01*
X439615Y301412D01*
X439551Y301483D01*
X439527Y301496D01*
X439506Y301516D01*
X439420Y301556D01*
X439336Y301603D01*
X439309Y301608D01*
X439283Y301620D01*
X439188Y301630D01*
X439095Y301648D01*
X439067Y301644D01*
X439039Y301647D01*
X438945Y301626D01*
X438851Y301613D01*
X438819Y301599D01*
X438798Y301594D01*
X438770Y301577D01*
X438697Y301546D01*
X435484Y299690D01*
X428576Y297839D01*
X421424Y297839D01*
X414516Y299690D01*
X408323Y303266D01*
X403266Y308323D01*
X399690Y314516D01*
X397839Y321424D01*
X397839Y328576D01*
X399690Y335484D01*
X401546Y338697D01*
X401579Y338786D01*
X401620Y338873D01*
X401623Y338901D01*
X401633Y338927D01*
X401636Y339023D01*
X401647Y339117D01*
X401641Y339145D01*
X401642Y339173D01*
X401615Y339265D01*
X401594Y339358D01*
X401580Y339382D01*
X401572Y339409D01*
X401517Y339487D01*
X401468Y339569D01*
X401447Y339587D01*
X401431Y339610D01*
X401354Y339667D01*
X401281Y339729D01*
X401255Y339739D01*
X401232Y339756D01*
X401142Y339785D01*
X401053Y339821D01*
X401018Y339825D01*
X400998Y339831D01*
X400965Y339831D01*
X400886Y339839D01*
X96007Y339839D01*
X95936Y339828D01*
X95864Y339826D01*
X95815Y339808D01*
X95764Y339800D01*
X95701Y339766D01*
X95633Y339741D01*
X95593Y339709D01*
X95547Y339684D01*
X95497Y339632D01*
X95441Y339588D01*
X95413Y339544D01*
X95377Y339506D01*
X95347Y339441D01*
X95308Y339381D01*
X95296Y339330D01*
X95274Y339283D01*
X95266Y339212D01*
X95248Y339142D01*
X95252Y339090D01*
X95247Y339039D01*
X95262Y338968D01*
X95267Y338897D01*
X95288Y338849D01*
X95299Y338798D01*
X95336Y338737D01*
X95364Y338671D01*
X95408Y338615D01*
X95425Y338587D01*
X95443Y338572D01*
X95468Y338540D01*
X99442Y334567D01*
X99442Y331723D01*
X89662Y331723D01*
X89642Y331720D01*
X89623Y331722D01*
X89521Y331700D01*
X89419Y331683D01*
X89402Y331674D01*
X89382Y331670D01*
X89293Y331617D01*
X89202Y331568D01*
X89188Y331554D01*
X89171Y331544D01*
X89104Y331465D01*
X89033Y331390D01*
X89024Y331372D01*
X89011Y331357D01*
X88973Y331261D01*
X88929Y331167D01*
X88927Y331147D01*
X88919Y331129D01*
X88901Y330962D01*
X88901Y330199D01*
X88899Y330199D01*
X88899Y330962D01*
X88896Y330982D01*
X88898Y331001D01*
X88876Y331103D01*
X88859Y331205D01*
X88850Y331222D01*
X88846Y331242D01*
X88793Y331331D01*
X88744Y331422D01*
X88730Y331436D01*
X88720Y331453D01*
X88641Y331520D01*
X88566Y331591D01*
X88548Y331600D01*
X88533Y331613D01*
X88437Y331652D01*
X88343Y331695D01*
X88323Y331697D01*
X88305Y331705D01*
X88138Y331723D01*
X78358Y331723D01*
X78358Y334567D01*
X82332Y338540D01*
X82373Y338598D01*
X82423Y338650D01*
X82445Y338697D01*
X82475Y338739D01*
X82496Y338808D01*
X82526Y338873D01*
X82532Y338925D01*
X82547Y338975D01*
X82546Y339046D01*
X82553Y339117D01*
X82542Y339168D01*
X82541Y339220D01*
X82516Y339288D01*
X82501Y339358D01*
X82474Y339403D01*
X82457Y339451D01*
X82412Y339507D01*
X82375Y339569D01*
X82335Y339603D01*
X82303Y339643D01*
X82243Y339682D01*
X82188Y339729D01*
X82140Y339748D01*
X82096Y339776D01*
X82027Y339794D01*
X81960Y339821D01*
X81889Y339829D01*
X81857Y339837D01*
X81834Y339835D01*
X81793Y339839D01*
X49114Y339839D01*
X49020Y339824D01*
X48925Y339815D01*
X48899Y339804D01*
X48871Y339800D01*
X48787Y339755D01*
X48699Y339717D01*
X48678Y339698D01*
X48653Y339684D01*
X48588Y339615D01*
X48517Y339551D01*
X48504Y339527D01*
X48484Y339506D01*
X48444Y339420D01*
X48397Y339336D01*
X48392Y339309D01*
X48380Y339283D01*
X48370Y339188D01*
X48352Y339095D01*
X48356Y339067D01*
X48353Y339039D01*
X48374Y338945D01*
X48387Y338851D01*
X48401Y338819D01*
X48406Y338798D01*
X48423Y338770D01*
X48454Y338697D01*
X50310Y335484D01*
X52161Y328576D01*
X52161Y321424D01*
X50310Y314516D01*
X46734Y308323D01*
X41677Y303266D01*
X35484Y299690D01*
X28576Y297839D01*
X21424Y297839D01*
X14516Y299690D01*
X11303Y301546D01*
X11214Y301579D01*
X11127Y301620D01*
X11099Y301623D01*
X11073Y301633D01*
X10977Y301636D01*
X10883Y301647D01*
X10855Y301641D01*
X10827Y301642D01*
X10735Y301615D01*
X10642Y301594D01*
X10618Y301580D01*
X10591Y301572D01*
X10513Y301517D01*
X10431Y301468D01*
X10413Y301447D01*
X10390Y301431D01*
X10333Y301354D01*
X10271Y301281D01*
X10261Y301255D01*
X10244Y301232D01*
X10215Y301142D01*
X10179Y301053D01*
X10175Y301018D01*
X10169Y300998D01*
X10169Y300965D01*
X10161Y300886D01*
X10161Y285968D01*
X10172Y285897D01*
X10174Y285825D01*
X10192Y285776D01*
X10200Y285725D01*
X10234Y285662D01*
X10259Y285594D01*
X10291Y285554D01*
X10316Y285508D01*
X10368Y285458D01*
X10412Y285402D01*
X10456Y285374D01*
X10494Y285338D01*
X10559Y285308D01*
X10619Y285269D01*
X10670Y285257D01*
X10717Y285235D01*
X10788Y285227D01*
X10858Y285209D01*
X10910Y285213D01*
X10961Y285208D01*
X11032Y285223D01*
X11103Y285228D01*
X11151Y285249D01*
X11202Y285260D01*
X11263Y285297D01*
X11329Y285325D01*
X11385Y285369D01*
X11413Y285386D01*
X11428Y285404D01*
X11460Y285429D01*
X12382Y286351D01*
X30618Y286351D01*
X32851Y284118D01*
X32851Y265882D01*
X30618Y263649D01*
X12382Y263649D01*
X11460Y264571D01*
X11402Y264612D01*
X11350Y264662D01*
X11303Y264684D01*
X11261Y264714D01*
X11192Y264735D01*
X11127Y264765D01*
X11075Y264771D01*
X11025Y264786D01*
X10954Y264785D01*
X10883Y264792D01*
X10832Y264781D01*
X10780Y264780D01*
X10712Y264755D01*
X10642Y264740D01*
X10597Y264714D01*
X10549Y264696D01*
X10493Y264651D01*
X10431Y264614D01*
X10397Y264574D01*
X10357Y264542D01*
X10318Y264482D01*
X10271Y264427D01*
X10252Y264379D01*
X10224Y264335D01*
X10206Y264266D01*
X10179Y264199D01*
X10171Y264128D01*
X10163Y264097D01*
X10165Y264073D01*
X10161Y264032D01*
X10161Y85968D01*
X10172Y85897D01*
X10174Y85825D01*
X10192Y85776D01*
X10200Y85725D01*
X10234Y85662D01*
X10259Y85594D01*
X10291Y85554D01*
X10316Y85508D01*
X10368Y85458D01*
X10412Y85402D01*
X10456Y85374D01*
X10494Y85338D01*
X10559Y85308D01*
X10619Y85269D01*
X10670Y85257D01*
X10717Y85235D01*
X10788Y85227D01*
X10858Y85209D01*
X10910Y85213D01*
X10961Y85208D01*
X11032Y85223D01*
X11103Y85228D01*
X11151Y85249D01*
X11202Y85260D01*
X11263Y85297D01*
X11329Y85325D01*
X11385Y85369D01*
X11413Y85386D01*
X11428Y85404D01*
X11460Y85429D01*
X12382Y86351D01*
X30618Y86351D01*
X32851Y84118D01*
X32851Y65882D01*
X30618Y63649D01*
X12382Y63649D01*
X11460Y64571D01*
X11402Y64612D01*
X11350Y64662D01*
X11303Y64684D01*
X11261Y64714D01*
X11192Y64735D01*
X11127Y64765D01*
X11075Y64771D01*
X11025Y64786D01*
X10954Y64785D01*
X10883Y64792D01*
X10832Y64781D01*
X10780Y64780D01*
X10712Y64755D01*
X10642Y64740D01*
X10597Y64714D01*
X10549Y64696D01*
X10493Y64651D01*
X10431Y64614D01*
X10397Y64574D01*
X10357Y64542D01*
X10318Y64482D01*
X10271Y64427D01*
X10252Y64379D01*
X10224Y64335D01*
X10206Y64266D01*
X10179Y64199D01*
X10171Y64128D01*
X10163Y64097D01*
X10165Y64073D01*
X10161Y64032D01*
X10161Y49114D01*
X10176Y49020D01*
X10185Y48925D01*
X10196Y48899D01*
X10200Y48871D01*
X10245Y48787D01*
X10283Y48699D01*
X10302Y48678D01*
X10316Y48653D01*
X10385Y48588D01*
X10449Y48517D01*
X10473Y48504D01*
X10494Y48484D01*
X10580Y48444D01*
X10664Y48397D01*
X10691Y48392D01*
X10717Y48380D01*
X10812Y48370D01*
X10905Y48352D01*
X10933Y48356D01*
X10961Y48353D01*
X11055Y48374D01*
X11149Y48387D01*
X11181Y48401D01*
X11202Y48406D01*
X11230Y48423D01*
X11303Y48454D01*
X14516Y50310D01*
X21424Y52161D01*
X28576Y52161D01*
X35484Y50310D01*
X41677Y46734D01*
X46734Y41677D01*
X50310Y35484D01*
X52161Y28576D01*
X52161Y21424D01*
X50310Y14516D01*
X48454Y11303D01*
X48421Y11214D01*
X48380Y11127D01*
X48377Y11099D01*
X48367Y11073D01*
X48364Y10977D01*
X48353Y10883D01*
X48359Y10855D01*
X48358Y10827D01*
X48385Y10735D01*
X48406Y10642D01*
X48420Y10618D01*
X48428Y10591D01*
X48483Y10513D01*
X48532Y10431D01*
X48553Y10413D01*
X48569Y10390D01*
X48646Y10333D01*
X48719Y10271D01*
X48745Y10261D01*
X48768Y10244D01*
X48858Y10215D01*
X48947Y10179D01*
X48982Y10175D01*
X49002Y10169D01*
X49035Y10169D01*
X49114Y10161D01*
X400886Y10161D01*
X400980Y10176D01*
G37*
%LPC*%
G36*
X301373Y119991D02*
X301373Y119991D01*
X296518Y122002D01*
X292802Y125718D01*
X290791Y130573D01*
X290791Y135827D01*
X292802Y140682D01*
X296518Y144398D01*
X300132Y145895D01*
X300218Y145948D01*
X300307Y145996D01*
X300322Y146013D01*
X300341Y146024D01*
X300405Y146102D01*
X300474Y146177D01*
X300483Y146197D01*
X300498Y146214D01*
X300534Y146308D01*
X300576Y146401D01*
X300578Y146423D01*
X300586Y146443D01*
X300590Y146544D01*
X300600Y146645D01*
X300595Y146667D01*
X300596Y146689D01*
X300568Y146787D01*
X300545Y146885D01*
X300534Y146904D01*
X300528Y146925D01*
X300470Y147009D01*
X300417Y147095D01*
X300400Y147109D01*
X300387Y147127D01*
X300306Y147188D01*
X300228Y147253D01*
X300203Y147264D01*
X300190Y147274D01*
X300159Y147284D01*
X300076Y147322D01*
X299417Y147536D01*
X297743Y148389D01*
X296222Y149494D01*
X294894Y150822D01*
X293789Y152343D01*
X292936Y154017D01*
X292355Y155804D01*
X292154Y157077D01*
X303238Y157077D01*
X303258Y157080D01*
X303277Y157078D01*
X303379Y157100D01*
X303481Y157117D01*
X303498Y157126D01*
X303518Y157130D01*
X303607Y157183D01*
X303698Y157232D01*
X303712Y157246D01*
X303729Y157256D01*
X303796Y157335D01*
X303867Y157410D01*
X303876Y157428D01*
X303889Y157443D01*
X303927Y157539D01*
X303971Y157633D01*
X303973Y157653D01*
X303981Y157671D01*
X303999Y157838D01*
X303999Y159362D01*
X303996Y159382D01*
X303998Y159401D01*
X303976Y159503D01*
X303959Y159605D01*
X303950Y159622D01*
X303946Y159642D01*
X303893Y159731D01*
X303844Y159822D01*
X303830Y159836D01*
X303820Y159853D01*
X303741Y159920D01*
X303666Y159991D01*
X303648Y160000D01*
X303633Y160013D01*
X303537Y160052D01*
X303443Y160095D01*
X303423Y160097D01*
X303405Y160105D01*
X303238Y160123D01*
X292154Y160123D01*
X292355Y161396D01*
X292936Y163183D01*
X293789Y164857D01*
X294894Y166378D01*
X296222Y167706D01*
X297743Y168811D01*
X299417Y169664D01*
X300076Y169878D01*
X300166Y169924D01*
X300258Y169966D01*
X300274Y169981D01*
X300294Y169991D01*
X300365Y170063D01*
X300439Y170132D01*
X300450Y170152D01*
X300465Y170167D01*
X300509Y170259D01*
X300558Y170348D01*
X300562Y170369D01*
X300571Y170389D01*
X300583Y170490D01*
X300601Y170590D01*
X300598Y170612D01*
X300601Y170634D01*
X300580Y170733D01*
X300566Y170833D01*
X300556Y170853D01*
X300551Y170874D01*
X300500Y170962D01*
X300454Y171052D01*
X300438Y171068D01*
X300427Y171087D01*
X300351Y171153D01*
X300279Y171224D01*
X300255Y171238D01*
X300242Y171249D01*
X300212Y171261D01*
X300132Y171305D01*
X296518Y172802D01*
X292802Y176518D01*
X290791Y181373D01*
X290791Y186627D01*
X292802Y191482D01*
X296518Y195198D01*
X298447Y195997D01*
X298508Y196035D01*
X298573Y196064D01*
X298611Y196099D01*
X298656Y196126D01*
X298701Y196182D01*
X298754Y196230D01*
X298779Y196276D01*
X298812Y196316D01*
X298838Y196383D01*
X298873Y196446D01*
X298882Y196497D01*
X298901Y196545D01*
X298904Y196617D01*
X298916Y196688D01*
X298909Y196739D01*
X298911Y196791D01*
X298891Y196860D01*
X298881Y196931D01*
X298857Y196977D01*
X298842Y197027D01*
X298802Y197086D01*
X298769Y197150D01*
X298732Y197187D01*
X298702Y197229D01*
X298645Y197272D01*
X298594Y197322D01*
X298531Y197357D01*
X298505Y197376D01*
X298483Y197383D01*
X298447Y197403D01*
X296518Y198202D01*
X292802Y201918D01*
X290791Y206773D01*
X290791Y212027D01*
X292802Y216882D01*
X296518Y220598D01*
X301373Y222609D01*
X306627Y222609D01*
X311482Y220598D01*
X315198Y216882D01*
X317209Y212027D01*
X317209Y206773D01*
X315198Y201918D01*
X311482Y198202D01*
X309553Y197403D01*
X309492Y197365D01*
X309427Y197336D01*
X309389Y197301D01*
X309344Y197274D01*
X309299Y197218D01*
X309246Y197170D01*
X309221Y197124D01*
X309188Y197084D01*
X309162Y197017D01*
X309127Y196954D01*
X309118Y196903D01*
X309099Y196855D01*
X309096Y196783D01*
X309084Y196712D01*
X309091Y196661D01*
X309089Y196609D01*
X309109Y196540D01*
X309119Y196469D01*
X309143Y196423D01*
X309158Y196373D01*
X309198Y196314D01*
X309231Y196250D01*
X309268Y196213D01*
X309298Y196171D01*
X309355Y196128D01*
X309406Y196078D01*
X309469Y196043D01*
X309495Y196024D01*
X309517Y196017D01*
X309553Y195997D01*
X311482Y195198D01*
X315198Y191482D01*
X317209Y186627D01*
X317209Y181373D01*
X315198Y176518D01*
X311482Y172802D01*
X307868Y171305D01*
X307782Y171252D01*
X307693Y171204D01*
X307678Y171187D01*
X307659Y171176D01*
X307595Y171098D01*
X307526Y171023D01*
X307517Y171003D01*
X307502Y170986D01*
X307466Y170892D01*
X307424Y170799D01*
X307422Y170777D01*
X307414Y170757D01*
X307410Y170656D01*
X307400Y170555D01*
X307405Y170533D01*
X307404Y170511D01*
X307432Y170413D01*
X307455Y170315D01*
X307466Y170296D01*
X307472Y170275D01*
X307530Y170191D01*
X307583Y170105D01*
X307600Y170091D01*
X307613Y170073D01*
X307694Y170012D01*
X307772Y169947D01*
X307797Y169936D01*
X307810Y169926D01*
X307841Y169916D01*
X307924Y169878D01*
X308583Y169664D01*
X310257Y168811D01*
X311778Y167706D01*
X313106Y166378D01*
X314211Y164857D01*
X315064Y163183D01*
X315645Y161396D01*
X315846Y160123D01*
X304762Y160123D01*
X304742Y160120D01*
X304723Y160122D01*
X304621Y160100D01*
X304519Y160083D01*
X304502Y160074D01*
X304482Y160070D01*
X304393Y160017D01*
X304302Y159968D01*
X304288Y159954D01*
X304271Y159944D01*
X304204Y159865D01*
X304133Y159790D01*
X304124Y159772D01*
X304111Y159757D01*
X304073Y159661D01*
X304029Y159567D01*
X304027Y159547D01*
X304019Y159529D01*
X304001Y159362D01*
X304001Y157838D01*
X304004Y157820D01*
X304002Y157804D01*
X304002Y157802D01*
X304002Y157799D01*
X304024Y157697D01*
X304041Y157595D01*
X304050Y157578D01*
X304054Y157558D01*
X304107Y157469D01*
X304156Y157378D01*
X304170Y157364D01*
X304180Y157347D01*
X304259Y157280D01*
X304334Y157209D01*
X304352Y157200D01*
X304367Y157187D01*
X304463Y157148D01*
X304557Y157105D01*
X304577Y157103D01*
X304595Y157095D01*
X304762Y157077D01*
X315846Y157077D01*
X315645Y155804D01*
X315064Y154017D01*
X314211Y152343D01*
X313106Y150822D01*
X311778Y149494D01*
X310257Y148389D01*
X308583Y147536D01*
X307924Y147322D01*
X307834Y147276D01*
X307742Y147234D01*
X307726Y147219D01*
X307706Y147209D01*
X307635Y147137D01*
X307561Y147068D01*
X307550Y147048D01*
X307535Y147033D01*
X307491Y146941D01*
X307442Y146852D01*
X307438Y146831D01*
X307429Y146811D01*
X307417Y146710D01*
X307399Y146610D01*
X307402Y146588D01*
X307399Y146566D01*
X307420Y146467D01*
X307434Y146367D01*
X307444Y146347D01*
X307449Y146326D01*
X307500Y146238D01*
X307546Y146148D01*
X307562Y146132D01*
X307573Y146113D01*
X307649Y146047D01*
X307721Y145976D01*
X307745Y145962D01*
X307758Y145951D01*
X307788Y145939D01*
X307868Y145895D01*
X311482Y144398D01*
X315198Y140682D01*
X317209Y135827D01*
X317209Y130573D01*
X315198Y125718D01*
X311482Y122002D01*
X306627Y119991D01*
X301373Y119991D01*
G37*
%LPD*%
%LPC*%
G36*
X232624Y91185D02*
X232624Y91185D01*
X228796Y92771D01*
X225867Y95700D01*
X224281Y99528D01*
X224281Y103672D01*
X225867Y107500D01*
X228796Y110429D01*
X232624Y112015D01*
X249976Y112015D01*
X253804Y110429D01*
X256733Y107500D01*
X258319Y103672D01*
X258319Y99528D01*
X256733Y95700D01*
X253804Y92771D01*
X249976Y91185D01*
X232624Y91185D01*
G37*
%LPD*%
%LPC*%
G36*
X156424Y91185D02*
X156424Y91185D01*
X152596Y92771D01*
X149667Y95700D01*
X148081Y99528D01*
X148081Y103672D01*
X149667Y107500D01*
X152596Y110429D01*
X156424Y112015D01*
X173776Y112015D01*
X177604Y110429D01*
X180533Y107500D01*
X182119Y103672D01*
X182119Y99528D01*
X180533Y95700D01*
X177604Y92771D01*
X173776Y91185D01*
X156424Y91185D01*
G37*
%LPD*%
%LPC*%
G36*
X109250Y178307D02*
X109250Y178307D01*
X102107Y185450D01*
X102107Y195550D01*
X109250Y202693D01*
X119350Y202693D01*
X126493Y195550D01*
X126493Y185450D01*
X119350Y178307D01*
X109250Y178307D01*
G37*
%LPD*%
%LPC*%
G36*
X160050Y178307D02*
X160050Y178307D01*
X152907Y185450D01*
X152907Y195550D01*
X160050Y202693D01*
X170150Y202693D01*
X177293Y195550D01*
X177293Y185450D01*
X170150Y178307D01*
X160050Y178307D01*
G37*
%LPD*%
%LPC*%
G36*
X248950Y140207D02*
X248950Y140207D01*
X241807Y147350D01*
X241807Y157450D01*
X248950Y164593D01*
X259050Y164593D01*
X266193Y157450D01*
X266193Y147350D01*
X259050Y140207D01*
X248950Y140207D01*
G37*
%LPD*%
%LPC*%
G36*
X198150Y140207D02*
X198150Y140207D01*
X191007Y147350D01*
X191007Y157450D01*
X198150Y164593D01*
X208250Y164593D01*
X215393Y157450D01*
X215393Y147350D01*
X208250Y140207D01*
X198150Y140207D01*
G37*
%LPD*%
%LPC*%
G36*
X84007Y292988D02*
X84007Y292988D01*
X77088Y299907D01*
X77088Y309693D01*
X84007Y316612D01*
X93793Y316612D01*
X100712Y309693D01*
X100712Y299907D01*
X93793Y292988D01*
X84007Y292988D01*
G37*
%LPD*%
%LPC*%
G36*
X236407Y178688D02*
X236407Y178688D01*
X229488Y185607D01*
X229488Y195393D01*
X236407Y202312D01*
X246193Y202312D01*
X253112Y195393D01*
X253112Y185607D01*
X246193Y178688D01*
X236407Y178688D01*
G37*
%LPD*%
%LPC*%
G36*
X211007Y178688D02*
X211007Y178688D01*
X204088Y185607D01*
X204088Y195393D01*
X211007Y202312D01*
X220793Y202312D01*
X227712Y195393D01*
X227712Y185607D01*
X220793Y178688D01*
X211007Y178688D01*
G37*
%LPD*%
%LPC*%
G36*
X109407Y102488D02*
X109407Y102488D01*
X102488Y109407D01*
X102488Y119193D01*
X109407Y126112D01*
X119193Y126112D01*
X126112Y119193D01*
X126112Y109407D01*
X119193Y102488D01*
X109407Y102488D01*
G37*
%LPD*%
%LPC*%
G36*
X271282Y294449D02*
X271282Y294449D01*
X269049Y296682D01*
X269049Y312918D01*
X271282Y315151D01*
X287518Y315151D01*
X289751Y312918D01*
X289751Y296682D01*
X287518Y294449D01*
X271282Y294449D01*
G37*
%LPD*%
%LPC*%
G36*
X220482Y294449D02*
X220482Y294449D01*
X218249Y296682D01*
X218249Y312918D01*
X220482Y315151D01*
X236718Y315151D01*
X238951Y312918D01*
X238951Y296682D01*
X236718Y294449D01*
X220482Y294449D01*
G37*
%LPD*%
%LPC*%
G36*
X245882Y294449D02*
X245882Y294449D01*
X243649Y296682D01*
X243649Y312918D01*
X245882Y315151D01*
X262118Y315151D01*
X264351Y312918D01*
X264351Y296682D01*
X262118Y294449D01*
X245882Y294449D01*
G37*
%LPD*%
%LPC*%
G36*
X195082Y294449D02*
X195082Y294449D01*
X192849Y296682D01*
X192849Y312918D01*
X195082Y315151D01*
X211318Y315151D01*
X213551Y312918D01*
X213551Y296682D01*
X211318Y294449D01*
X195082Y294449D01*
G37*
%LPD*%
%LPC*%
G36*
X169682Y294449D02*
X169682Y294449D01*
X167449Y296682D01*
X167449Y312918D01*
X169682Y315151D01*
X185918Y315151D01*
X188151Y312918D01*
X188151Y296682D01*
X185918Y294449D01*
X169682Y294449D01*
G37*
%LPD*%
%LPC*%
G36*
X118882Y294449D02*
X118882Y294449D01*
X116649Y296682D01*
X116649Y312918D01*
X118882Y315151D01*
X135118Y315151D01*
X137351Y312918D01*
X137351Y296682D01*
X135118Y294449D01*
X118882Y294449D01*
G37*
%LPD*%
%LPC*%
G36*
X144282Y294449D02*
X144282Y294449D01*
X142049Y296682D01*
X142049Y312918D01*
X144282Y315151D01*
X160518Y315151D01*
X162751Y312918D01*
X162751Y296682D01*
X160518Y294449D01*
X144282Y294449D01*
G37*
%LPD*%
%LPC*%
G36*
X55382Y240849D02*
X55382Y240849D01*
X53149Y243082D01*
X53149Y259318D01*
X55382Y261551D01*
X71618Y261551D01*
X73851Y259318D01*
X73851Y243082D01*
X71618Y240849D01*
X55382Y240849D01*
G37*
%LPD*%
%LPC*%
G36*
X118882Y218249D02*
X118882Y218249D01*
X116649Y220482D01*
X116649Y236718D01*
X118882Y238951D01*
X135118Y238951D01*
X137351Y236718D01*
X137351Y220482D01*
X135118Y218249D01*
X118882Y218249D01*
G37*
%LPD*%
%LPC*%
G36*
X144282Y218249D02*
X144282Y218249D01*
X142049Y220482D01*
X142049Y236718D01*
X144282Y238951D01*
X160518Y238951D01*
X162751Y236718D01*
X162751Y220482D01*
X160518Y218249D01*
X144282Y218249D01*
G37*
%LPD*%
%LPC*%
G36*
X220482Y218249D02*
X220482Y218249D01*
X218249Y220482D01*
X218249Y236718D01*
X220482Y238951D01*
X236718Y238951D01*
X238951Y236718D01*
X238951Y220482D01*
X236718Y218249D01*
X220482Y218249D01*
G37*
%LPD*%
%LPC*%
G36*
X245882Y218249D02*
X245882Y218249D01*
X243649Y220482D01*
X243649Y236718D01*
X245882Y238951D01*
X262118Y238951D01*
X264351Y236718D01*
X264351Y220482D01*
X262118Y218249D01*
X245882Y218249D01*
G37*
%LPD*%
%LPC*%
G36*
X195082Y218249D02*
X195082Y218249D01*
X192849Y220482D01*
X192849Y236718D01*
X195082Y238951D01*
X211318Y238951D01*
X213551Y236718D01*
X213551Y220482D01*
X211318Y218249D01*
X195082Y218249D01*
G37*
%LPD*%
%LPC*%
G36*
X169682Y218249D02*
X169682Y218249D01*
X167449Y220482D01*
X167449Y236718D01*
X169682Y238951D01*
X185918Y238951D01*
X188151Y236718D01*
X188151Y220482D01*
X185918Y218249D01*
X169682Y218249D01*
G37*
%LPD*%
%LPC*%
G36*
X55382Y215449D02*
X55382Y215449D01*
X53149Y217682D01*
X53149Y233918D01*
X55382Y236151D01*
X71618Y236151D01*
X73851Y233918D01*
X73851Y217682D01*
X71618Y215449D01*
X55382Y215449D01*
G37*
%LPD*%
%LPC*%
G36*
X55382Y190049D02*
X55382Y190049D01*
X53149Y192282D01*
X53149Y208518D01*
X55382Y210751D01*
X71618Y210751D01*
X73851Y208518D01*
X73851Y192282D01*
X71618Y190049D01*
X55382Y190049D01*
G37*
%LPD*%
%LPC*%
G36*
X55382Y139249D02*
X55382Y139249D01*
X53149Y141482D01*
X53149Y157718D01*
X55382Y159951D01*
X71618Y159951D01*
X73851Y157718D01*
X73851Y141482D01*
X71618Y139249D01*
X55382Y139249D01*
G37*
%LPD*%
%LPC*%
G36*
X55382Y88449D02*
X55382Y88449D01*
X53149Y90682D01*
X53149Y106918D01*
X55382Y109151D01*
X71618Y109151D01*
X73851Y106918D01*
X73851Y90682D01*
X71618Y88449D01*
X55382Y88449D01*
G37*
%LPD*%
%LPC*%
G36*
X115823Y141223D02*
X115823Y141223D01*
X115823Y150242D01*
X118667Y150242D01*
X124842Y144067D01*
X124842Y141223D01*
X115823Y141223D01*
G37*
%LPD*%
%LPC*%
G36*
X103758Y141223D02*
X103758Y141223D01*
X103758Y144067D01*
X109933Y150242D01*
X112777Y150242D01*
X112777Y141223D01*
X103758Y141223D01*
G37*
%LPD*%
%LPC*%
G36*
X90423Y319658D02*
X90423Y319658D01*
X90423Y328677D01*
X99442Y328677D01*
X99442Y325833D01*
X93267Y319658D01*
X90423Y319658D01*
G37*
%LPD*%
%LPC*%
G36*
X115823Y129158D02*
X115823Y129158D01*
X115823Y138177D01*
X124842Y138177D01*
X124842Y135333D01*
X118667Y129158D01*
X115823Y129158D01*
G37*
%LPD*%
%LPC*%
G36*
X109933Y129158D02*
X109933Y129158D01*
X103758Y135333D01*
X103758Y138177D01*
X112777Y138177D01*
X112777Y129158D01*
X109933Y129158D01*
G37*
%LPD*%
%LPC*%
G36*
X84533Y319658D02*
X84533Y319658D01*
X78358Y325833D01*
X78358Y328677D01*
X87377Y328677D01*
X87377Y319658D01*
X84533Y319658D01*
G37*
%LPD*%
%LPC*%
G36*
X65023Y125723D02*
X65023Y125723D01*
X65023Y133281D01*
X70374Y133281D01*
X71021Y133108D01*
X71600Y132773D01*
X72073Y132300D01*
X72408Y131721D01*
X72581Y131074D01*
X72581Y125723D01*
X65023Y125723D01*
G37*
%LPD*%
%LPC*%
G36*
X280923Y230123D02*
X280923Y230123D01*
X280923Y237681D01*
X286274Y237681D01*
X286921Y237508D01*
X287500Y237173D01*
X287973Y236700D01*
X288308Y236121D01*
X288481Y235474D01*
X288481Y230123D01*
X280923Y230123D01*
G37*
%LPD*%
%LPC*%
G36*
X54419Y125723D02*
X54419Y125723D01*
X54419Y131074D01*
X54592Y131721D01*
X54927Y132300D01*
X55400Y132773D01*
X55979Y133108D01*
X56626Y133281D01*
X61977Y133281D01*
X61977Y125723D01*
X54419Y125723D01*
G37*
%LPD*%
%LPC*%
G36*
X270319Y230123D02*
X270319Y230123D01*
X270319Y235474D01*
X270492Y236121D01*
X270827Y236700D01*
X271300Y237173D01*
X271879Y237508D01*
X272526Y237681D01*
X277877Y237681D01*
X277877Y230123D01*
X270319Y230123D01*
G37*
%LPD*%
%LPC*%
G36*
X280923Y219519D02*
X280923Y219519D01*
X280923Y227077D01*
X288481Y227077D01*
X288481Y221726D01*
X288308Y221079D01*
X287973Y220500D01*
X287500Y220027D01*
X286921Y219692D01*
X286274Y219519D01*
X280923Y219519D01*
G37*
%LPD*%
%LPC*%
G36*
X65023Y115119D02*
X65023Y115119D01*
X65023Y122677D01*
X72581Y122677D01*
X72581Y117326D01*
X72408Y116679D01*
X72073Y116100D01*
X71600Y115627D01*
X71021Y115292D01*
X70374Y115119D01*
X65023Y115119D01*
G37*
%LPD*%
%LPC*%
G36*
X56626Y115119D02*
X56626Y115119D01*
X55979Y115292D01*
X55400Y115627D01*
X54927Y116100D01*
X54592Y116679D01*
X54419Y117326D01*
X54419Y122677D01*
X61977Y122677D01*
X61977Y115119D01*
X56626Y115119D01*
G37*
%LPD*%
%LPC*%
G36*
X272526Y219519D02*
X272526Y219519D01*
X271879Y219692D01*
X271300Y220027D01*
X270827Y220500D01*
X270492Y221079D01*
X270319Y221726D01*
X270319Y227077D01*
X277877Y227077D01*
X277877Y219519D01*
X272526Y219519D01*
G37*
%LPD*%
%LPC*%
G36*
X114299Y139699D02*
X114299Y139699D01*
X114299Y139701D01*
X114301Y139701D01*
X114301Y139699D01*
X114299Y139699D01*
G37*
%LPD*%
%LPC*%
G36*
X279399Y228599D02*
X279399Y228599D01*
X279399Y228601D01*
X279401Y228601D01*
X279401Y228599D01*
X279399Y228599D01*
G37*
%LPD*%
%LPC*%
G36*
X63499Y124199D02*
X63499Y124199D01*
X63499Y124201D01*
X63501Y124201D01*
X63501Y124199D01*
X63499Y124199D01*
G37*
%LPD*%
D10*
X114300Y114300D03*
X114300Y139700D03*
D11*
X215900Y190500D03*
X241300Y190500D03*
D10*
X88900Y304800D03*
X88900Y330200D03*
D12*
X304000Y209400D03*
X304000Y184000D03*
X304000Y158600D03*
X304000Y133200D03*
D13*
X247904Y101600D02*
X234696Y101600D01*
X171704Y101600D02*
X158496Y101600D01*
D14*
X203200Y304800D03*
X203200Y228600D03*
X177800Y304800D03*
X152400Y304800D03*
X127000Y304800D03*
X127000Y228600D03*
X152400Y228600D03*
X177800Y228600D03*
X228600Y228600D03*
X254000Y228600D03*
X279400Y228600D03*
X228600Y304800D03*
X254000Y304800D03*
X279400Y304800D03*
X63500Y149600D03*
X63500Y124200D03*
X63500Y98800D03*
X63500Y200400D03*
X63500Y225800D03*
X63500Y251200D03*
D15*
X21500Y275000D03*
X21500Y75000D03*
D16*
X165100Y190500D03*
X114300Y190500D03*
X254000Y152400D03*
X203200Y152400D03*
M02*
