M48
;GenerationSoftware,Autodesk,EAGLE,9.5.2*%
;CreationDate,2020-07-16T20:54:58Z*%
FMAT,2
ICI,OFF
METRIC,TZ,000.000
T5C0.800
T4C0.813
T3C1.000
T2C1.016
T1C3.400
%
G90
M71
T1
X2500Y32500
X42500Y32500
X42500Y2500
X2500Y2500
T2
X30400Y20940
X30400Y18400
X30400Y15860
X30400Y13320
T3
X2150Y7500
X2150Y27500
T4
X11430Y11430
X21590Y19050
X24130Y19050
X8890Y30480
X8890Y33020
X11430Y13970
X24130Y10160
X16510Y10160
X16510Y19050
X11430Y19050
X25400Y15240
X20320Y15240
T5
X20320Y30480
X20320Y22860
X17780Y30480
X25400Y22860
X27940Y22860
X22860Y30480
X25400Y30480
X27940Y30480
X6350Y14960
X12700Y30480
X6350Y9880
X6350Y20040
X6350Y22580
X6350Y25120
X12700Y22860
X15240Y30480
X15240Y22860
X17780Y22860
X22860Y22860
X6350Y12420
M30