G04 EAGLE Gerber RS-274X export*
G75*
%MOMM*%
%FSLAX34Y34*%
%LPD*%
%IN*%
%IPPOS*%
%AMOC8*
5,1,8,0,0,1.08239X$1,22.5*%
G01*
%ADD10C,0.254000*%


D10*
X0Y0D02*
X450000Y0D01*
X450000Y350000D01*
X0Y350000D01*
X0Y0D01*
X42000Y324443D02*
X41927Y323333D01*
X41782Y322229D01*
X41565Y321138D01*
X41277Y320063D01*
X40919Y319009D01*
X40493Y317980D01*
X40001Y316982D01*
X39444Y316018D01*
X38826Y315093D01*
X38148Y314210D01*
X37414Y313373D01*
X36627Y312586D01*
X35790Y311852D01*
X34907Y311174D01*
X33982Y310556D01*
X33018Y309999D01*
X32020Y309507D01*
X30991Y309081D01*
X29937Y308723D01*
X28862Y308435D01*
X27771Y308218D01*
X26667Y308073D01*
X25557Y308000D01*
X24443Y308000D01*
X23333Y308073D01*
X22229Y308218D01*
X21138Y308435D01*
X20063Y308723D01*
X19009Y309081D01*
X17980Y309507D01*
X16982Y309999D01*
X16018Y310556D01*
X15093Y311174D01*
X14210Y311852D01*
X13373Y312586D01*
X12586Y313373D01*
X11852Y314210D01*
X11174Y315093D01*
X10556Y316018D01*
X9999Y316982D01*
X9507Y317980D01*
X9081Y319009D01*
X8723Y320063D01*
X8435Y321138D01*
X8218Y322229D01*
X8073Y323333D01*
X8000Y324443D01*
X8000Y325557D01*
X8073Y326667D01*
X8218Y327771D01*
X8435Y328862D01*
X8723Y329937D01*
X9081Y330991D01*
X9507Y332020D01*
X9999Y333018D01*
X10556Y333982D01*
X11174Y334907D01*
X11852Y335790D01*
X12586Y336627D01*
X13373Y337414D01*
X14210Y338148D01*
X15093Y338826D01*
X16018Y339444D01*
X16982Y340001D01*
X17980Y340493D01*
X19009Y340919D01*
X20063Y341277D01*
X21138Y341565D01*
X22229Y341782D01*
X23333Y341927D01*
X24443Y342000D01*
X25557Y342000D01*
X26667Y341927D01*
X27771Y341782D01*
X28862Y341565D01*
X29937Y341277D01*
X30991Y340919D01*
X32020Y340493D01*
X33018Y340001D01*
X33982Y339444D01*
X34907Y338826D01*
X35790Y338148D01*
X36627Y337414D01*
X37414Y336627D01*
X38148Y335790D01*
X38826Y334907D01*
X39444Y333982D01*
X40001Y333018D01*
X40493Y332020D01*
X40919Y330991D01*
X41277Y329937D01*
X41565Y328862D01*
X41782Y327771D01*
X41927Y326667D01*
X42000Y325557D01*
X42000Y324443D01*
X442000Y324443D02*
X441927Y323333D01*
X441782Y322229D01*
X441565Y321138D01*
X441277Y320063D01*
X440919Y319009D01*
X440493Y317980D01*
X440001Y316982D01*
X439444Y316018D01*
X438826Y315093D01*
X438148Y314210D01*
X437414Y313373D01*
X436627Y312586D01*
X435790Y311852D01*
X434907Y311174D01*
X433982Y310556D01*
X433018Y309999D01*
X432020Y309507D01*
X430991Y309081D01*
X429937Y308723D01*
X428862Y308435D01*
X427771Y308218D01*
X426667Y308073D01*
X425557Y308000D01*
X424443Y308000D01*
X423333Y308073D01*
X422229Y308218D01*
X421138Y308435D01*
X420063Y308723D01*
X419009Y309081D01*
X417980Y309507D01*
X416982Y309999D01*
X416018Y310556D01*
X415093Y311174D01*
X414210Y311852D01*
X413373Y312586D01*
X412586Y313373D01*
X411852Y314210D01*
X411174Y315093D01*
X410556Y316018D01*
X409999Y316982D01*
X409507Y317980D01*
X409081Y319009D01*
X408723Y320063D01*
X408435Y321138D01*
X408218Y322229D01*
X408073Y323333D01*
X408000Y324443D01*
X408000Y325557D01*
X408073Y326667D01*
X408218Y327771D01*
X408435Y328862D01*
X408723Y329937D01*
X409081Y330991D01*
X409507Y332020D01*
X409999Y333018D01*
X410556Y333982D01*
X411174Y334907D01*
X411852Y335790D01*
X412586Y336627D01*
X413373Y337414D01*
X414210Y338148D01*
X415093Y338826D01*
X416018Y339444D01*
X416982Y340001D01*
X417980Y340493D01*
X419009Y340919D01*
X420063Y341277D01*
X421138Y341565D01*
X422229Y341782D01*
X423333Y341927D01*
X424443Y342000D01*
X425557Y342000D01*
X426667Y341927D01*
X427771Y341782D01*
X428862Y341565D01*
X429937Y341277D01*
X430991Y340919D01*
X432020Y340493D01*
X433018Y340001D01*
X433982Y339444D01*
X434907Y338826D01*
X435790Y338148D01*
X436627Y337414D01*
X437414Y336627D01*
X438148Y335790D01*
X438826Y334907D01*
X439444Y333982D01*
X440001Y333018D01*
X440493Y332020D01*
X440919Y330991D01*
X441277Y329937D01*
X441565Y328862D01*
X441782Y327771D01*
X441927Y326667D01*
X442000Y325557D01*
X442000Y324443D01*
X442000Y24443D02*
X441927Y23333D01*
X441782Y22229D01*
X441565Y21138D01*
X441277Y20063D01*
X440919Y19009D01*
X440493Y17980D01*
X440001Y16982D01*
X439444Y16018D01*
X438826Y15093D01*
X438148Y14210D01*
X437414Y13373D01*
X436627Y12586D01*
X435790Y11852D01*
X434907Y11174D01*
X433982Y10556D01*
X433018Y9999D01*
X432020Y9507D01*
X430991Y9081D01*
X429937Y8723D01*
X428862Y8435D01*
X427771Y8218D01*
X426667Y8073D01*
X425557Y8000D01*
X424443Y8000D01*
X423333Y8073D01*
X422229Y8218D01*
X421138Y8435D01*
X420063Y8723D01*
X419009Y9081D01*
X417980Y9507D01*
X416982Y9999D01*
X416018Y10556D01*
X415093Y11174D01*
X414210Y11852D01*
X413373Y12586D01*
X412586Y13373D01*
X411852Y14210D01*
X411174Y15093D01*
X410556Y16018D01*
X409999Y16982D01*
X409507Y17980D01*
X409081Y19009D01*
X408723Y20063D01*
X408435Y21138D01*
X408218Y22229D01*
X408073Y23333D01*
X408000Y24443D01*
X408000Y25557D01*
X408073Y26667D01*
X408218Y27771D01*
X408435Y28862D01*
X408723Y29937D01*
X409081Y30991D01*
X409507Y32020D01*
X409999Y33018D01*
X410556Y33982D01*
X411174Y34907D01*
X411852Y35790D01*
X412586Y36627D01*
X413373Y37414D01*
X414210Y38148D01*
X415093Y38826D01*
X416018Y39444D01*
X416982Y40001D01*
X417980Y40493D01*
X419009Y40919D01*
X420063Y41277D01*
X421138Y41565D01*
X422229Y41782D01*
X423333Y41927D01*
X424443Y42000D01*
X425557Y42000D01*
X426667Y41927D01*
X427771Y41782D01*
X428862Y41565D01*
X429937Y41277D01*
X430991Y40919D01*
X432020Y40493D01*
X433018Y40001D01*
X433982Y39444D01*
X434907Y38826D01*
X435790Y38148D01*
X436627Y37414D01*
X437414Y36627D01*
X438148Y35790D01*
X438826Y34907D01*
X439444Y33982D01*
X440001Y33018D01*
X440493Y32020D01*
X440919Y30991D01*
X441277Y29937D01*
X441565Y28862D01*
X441782Y27771D01*
X441927Y26667D01*
X442000Y25557D01*
X442000Y24443D01*
X42000Y24443D02*
X41927Y23333D01*
X41782Y22229D01*
X41565Y21138D01*
X41277Y20063D01*
X40919Y19009D01*
X40493Y17980D01*
X40001Y16982D01*
X39444Y16018D01*
X38826Y15093D01*
X38148Y14210D01*
X37414Y13373D01*
X36627Y12586D01*
X35790Y11852D01*
X34907Y11174D01*
X33982Y10556D01*
X33018Y9999D01*
X32020Y9507D01*
X30991Y9081D01*
X29937Y8723D01*
X28862Y8435D01*
X27771Y8218D01*
X26667Y8073D01*
X25557Y8000D01*
X24443Y8000D01*
X23333Y8073D01*
X22229Y8218D01*
X21138Y8435D01*
X20063Y8723D01*
X19009Y9081D01*
X17980Y9507D01*
X16982Y9999D01*
X16018Y10556D01*
X15093Y11174D01*
X14210Y11852D01*
X13373Y12586D01*
X12586Y13373D01*
X11852Y14210D01*
X11174Y15093D01*
X10556Y16018D01*
X9999Y16982D01*
X9507Y17980D01*
X9081Y19009D01*
X8723Y20063D01*
X8435Y21138D01*
X8218Y22229D01*
X8073Y23333D01*
X8000Y24443D01*
X8000Y25557D01*
X8073Y26667D01*
X8218Y27771D01*
X8435Y28862D01*
X8723Y29937D01*
X9081Y30991D01*
X9507Y32020D01*
X9999Y33018D01*
X10556Y33982D01*
X11174Y34907D01*
X11852Y35790D01*
X12586Y36627D01*
X13373Y37414D01*
X14210Y38148D01*
X15093Y38826D01*
X16018Y39444D01*
X16982Y40001D01*
X17980Y40493D01*
X19009Y40919D01*
X20063Y41277D01*
X21138Y41565D01*
X22229Y41782D01*
X23333Y41927D01*
X24443Y42000D01*
X25557Y42000D01*
X26667Y41927D01*
X27771Y41782D01*
X28862Y41565D01*
X29937Y41277D01*
X30991Y40919D01*
X32020Y40493D01*
X33018Y40001D01*
X33982Y39444D01*
X34907Y38826D01*
X35790Y38148D01*
X36627Y37414D01*
X37414Y36627D01*
X38148Y35790D01*
X38826Y34907D01*
X39444Y33982D01*
X40001Y33018D01*
X40493Y32020D01*
X40919Y30991D01*
X41277Y29937D01*
X41565Y28862D01*
X41782Y27771D01*
X41927Y26667D01*
X42000Y25557D01*
X42000Y24443D01*
M02*
