G04 EAGLE Gerber RS-274X export*
G75*
%MOMM*%
%FSLAX34Y34*%
%LPD*%
%INSilkscreen Top*%
%IPPOS*%
%AMOC8*
5,1,8,0,0,1.08239X$1,22.5*%
G01*
%ADD10C,0.152400*%
%ADD11C,0.076200*%
%ADD12C,0.254000*%
%ADD13C,0.203200*%
%ADD14C,0.050800*%
%ADD15R,1.143000X0.508000*%
%ADD16C,0.101600*%
%ADD17C,0.127000*%
%ADD18C,0.015238*%


D10*
X330962Y127762D02*
X335478Y127762D01*
X335611Y127764D01*
X335743Y127770D01*
X335875Y127780D01*
X336007Y127793D01*
X336139Y127811D01*
X336269Y127832D01*
X336400Y127857D01*
X336529Y127886D01*
X336657Y127919D01*
X336785Y127955D01*
X336911Y127995D01*
X337036Y128039D01*
X337160Y128087D01*
X337282Y128138D01*
X337403Y128193D01*
X337522Y128251D01*
X337640Y128313D01*
X337755Y128378D01*
X337869Y128447D01*
X337980Y128518D01*
X338089Y128594D01*
X338196Y128672D01*
X338301Y128753D01*
X338403Y128838D01*
X338503Y128925D01*
X338600Y129015D01*
X338695Y129108D01*
X338786Y129204D01*
X338875Y129302D01*
X338961Y129403D01*
X339044Y129507D01*
X339124Y129613D01*
X339200Y129721D01*
X339274Y129831D01*
X339344Y129944D01*
X339411Y130058D01*
X339474Y130175D01*
X339534Y130293D01*
X339591Y130413D01*
X339644Y130535D01*
X339693Y130658D01*
X339739Y130782D01*
X339781Y130908D01*
X339819Y131035D01*
X339854Y131163D01*
X339885Y131292D01*
X339912Y131421D01*
X339935Y131552D01*
X339955Y131683D01*
X339970Y131815D01*
X339982Y131947D01*
X339990Y132079D01*
X339994Y132212D01*
X339994Y132344D01*
X339990Y132477D01*
X339982Y132609D01*
X339970Y132741D01*
X339955Y132873D01*
X339935Y133004D01*
X339912Y133135D01*
X339885Y133264D01*
X339854Y133393D01*
X339819Y133521D01*
X339781Y133648D01*
X339739Y133774D01*
X339693Y133898D01*
X339644Y134021D01*
X339591Y134143D01*
X339534Y134263D01*
X339474Y134381D01*
X339411Y134498D01*
X339344Y134612D01*
X339274Y134725D01*
X339200Y134835D01*
X339124Y134943D01*
X339044Y135049D01*
X338961Y135153D01*
X338875Y135254D01*
X338786Y135352D01*
X338695Y135448D01*
X338600Y135541D01*
X338503Y135631D01*
X338403Y135718D01*
X338301Y135803D01*
X338196Y135884D01*
X338089Y135962D01*
X337980Y136038D01*
X337869Y136109D01*
X337755Y136178D01*
X337640Y136243D01*
X337522Y136305D01*
X337403Y136363D01*
X337282Y136418D01*
X337160Y136469D01*
X337036Y136517D01*
X336911Y136561D01*
X336785Y136601D01*
X336657Y136637D01*
X336529Y136670D01*
X336400Y136699D01*
X336269Y136724D01*
X336139Y136745D01*
X336007Y136763D01*
X335875Y136776D01*
X335743Y136786D01*
X335611Y136792D01*
X335478Y136794D01*
X336381Y144018D02*
X330962Y144018D01*
X336381Y144018D02*
X336500Y144016D01*
X336620Y144010D01*
X336739Y144000D01*
X336857Y143986D01*
X336976Y143969D01*
X337093Y143947D01*
X337210Y143922D01*
X337325Y143892D01*
X337440Y143859D01*
X337554Y143822D01*
X337666Y143782D01*
X337777Y143737D01*
X337886Y143689D01*
X337994Y143638D01*
X338100Y143583D01*
X338204Y143524D01*
X338306Y143462D01*
X338406Y143397D01*
X338504Y143328D01*
X338600Y143256D01*
X338693Y143181D01*
X338783Y143104D01*
X338871Y143023D01*
X338956Y142939D01*
X339038Y142852D01*
X339118Y142763D01*
X339194Y142671D01*
X339268Y142577D01*
X339338Y142480D01*
X339405Y142382D01*
X339469Y142281D01*
X339529Y142177D01*
X339586Y142072D01*
X339639Y141965D01*
X339689Y141857D01*
X339735Y141747D01*
X339777Y141635D01*
X339816Y141522D01*
X339851Y141408D01*
X339882Y141293D01*
X339910Y141176D01*
X339933Y141059D01*
X339953Y140942D01*
X339969Y140823D01*
X339981Y140704D01*
X339989Y140585D01*
X339993Y140466D01*
X339993Y140346D01*
X339989Y140227D01*
X339981Y140108D01*
X339969Y139989D01*
X339953Y139870D01*
X339933Y139753D01*
X339910Y139636D01*
X339882Y139519D01*
X339851Y139404D01*
X339816Y139290D01*
X339777Y139177D01*
X339735Y139065D01*
X339689Y138955D01*
X339639Y138847D01*
X339586Y138740D01*
X339529Y138635D01*
X339469Y138531D01*
X339405Y138430D01*
X339338Y138332D01*
X339268Y138235D01*
X339194Y138141D01*
X339118Y138049D01*
X339038Y137960D01*
X338956Y137873D01*
X338871Y137789D01*
X338783Y137708D01*
X338693Y137631D01*
X338600Y137556D01*
X338504Y137484D01*
X338406Y137415D01*
X338306Y137350D01*
X338204Y137288D01*
X338100Y137229D01*
X337994Y137174D01*
X337886Y137123D01*
X337777Y137075D01*
X337666Y137030D01*
X337554Y136990D01*
X337440Y136953D01*
X337325Y136920D01*
X337210Y136890D01*
X337093Y136865D01*
X336976Y136843D01*
X336857Y136826D01*
X336739Y136812D01*
X336620Y136802D01*
X336500Y136796D01*
X336381Y136794D01*
X336381Y136793D02*
X332768Y136793D01*
X345968Y128665D02*
X345968Y127762D01*
X345968Y128665D02*
X346871Y128665D01*
X346871Y127762D01*
X345968Y127762D01*
X352846Y127762D02*
X357361Y127762D01*
X357494Y127764D01*
X357626Y127770D01*
X357758Y127780D01*
X357890Y127793D01*
X358022Y127811D01*
X358152Y127832D01*
X358283Y127857D01*
X358412Y127886D01*
X358540Y127919D01*
X358668Y127955D01*
X358794Y127995D01*
X358919Y128039D01*
X359043Y128087D01*
X359165Y128138D01*
X359286Y128193D01*
X359405Y128251D01*
X359523Y128313D01*
X359638Y128378D01*
X359752Y128447D01*
X359863Y128518D01*
X359972Y128594D01*
X360079Y128672D01*
X360184Y128753D01*
X360286Y128838D01*
X360386Y128925D01*
X360483Y129015D01*
X360578Y129108D01*
X360669Y129204D01*
X360758Y129302D01*
X360844Y129403D01*
X360927Y129507D01*
X361007Y129613D01*
X361083Y129721D01*
X361157Y129831D01*
X361227Y129944D01*
X361294Y130058D01*
X361357Y130175D01*
X361417Y130293D01*
X361474Y130413D01*
X361527Y130535D01*
X361576Y130658D01*
X361622Y130782D01*
X361664Y130908D01*
X361702Y131035D01*
X361737Y131163D01*
X361768Y131292D01*
X361795Y131421D01*
X361818Y131552D01*
X361838Y131683D01*
X361853Y131815D01*
X361865Y131947D01*
X361873Y132079D01*
X361877Y132212D01*
X361877Y132344D01*
X361873Y132477D01*
X361865Y132609D01*
X361853Y132741D01*
X361838Y132873D01*
X361818Y133004D01*
X361795Y133135D01*
X361768Y133264D01*
X361737Y133393D01*
X361702Y133521D01*
X361664Y133648D01*
X361622Y133774D01*
X361576Y133898D01*
X361527Y134021D01*
X361474Y134143D01*
X361417Y134263D01*
X361357Y134381D01*
X361294Y134498D01*
X361227Y134612D01*
X361157Y134725D01*
X361083Y134835D01*
X361007Y134943D01*
X360927Y135049D01*
X360844Y135153D01*
X360758Y135254D01*
X360669Y135352D01*
X360578Y135448D01*
X360483Y135541D01*
X360386Y135631D01*
X360286Y135718D01*
X360184Y135803D01*
X360079Y135884D01*
X359972Y135962D01*
X359863Y136038D01*
X359752Y136109D01*
X359638Y136178D01*
X359523Y136243D01*
X359405Y136305D01*
X359286Y136363D01*
X359165Y136418D01*
X359043Y136469D01*
X358919Y136517D01*
X358794Y136561D01*
X358668Y136601D01*
X358540Y136637D01*
X358412Y136670D01*
X358283Y136699D01*
X358152Y136724D01*
X358022Y136745D01*
X357890Y136763D01*
X357758Y136776D01*
X357626Y136786D01*
X357494Y136792D01*
X357361Y136794D01*
X358264Y144018D02*
X352846Y144018D01*
X358264Y144018D02*
X358383Y144016D01*
X358503Y144010D01*
X358622Y144000D01*
X358740Y143986D01*
X358859Y143969D01*
X358976Y143947D01*
X359093Y143922D01*
X359208Y143892D01*
X359323Y143859D01*
X359437Y143822D01*
X359549Y143782D01*
X359660Y143737D01*
X359769Y143689D01*
X359877Y143638D01*
X359983Y143583D01*
X360087Y143524D01*
X360189Y143462D01*
X360289Y143397D01*
X360387Y143328D01*
X360483Y143256D01*
X360576Y143181D01*
X360666Y143104D01*
X360754Y143023D01*
X360839Y142939D01*
X360921Y142852D01*
X361001Y142763D01*
X361077Y142671D01*
X361151Y142577D01*
X361221Y142480D01*
X361288Y142382D01*
X361352Y142281D01*
X361412Y142177D01*
X361469Y142072D01*
X361522Y141965D01*
X361572Y141857D01*
X361618Y141747D01*
X361660Y141635D01*
X361699Y141522D01*
X361734Y141408D01*
X361765Y141293D01*
X361793Y141176D01*
X361816Y141059D01*
X361836Y140942D01*
X361852Y140823D01*
X361864Y140704D01*
X361872Y140585D01*
X361876Y140466D01*
X361876Y140346D01*
X361872Y140227D01*
X361864Y140108D01*
X361852Y139989D01*
X361836Y139870D01*
X361816Y139753D01*
X361793Y139636D01*
X361765Y139519D01*
X361734Y139404D01*
X361699Y139290D01*
X361660Y139177D01*
X361618Y139065D01*
X361572Y138955D01*
X361522Y138847D01*
X361469Y138740D01*
X361412Y138635D01*
X361352Y138531D01*
X361288Y138430D01*
X361221Y138332D01*
X361151Y138235D01*
X361077Y138141D01*
X361001Y138049D01*
X360921Y137960D01*
X360839Y137873D01*
X360754Y137789D01*
X360666Y137708D01*
X360576Y137631D01*
X360483Y137556D01*
X360387Y137484D01*
X360289Y137415D01*
X360189Y137350D01*
X360087Y137288D01*
X359983Y137229D01*
X359877Y137174D01*
X359769Y137123D01*
X359660Y137075D01*
X359549Y137030D01*
X359437Y136990D01*
X359323Y136953D01*
X359208Y136920D01*
X359093Y136890D01*
X358976Y136865D01*
X358859Y136843D01*
X358740Y136826D01*
X358622Y136812D01*
X358503Y136802D01*
X358383Y136796D01*
X358264Y136794D01*
X358264Y136793D02*
X354652Y136793D01*
X367574Y144018D02*
X372992Y127762D01*
X378411Y144018D01*
X339993Y162193D02*
X337284Y162193D01*
X339993Y162193D02*
X339993Y153162D01*
X334574Y153162D01*
X334456Y153164D01*
X334338Y153170D01*
X334220Y153179D01*
X334103Y153193D01*
X333986Y153210D01*
X333869Y153231D01*
X333754Y153256D01*
X333639Y153285D01*
X333525Y153318D01*
X333413Y153354D01*
X333302Y153394D01*
X333192Y153437D01*
X333083Y153484D01*
X332976Y153534D01*
X332871Y153589D01*
X332768Y153646D01*
X332667Y153707D01*
X332567Y153771D01*
X332470Y153838D01*
X332375Y153908D01*
X332283Y153982D01*
X332192Y154058D01*
X332105Y154138D01*
X332020Y154220D01*
X331938Y154305D01*
X331858Y154392D01*
X331782Y154483D01*
X331708Y154575D01*
X331638Y154670D01*
X331571Y154767D01*
X331507Y154867D01*
X331446Y154968D01*
X331389Y155071D01*
X331334Y155176D01*
X331284Y155283D01*
X331237Y155392D01*
X331194Y155502D01*
X331154Y155613D01*
X331118Y155725D01*
X331085Y155839D01*
X331056Y155954D01*
X331031Y156069D01*
X331010Y156186D01*
X330993Y156303D01*
X330979Y156420D01*
X330970Y156538D01*
X330964Y156656D01*
X330962Y156774D01*
X330962Y165806D01*
X330964Y165924D01*
X330970Y166042D01*
X330979Y166160D01*
X330993Y166277D01*
X331010Y166394D01*
X331031Y166511D01*
X331056Y166626D01*
X331085Y166741D01*
X331118Y166855D01*
X331154Y166967D01*
X331194Y167078D01*
X331237Y167188D01*
X331284Y167297D01*
X331334Y167404D01*
X331388Y167509D01*
X331446Y167612D01*
X331507Y167713D01*
X331571Y167813D01*
X331638Y167910D01*
X331708Y168005D01*
X331782Y168097D01*
X331858Y168188D01*
X331938Y168275D01*
X332020Y168360D01*
X332105Y168442D01*
X332192Y168522D01*
X332283Y168598D01*
X332375Y168672D01*
X332470Y168742D01*
X332567Y168809D01*
X332667Y168873D01*
X332768Y168934D01*
X332871Y168991D01*
X332976Y169045D01*
X333083Y169096D01*
X333192Y169143D01*
X333302Y169186D01*
X333413Y169226D01*
X333525Y169262D01*
X333639Y169295D01*
X333754Y169324D01*
X333869Y169349D01*
X333986Y169370D01*
X334103Y169387D01*
X334220Y169401D01*
X334338Y169410D01*
X334456Y169416D01*
X334574Y169418D01*
X339993Y169418D01*
X347635Y169418D02*
X347635Y153162D01*
X356666Y153162D02*
X347635Y169418D01*
X356666Y169418D02*
X356666Y153162D01*
X364309Y153162D02*
X364309Y169418D01*
X368824Y169418D01*
X368955Y169416D01*
X369087Y169410D01*
X369218Y169401D01*
X369348Y169387D01*
X369479Y169370D01*
X369608Y169349D01*
X369737Y169325D01*
X369865Y169296D01*
X369993Y169264D01*
X370119Y169228D01*
X370244Y169189D01*
X370369Y169146D01*
X370491Y169099D01*
X370613Y169049D01*
X370733Y168995D01*
X370851Y168938D01*
X370967Y168877D01*
X371082Y168813D01*
X371195Y168746D01*
X371306Y168675D01*
X371414Y168601D01*
X371521Y168524D01*
X371625Y168444D01*
X371727Y168361D01*
X371826Y168276D01*
X371923Y168187D01*
X372017Y168095D01*
X372109Y168001D01*
X372198Y167904D01*
X372283Y167805D01*
X372366Y167703D01*
X372446Y167599D01*
X372523Y167492D01*
X372597Y167384D01*
X372668Y167273D01*
X372735Y167160D01*
X372799Y167045D01*
X372860Y166929D01*
X372917Y166811D01*
X372971Y166691D01*
X373021Y166569D01*
X373068Y166447D01*
X373111Y166322D01*
X373150Y166197D01*
X373186Y166071D01*
X373218Y165943D01*
X373247Y165815D01*
X373271Y165686D01*
X373292Y165557D01*
X373309Y165426D01*
X373323Y165296D01*
X373332Y165165D01*
X373338Y165033D01*
X373340Y164902D01*
X373340Y157678D01*
X373338Y157547D01*
X373332Y157415D01*
X373323Y157284D01*
X373309Y157154D01*
X373292Y157023D01*
X373271Y156894D01*
X373247Y156765D01*
X373218Y156637D01*
X373186Y156509D01*
X373150Y156383D01*
X373111Y156258D01*
X373068Y156133D01*
X373021Y156011D01*
X372971Y155889D01*
X372917Y155769D01*
X372860Y155651D01*
X372799Y155535D01*
X372735Y155420D01*
X372668Y155307D01*
X372597Y155196D01*
X372523Y155088D01*
X372446Y154981D01*
X372366Y154877D01*
X372283Y154775D01*
X372198Y154676D01*
X372109Y154579D01*
X372017Y154485D01*
X371923Y154393D01*
X371826Y154304D01*
X371727Y154219D01*
X371625Y154136D01*
X371521Y154056D01*
X371414Y153979D01*
X371306Y153905D01*
X371195Y153834D01*
X371082Y153767D01*
X370967Y153703D01*
X370851Y153642D01*
X370733Y153585D01*
X370613Y153531D01*
X370491Y153481D01*
X370369Y153434D01*
X370244Y153391D01*
X370119Y153352D01*
X369993Y153316D01*
X369865Y153284D01*
X369737Y153255D01*
X369608Y153231D01*
X369478Y153210D01*
X369348Y153193D01*
X369218Y153179D01*
X369087Y153170D01*
X368955Y153164D01*
X368824Y153162D01*
X364309Y153162D01*
X335478Y178562D02*
X335478Y194818D01*
X339993Y194818D02*
X330962Y194818D01*
X344648Y178562D02*
X355485Y194818D01*
X344648Y194818D02*
X355485Y178562D01*
X330962Y203962D02*
X330962Y220218D01*
X335478Y220218D01*
X335611Y220216D01*
X335743Y220210D01*
X335875Y220200D01*
X336007Y220187D01*
X336139Y220169D01*
X336269Y220148D01*
X336400Y220123D01*
X336529Y220094D01*
X336657Y220061D01*
X336785Y220025D01*
X336911Y219985D01*
X337036Y219941D01*
X337160Y219893D01*
X337282Y219842D01*
X337403Y219787D01*
X337522Y219729D01*
X337640Y219667D01*
X337755Y219602D01*
X337869Y219533D01*
X337980Y219462D01*
X338089Y219386D01*
X338196Y219308D01*
X338301Y219227D01*
X338403Y219142D01*
X338503Y219055D01*
X338600Y218965D01*
X338695Y218872D01*
X338786Y218776D01*
X338875Y218678D01*
X338961Y218577D01*
X339044Y218473D01*
X339124Y218367D01*
X339200Y218259D01*
X339274Y218149D01*
X339344Y218036D01*
X339411Y217922D01*
X339474Y217805D01*
X339534Y217687D01*
X339591Y217567D01*
X339644Y217445D01*
X339693Y217322D01*
X339739Y217198D01*
X339781Y217072D01*
X339819Y216945D01*
X339854Y216817D01*
X339885Y216688D01*
X339912Y216559D01*
X339935Y216428D01*
X339955Y216297D01*
X339970Y216165D01*
X339982Y216033D01*
X339990Y215901D01*
X339994Y215768D01*
X339994Y215636D01*
X339990Y215503D01*
X339982Y215371D01*
X339970Y215239D01*
X339955Y215107D01*
X339935Y214976D01*
X339912Y214845D01*
X339885Y214716D01*
X339854Y214587D01*
X339819Y214459D01*
X339781Y214332D01*
X339739Y214206D01*
X339693Y214082D01*
X339644Y213959D01*
X339591Y213837D01*
X339534Y213717D01*
X339474Y213599D01*
X339411Y213482D01*
X339344Y213368D01*
X339274Y213255D01*
X339200Y213145D01*
X339124Y213037D01*
X339044Y212931D01*
X338961Y212827D01*
X338875Y212726D01*
X338786Y212628D01*
X338695Y212532D01*
X338600Y212439D01*
X338503Y212349D01*
X338403Y212262D01*
X338301Y212177D01*
X338196Y212096D01*
X338089Y212018D01*
X337980Y211942D01*
X337869Y211871D01*
X337755Y211802D01*
X337640Y211737D01*
X337522Y211675D01*
X337403Y211617D01*
X337282Y211562D01*
X337160Y211511D01*
X337036Y211463D01*
X336911Y211419D01*
X336785Y211379D01*
X336657Y211343D01*
X336529Y211310D01*
X336400Y211281D01*
X336269Y211256D01*
X336139Y211235D01*
X336007Y211217D01*
X335875Y211204D01*
X335743Y211194D01*
X335611Y211188D01*
X335478Y211186D01*
X335478Y211187D02*
X330962Y211187D01*
X336381Y211187D02*
X339993Y203962D01*
X345599Y203962D02*
X356436Y220218D01*
X345599Y220218D02*
X356436Y203962D01*
D11*
X28236Y254381D02*
X25781Y261747D01*
X30692Y261747D02*
X28236Y254381D01*
X35119Y254381D02*
X36756Y254381D01*
X35119Y254381D02*
X35041Y254383D01*
X34963Y254388D01*
X34886Y254398D01*
X34809Y254411D01*
X34733Y254427D01*
X34658Y254447D01*
X34584Y254471D01*
X34511Y254498D01*
X34439Y254529D01*
X34369Y254563D01*
X34301Y254600D01*
X34234Y254641D01*
X34169Y254685D01*
X34107Y254731D01*
X34047Y254781D01*
X33989Y254833D01*
X33934Y254888D01*
X33882Y254946D01*
X33832Y255006D01*
X33786Y255068D01*
X33742Y255133D01*
X33701Y255200D01*
X33664Y255268D01*
X33630Y255338D01*
X33599Y255410D01*
X33572Y255483D01*
X33548Y255557D01*
X33528Y255632D01*
X33512Y255708D01*
X33499Y255785D01*
X33489Y255862D01*
X33484Y255940D01*
X33482Y256018D01*
X33482Y260110D01*
X33484Y260190D01*
X33490Y260270D01*
X33500Y260350D01*
X33513Y260429D01*
X33531Y260508D01*
X33552Y260585D01*
X33578Y260661D01*
X33607Y260736D01*
X33639Y260810D01*
X33675Y260882D01*
X33715Y260952D01*
X33758Y261019D01*
X33804Y261085D01*
X33854Y261148D01*
X33906Y261209D01*
X33961Y261268D01*
X34020Y261323D01*
X34080Y261375D01*
X34144Y261425D01*
X34210Y261471D01*
X34277Y261514D01*
X34347Y261554D01*
X34419Y261590D01*
X34493Y261622D01*
X34567Y261651D01*
X34644Y261677D01*
X34721Y261698D01*
X34800Y261716D01*
X34879Y261729D01*
X34959Y261739D01*
X35039Y261745D01*
X35119Y261747D01*
X36756Y261747D01*
X41215Y254381D02*
X42852Y254381D01*
X41215Y254381D02*
X41137Y254383D01*
X41059Y254388D01*
X40982Y254398D01*
X40905Y254411D01*
X40829Y254427D01*
X40754Y254447D01*
X40680Y254471D01*
X40607Y254498D01*
X40535Y254529D01*
X40465Y254563D01*
X40397Y254600D01*
X40330Y254641D01*
X40265Y254685D01*
X40203Y254731D01*
X40143Y254781D01*
X40085Y254833D01*
X40030Y254888D01*
X39978Y254946D01*
X39928Y255006D01*
X39882Y255068D01*
X39838Y255133D01*
X39797Y255200D01*
X39760Y255268D01*
X39726Y255338D01*
X39695Y255410D01*
X39668Y255483D01*
X39644Y255557D01*
X39624Y255632D01*
X39608Y255708D01*
X39595Y255785D01*
X39585Y255862D01*
X39580Y255940D01*
X39578Y256018D01*
X39578Y260110D01*
X39580Y260190D01*
X39586Y260270D01*
X39596Y260350D01*
X39609Y260429D01*
X39627Y260508D01*
X39648Y260585D01*
X39674Y260661D01*
X39703Y260736D01*
X39735Y260810D01*
X39771Y260882D01*
X39811Y260952D01*
X39854Y261019D01*
X39900Y261085D01*
X39950Y261148D01*
X40002Y261209D01*
X40057Y261268D01*
X40116Y261323D01*
X40176Y261375D01*
X40240Y261425D01*
X40306Y261471D01*
X40373Y261514D01*
X40443Y261554D01*
X40515Y261590D01*
X40589Y261622D01*
X40663Y261651D01*
X40740Y261677D01*
X40817Y261698D01*
X40896Y261716D01*
X40975Y261729D01*
X41055Y261739D01*
X41135Y261745D01*
X41215Y261747D01*
X42852Y261747D01*
X25781Y236347D02*
X28236Y228981D01*
X30692Y236347D01*
X34088Y236347D02*
X34088Y228981D01*
X33270Y228981D02*
X34907Y228981D01*
X34907Y236347D02*
X33270Y236347D01*
X38138Y236347D02*
X38138Y228981D01*
X42231Y228981D02*
X38138Y236347D01*
X42231Y236347D02*
X42231Y228981D01*
X25781Y210947D02*
X25781Y203581D01*
X29873Y203581D02*
X25781Y210947D01*
X29873Y210947D02*
X29873Y203581D01*
X34954Y203581D02*
X36591Y203581D01*
X34954Y203581D02*
X34876Y203583D01*
X34798Y203588D01*
X34721Y203598D01*
X34644Y203611D01*
X34568Y203627D01*
X34493Y203647D01*
X34419Y203671D01*
X34346Y203698D01*
X34274Y203729D01*
X34204Y203763D01*
X34136Y203800D01*
X34069Y203841D01*
X34004Y203885D01*
X33942Y203931D01*
X33882Y203981D01*
X33824Y204033D01*
X33769Y204088D01*
X33717Y204146D01*
X33667Y204206D01*
X33621Y204268D01*
X33577Y204333D01*
X33536Y204400D01*
X33499Y204468D01*
X33465Y204538D01*
X33434Y204610D01*
X33407Y204683D01*
X33383Y204757D01*
X33363Y204832D01*
X33347Y204908D01*
X33334Y204985D01*
X33324Y205062D01*
X33319Y205140D01*
X33317Y205218D01*
X33317Y209310D01*
X33319Y209390D01*
X33325Y209470D01*
X33335Y209550D01*
X33348Y209629D01*
X33366Y209708D01*
X33387Y209785D01*
X33413Y209861D01*
X33442Y209936D01*
X33474Y210010D01*
X33510Y210082D01*
X33550Y210152D01*
X33593Y210219D01*
X33639Y210285D01*
X33689Y210348D01*
X33741Y210409D01*
X33796Y210468D01*
X33855Y210523D01*
X33915Y210575D01*
X33979Y210625D01*
X34045Y210671D01*
X34112Y210714D01*
X34182Y210754D01*
X34254Y210790D01*
X34328Y210822D01*
X34402Y210851D01*
X34479Y210877D01*
X34556Y210898D01*
X34635Y210916D01*
X34714Y210929D01*
X34794Y210939D01*
X34874Y210945D01*
X34954Y210947D01*
X36591Y210947D01*
X25781Y160147D02*
X28236Y152781D01*
X30692Y160147D01*
X35119Y152781D02*
X36756Y152781D01*
X35119Y152781D02*
X35041Y152783D01*
X34963Y152788D01*
X34886Y152798D01*
X34809Y152811D01*
X34733Y152827D01*
X34658Y152847D01*
X34584Y152871D01*
X34511Y152898D01*
X34439Y152929D01*
X34369Y152963D01*
X34301Y153000D01*
X34234Y153041D01*
X34169Y153085D01*
X34107Y153131D01*
X34047Y153181D01*
X33989Y153233D01*
X33934Y153288D01*
X33882Y153346D01*
X33832Y153406D01*
X33786Y153468D01*
X33742Y153533D01*
X33701Y153600D01*
X33664Y153668D01*
X33630Y153738D01*
X33599Y153810D01*
X33572Y153883D01*
X33548Y153957D01*
X33528Y154032D01*
X33512Y154108D01*
X33499Y154185D01*
X33489Y154262D01*
X33484Y154340D01*
X33482Y154418D01*
X33482Y158510D01*
X33484Y158590D01*
X33490Y158670D01*
X33500Y158750D01*
X33513Y158829D01*
X33531Y158908D01*
X33552Y158985D01*
X33578Y159061D01*
X33607Y159136D01*
X33639Y159210D01*
X33675Y159282D01*
X33715Y159352D01*
X33758Y159419D01*
X33804Y159485D01*
X33854Y159548D01*
X33906Y159609D01*
X33961Y159668D01*
X34020Y159723D01*
X34080Y159775D01*
X34144Y159825D01*
X34210Y159871D01*
X34277Y159914D01*
X34347Y159954D01*
X34419Y159990D01*
X34493Y160022D01*
X34567Y160051D01*
X34644Y160077D01*
X34721Y160098D01*
X34800Y160116D01*
X34879Y160129D01*
X34959Y160139D01*
X35039Y160145D01*
X35119Y160147D01*
X36756Y160147D01*
X41215Y152781D02*
X42852Y152781D01*
X41215Y152781D02*
X41137Y152783D01*
X41059Y152788D01*
X40982Y152798D01*
X40905Y152811D01*
X40829Y152827D01*
X40754Y152847D01*
X40680Y152871D01*
X40607Y152898D01*
X40535Y152929D01*
X40465Y152963D01*
X40397Y153000D01*
X40330Y153041D01*
X40265Y153085D01*
X40203Y153131D01*
X40143Y153181D01*
X40085Y153233D01*
X40030Y153288D01*
X39978Y153346D01*
X39928Y153406D01*
X39882Y153468D01*
X39838Y153533D01*
X39797Y153600D01*
X39760Y153668D01*
X39726Y153738D01*
X39695Y153810D01*
X39668Y153883D01*
X39644Y153957D01*
X39624Y154032D01*
X39608Y154108D01*
X39595Y154185D01*
X39585Y154262D01*
X39580Y154340D01*
X39578Y154418D01*
X39578Y158510D01*
X39580Y158590D01*
X39586Y158670D01*
X39596Y158750D01*
X39609Y158829D01*
X39627Y158908D01*
X39648Y158985D01*
X39674Y159061D01*
X39703Y159136D01*
X39735Y159210D01*
X39771Y159282D01*
X39811Y159352D01*
X39854Y159419D01*
X39900Y159485D01*
X39950Y159548D01*
X40002Y159609D01*
X40057Y159668D01*
X40116Y159723D01*
X40176Y159775D01*
X40240Y159825D01*
X40306Y159871D01*
X40373Y159914D01*
X40443Y159954D01*
X40515Y159990D01*
X40589Y160022D01*
X40663Y160051D01*
X40740Y160077D01*
X40817Y160098D01*
X40896Y160116D01*
X40975Y160129D01*
X41055Y160139D01*
X41135Y160145D01*
X41215Y160147D01*
X42852Y160147D01*
X29873Y131473D02*
X28646Y131473D01*
X29873Y131473D02*
X29873Y127381D01*
X27418Y127381D01*
X27340Y127383D01*
X27262Y127388D01*
X27185Y127398D01*
X27108Y127411D01*
X27032Y127427D01*
X26957Y127447D01*
X26883Y127471D01*
X26810Y127498D01*
X26738Y127529D01*
X26668Y127563D01*
X26599Y127600D01*
X26533Y127641D01*
X26468Y127685D01*
X26406Y127731D01*
X26346Y127781D01*
X26288Y127833D01*
X26233Y127888D01*
X26181Y127946D01*
X26131Y128006D01*
X26085Y128068D01*
X26041Y128133D01*
X26000Y128200D01*
X25963Y128268D01*
X25929Y128338D01*
X25898Y128410D01*
X25871Y128483D01*
X25847Y128557D01*
X25827Y128632D01*
X25811Y128708D01*
X25798Y128785D01*
X25788Y128862D01*
X25783Y128940D01*
X25781Y129018D01*
X25781Y133110D01*
X25783Y133190D01*
X25789Y133270D01*
X25799Y133350D01*
X25812Y133429D01*
X25830Y133508D01*
X25851Y133585D01*
X25877Y133661D01*
X25906Y133736D01*
X25938Y133810D01*
X25974Y133882D01*
X26014Y133952D01*
X26057Y134019D01*
X26103Y134085D01*
X26153Y134148D01*
X26205Y134209D01*
X26260Y134268D01*
X26319Y134323D01*
X26379Y134375D01*
X26443Y134425D01*
X26509Y134471D01*
X26576Y134514D01*
X26646Y134554D01*
X26718Y134590D01*
X26792Y134622D01*
X26866Y134651D01*
X26943Y134677D01*
X27020Y134698D01*
X27099Y134716D01*
X27178Y134729D01*
X27258Y134739D01*
X27338Y134745D01*
X27418Y134747D01*
X29873Y134747D01*
X33584Y134747D02*
X33584Y127381D01*
X37676Y127381D02*
X33584Y134747D01*
X37676Y134747D02*
X37676Y127381D01*
X41387Y127381D02*
X41387Y134747D01*
X43433Y134747D01*
X43522Y134745D01*
X43611Y134739D01*
X43700Y134729D01*
X43788Y134716D01*
X43876Y134699D01*
X43963Y134677D01*
X44048Y134652D01*
X44133Y134624D01*
X44216Y134591D01*
X44298Y134555D01*
X44378Y134516D01*
X44456Y134473D01*
X44532Y134427D01*
X44607Y134377D01*
X44679Y134324D01*
X44748Y134268D01*
X44815Y134209D01*
X44880Y134148D01*
X44941Y134083D01*
X45000Y134016D01*
X45056Y133947D01*
X45109Y133875D01*
X45159Y133800D01*
X45205Y133724D01*
X45248Y133646D01*
X45287Y133566D01*
X45323Y133484D01*
X45356Y133401D01*
X45384Y133316D01*
X45409Y133231D01*
X45431Y133144D01*
X45448Y133056D01*
X45461Y132968D01*
X45471Y132879D01*
X45477Y132790D01*
X45479Y132701D01*
X45479Y129427D01*
X45477Y129338D01*
X45471Y129249D01*
X45461Y129160D01*
X45448Y129072D01*
X45431Y128984D01*
X45409Y128897D01*
X45384Y128812D01*
X45356Y128727D01*
X45323Y128644D01*
X45287Y128562D01*
X45248Y128482D01*
X45205Y128404D01*
X45159Y128328D01*
X45109Y128253D01*
X45056Y128181D01*
X45000Y128112D01*
X44941Y128045D01*
X44880Y127980D01*
X44815Y127919D01*
X44748Y127860D01*
X44679Y127804D01*
X44607Y127751D01*
X44532Y127701D01*
X44456Y127655D01*
X44378Y127612D01*
X44298Y127573D01*
X44216Y127537D01*
X44133Y127504D01*
X44048Y127476D01*
X43963Y127451D01*
X43876Y127429D01*
X43788Y127412D01*
X43700Y127399D01*
X43611Y127389D01*
X43522Y127383D01*
X43433Y127381D01*
X41387Y127381D01*
X25781Y109347D02*
X28236Y101981D01*
X30692Y109347D01*
X33505Y107301D02*
X33505Y104027D01*
X33506Y107301D02*
X33508Y107390D01*
X33514Y107479D01*
X33524Y107568D01*
X33537Y107656D01*
X33554Y107744D01*
X33576Y107831D01*
X33601Y107916D01*
X33629Y108001D01*
X33662Y108084D01*
X33698Y108166D01*
X33737Y108246D01*
X33780Y108324D01*
X33826Y108400D01*
X33876Y108475D01*
X33929Y108547D01*
X33985Y108616D01*
X34044Y108683D01*
X34105Y108748D01*
X34170Y108809D01*
X34237Y108868D01*
X34306Y108924D01*
X34378Y108977D01*
X34453Y109027D01*
X34529Y109073D01*
X34607Y109116D01*
X34687Y109155D01*
X34769Y109191D01*
X34852Y109224D01*
X34937Y109252D01*
X35022Y109277D01*
X35109Y109299D01*
X35197Y109316D01*
X35285Y109329D01*
X35374Y109339D01*
X35463Y109345D01*
X35552Y109347D01*
X35641Y109345D01*
X35730Y109339D01*
X35819Y109329D01*
X35907Y109316D01*
X35995Y109299D01*
X36082Y109277D01*
X36167Y109252D01*
X36252Y109224D01*
X36335Y109191D01*
X36417Y109155D01*
X36497Y109116D01*
X36575Y109073D01*
X36651Y109027D01*
X36726Y108977D01*
X36798Y108924D01*
X36867Y108868D01*
X36934Y108809D01*
X36999Y108748D01*
X37060Y108683D01*
X37119Y108616D01*
X37175Y108547D01*
X37228Y108475D01*
X37278Y108400D01*
X37324Y108324D01*
X37367Y108246D01*
X37406Y108166D01*
X37442Y108084D01*
X37475Y108001D01*
X37503Y107916D01*
X37528Y107831D01*
X37550Y107744D01*
X37567Y107656D01*
X37580Y107568D01*
X37590Y107479D01*
X37596Y107390D01*
X37598Y107301D01*
X37598Y104027D01*
X37596Y103938D01*
X37590Y103849D01*
X37580Y103760D01*
X37567Y103672D01*
X37550Y103584D01*
X37528Y103497D01*
X37503Y103412D01*
X37475Y103327D01*
X37442Y103244D01*
X37406Y103162D01*
X37367Y103082D01*
X37324Y103004D01*
X37278Y102928D01*
X37228Y102853D01*
X37175Y102781D01*
X37119Y102712D01*
X37060Y102645D01*
X36999Y102580D01*
X36934Y102519D01*
X36867Y102460D01*
X36798Y102404D01*
X36726Y102351D01*
X36651Y102301D01*
X36575Y102255D01*
X36497Y102212D01*
X36417Y102173D01*
X36335Y102137D01*
X36252Y102104D01*
X36167Y102076D01*
X36082Y102051D01*
X35995Y102029D01*
X35907Y102012D01*
X35819Y101999D01*
X35730Y101989D01*
X35641Y101983D01*
X35552Y101981D01*
X35463Y101983D01*
X35374Y101989D01*
X35285Y101999D01*
X35197Y102012D01*
X35109Y102029D01*
X35022Y102051D01*
X34937Y102076D01*
X34852Y102104D01*
X34769Y102137D01*
X34687Y102173D01*
X34607Y102212D01*
X34529Y102255D01*
X34453Y102301D01*
X34378Y102351D01*
X34306Y102404D01*
X34237Y102460D01*
X34170Y102519D01*
X34105Y102580D01*
X34044Y102645D01*
X33985Y102712D01*
X33929Y102781D01*
X33876Y102853D01*
X33826Y102928D01*
X33780Y103004D01*
X33737Y103082D01*
X33698Y103162D01*
X33662Y103244D01*
X33629Y103327D01*
X33601Y103412D01*
X33576Y103497D01*
X33554Y103584D01*
X33537Y103672D01*
X33524Y103760D01*
X33514Y103849D01*
X33508Y103938D01*
X33506Y104027D01*
X41064Y104027D02*
X41064Y109347D01*
X41065Y104027D02*
X41067Y103938D01*
X41073Y103849D01*
X41083Y103760D01*
X41096Y103672D01*
X41113Y103584D01*
X41135Y103497D01*
X41160Y103412D01*
X41188Y103327D01*
X41221Y103244D01*
X41257Y103162D01*
X41296Y103082D01*
X41339Y103004D01*
X41385Y102928D01*
X41435Y102853D01*
X41488Y102781D01*
X41544Y102712D01*
X41603Y102645D01*
X41664Y102580D01*
X41729Y102519D01*
X41796Y102460D01*
X41865Y102404D01*
X41937Y102351D01*
X42012Y102301D01*
X42088Y102255D01*
X42166Y102212D01*
X42246Y102173D01*
X42328Y102137D01*
X42411Y102104D01*
X42496Y102076D01*
X42581Y102051D01*
X42668Y102029D01*
X42756Y102012D01*
X42844Y101999D01*
X42933Y101989D01*
X43022Y101983D01*
X43111Y101981D01*
X43200Y101983D01*
X43289Y101989D01*
X43378Y101999D01*
X43466Y102012D01*
X43554Y102029D01*
X43641Y102051D01*
X43726Y102076D01*
X43811Y102104D01*
X43894Y102137D01*
X43976Y102173D01*
X44056Y102212D01*
X44134Y102255D01*
X44210Y102301D01*
X44285Y102351D01*
X44357Y102404D01*
X44426Y102460D01*
X44493Y102519D01*
X44558Y102580D01*
X44619Y102645D01*
X44678Y102712D01*
X44734Y102781D01*
X44787Y102853D01*
X44837Y102928D01*
X44883Y103004D01*
X44926Y103082D01*
X44965Y103162D01*
X45001Y103244D01*
X45034Y103327D01*
X45062Y103412D01*
X45087Y103497D01*
X45109Y103584D01*
X45126Y103672D01*
X45139Y103760D01*
X45149Y103849D01*
X45155Y103938D01*
X45157Y104027D01*
X45157Y109347D01*
X50182Y109347D02*
X50182Y101981D01*
X48136Y109347D02*
X52228Y109347D01*
D10*
X101600Y105410D02*
X101600Y148590D01*
X127000Y148590D02*
X127000Y105410D01*
X124460Y151130D02*
X104140Y151130D01*
X104140Y102870D02*
X124460Y102870D01*
X101600Y148590D02*
X101602Y148690D01*
X101608Y148789D01*
X101618Y148889D01*
X101631Y148987D01*
X101649Y149086D01*
X101670Y149183D01*
X101695Y149279D01*
X101724Y149375D01*
X101757Y149469D01*
X101793Y149562D01*
X101833Y149653D01*
X101877Y149743D01*
X101924Y149831D01*
X101974Y149917D01*
X102028Y150001D01*
X102085Y150083D01*
X102145Y150162D01*
X102209Y150240D01*
X102275Y150314D01*
X102344Y150386D01*
X102416Y150455D01*
X102490Y150521D01*
X102568Y150585D01*
X102647Y150645D01*
X102729Y150702D01*
X102813Y150756D01*
X102899Y150806D01*
X102987Y150853D01*
X103077Y150897D01*
X103168Y150937D01*
X103261Y150973D01*
X103355Y151006D01*
X103451Y151035D01*
X103547Y151060D01*
X103644Y151081D01*
X103743Y151099D01*
X103841Y151112D01*
X103941Y151122D01*
X104040Y151128D01*
X104140Y151130D01*
X101600Y105410D02*
X101602Y105310D01*
X101608Y105211D01*
X101618Y105111D01*
X101631Y105013D01*
X101649Y104914D01*
X101670Y104817D01*
X101695Y104721D01*
X101724Y104625D01*
X101757Y104531D01*
X101793Y104438D01*
X101833Y104347D01*
X101877Y104257D01*
X101924Y104169D01*
X101974Y104083D01*
X102028Y103999D01*
X102085Y103917D01*
X102145Y103838D01*
X102209Y103760D01*
X102275Y103686D01*
X102344Y103614D01*
X102416Y103545D01*
X102490Y103479D01*
X102568Y103415D01*
X102647Y103355D01*
X102729Y103298D01*
X102813Y103244D01*
X102899Y103194D01*
X102987Y103147D01*
X103077Y103103D01*
X103168Y103063D01*
X103261Y103027D01*
X103355Y102994D01*
X103451Y102965D01*
X103547Y102940D01*
X103644Y102919D01*
X103743Y102901D01*
X103841Y102888D01*
X103941Y102878D01*
X104040Y102872D01*
X104140Y102870D01*
X127000Y148590D02*
X126998Y148690D01*
X126992Y148789D01*
X126982Y148889D01*
X126969Y148987D01*
X126951Y149086D01*
X126930Y149183D01*
X126905Y149279D01*
X126876Y149375D01*
X126843Y149469D01*
X126807Y149562D01*
X126767Y149653D01*
X126723Y149743D01*
X126676Y149831D01*
X126626Y149917D01*
X126572Y150001D01*
X126515Y150083D01*
X126455Y150162D01*
X126391Y150240D01*
X126325Y150314D01*
X126256Y150386D01*
X126184Y150455D01*
X126110Y150521D01*
X126032Y150585D01*
X125953Y150645D01*
X125871Y150702D01*
X125787Y150756D01*
X125701Y150806D01*
X125613Y150853D01*
X125523Y150897D01*
X125432Y150937D01*
X125339Y150973D01*
X125245Y151006D01*
X125149Y151035D01*
X125053Y151060D01*
X124956Y151081D01*
X124857Y151099D01*
X124759Y151112D01*
X124659Y151122D01*
X124560Y151128D01*
X124460Y151130D01*
X127000Y105410D02*
X126998Y105310D01*
X126992Y105211D01*
X126982Y105111D01*
X126969Y105013D01*
X126951Y104914D01*
X126930Y104817D01*
X126905Y104721D01*
X126876Y104625D01*
X126843Y104531D01*
X126807Y104438D01*
X126767Y104347D01*
X126723Y104257D01*
X126676Y104169D01*
X126626Y104083D01*
X126572Y103999D01*
X126515Y103917D01*
X126455Y103838D01*
X126391Y103760D01*
X126325Y103686D01*
X126256Y103614D01*
X126184Y103545D01*
X126110Y103479D01*
X126032Y103415D01*
X125953Y103355D01*
X125871Y103298D01*
X125787Y103244D01*
X125701Y103194D01*
X125613Y103147D01*
X125523Y103103D01*
X125432Y103063D01*
X125339Y103027D01*
X125245Y102994D01*
X125149Y102965D01*
X125053Y102940D01*
X124956Y102919D01*
X124857Y102901D01*
X124759Y102888D01*
X124659Y102878D01*
X124560Y102872D01*
X124460Y102870D01*
X114300Y129540D02*
X114300Y130810D01*
D12*
X114300Y129540D02*
X106680Y129540D01*
X114300Y129540D02*
X121920Y129540D01*
X114300Y124460D02*
X106680Y124460D01*
X114300Y124460D02*
X121920Y124460D01*
D10*
X114300Y124460D02*
X114300Y123190D01*
X207010Y203200D02*
X250190Y203200D01*
X250190Y177800D02*
X207010Y177800D01*
X252730Y180340D02*
X252730Y200660D01*
X204470Y200660D02*
X204470Y180340D01*
X250190Y203200D02*
X250290Y203198D01*
X250389Y203192D01*
X250489Y203182D01*
X250587Y203169D01*
X250686Y203151D01*
X250783Y203130D01*
X250879Y203105D01*
X250975Y203076D01*
X251069Y203043D01*
X251162Y203007D01*
X251253Y202967D01*
X251343Y202923D01*
X251431Y202876D01*
X251517Y202826D01*
X251601Y202772D01*
X251683Y202715D01*
X251762Y202655D01*
X251840Y202591D01*
X251914Y202525D01*
X251986Y202456D01*
X252055Y202384D01*
X252121Y202310D01*
X252185Y202232D01*
X252245Y202153D01*
X252302Y202071D01*
X252356Y201987D01*
X252406Y201901D01*
X252453Y201813D01*
X252497Y201723D01*
X252537Y201632D01*
X252573Y201539D01*
X252606Y201445D01*
X252635Y201349D01*
X252660Y201253D01*
X252681Y201156D01*
X252699Y201057D01*
X252712Y200959D01*
X252722Y200859D01*
X252728Y200760D01*
X252730Y200660D01*
X207010Y203200D02*
X206910Y203198D01*
X206811Y203192D01*
X206711Y203182D01*
X206613Y203169D01*
X206514Y203151D01*
X206417Y203130D01*
X206321Y203105D01*
X206225Y203076D01*
X206131Y203043D01*
X206038Y203007D01*
X205947Y202967D01*
X205857Y202923D01*
X205769Y202876D01*
X205683Y202826D01*
X205599Y202772D01*
X205517Y202715D01*
X205438Y202655D01*
X205360Y202591D01*
X205286Y202525D01*
X205214Y202456D01*
X205145Y202384D01*
X205079Y202310D01*
X205015Y202232D01*
X204955Y202153D01*
X204898Y202071D01*
X204844Y201987D01*
X204794Y201901D01*
X204747Y201813D01*
X204703Y201723D01*
X204663Y201632D01*
X204627Y201539D01*
X204594Y201445D01*
X204565Y201349D01*
X204540Y201253D01*
X204519Y201156D01*
X204501Y201057D01*
X204488Y200959D01*
X204478Y200859D01*
X204472Y200760D01*
X204470Y200660D01*
X250190Y177800D02*
X250290Y177802D01*
X250389Y177808D01*
X250489Y177818D01*
X250587Y177831D01*
X250686Y177849D01*
X250783Y177870D01*
X250879Y177895D01*
X250975Y177924D01*
X251069Y177957D01*
X251162Y177993D01*
X251253Y178033D01*
X251343Y178077D01*
X251431Y178124D01*
X251517Y178174D01*
X251601Y178228D01*
X251683Y178285D01*
X251762Y178345D01*
X251840Y178409D01*
X251914Y178475D01*
X251986Y178544D01*
X252055Y178616D01*
X252121Y178690D01*
X252185Y178768D01*
X252245Y178847D01*
X252302Y178929D01*
X252356Y179013D01*
X252406Y179099D01*
X252453Y179187D01*
X252497Y179277D01*
X252537Y179368D01*
X252573Y179461D01*
X252606Y179555D01*
X252635Y179651D01*
X252660Y179747D01*
X252681Y179844D01*
X252699Y179943D01*
X252712Y180041D01*
X252722Y180141D01*
X252728Y180240D01*
X252730Y180340D01*
X207010Y177800D02*
X206910Y177802D01*
X206811Y177808D01*
X206711Y177818D01*
X206613Y177831D01*
X206514Y177849D01*
X206417Y177870D01*
X206321Y177895D01*
X206225Y177924D01*
X206131Y177957D01*
X206038Y177993D01*
X205947Y178033D01*
X205857Y178077D01*
X205769Y178124D01*
X205683Y178174D01*
X205599Y178228D01*
X205517Y178285D01*
X205438Y178345D01*
X205360Y178409D01*
X205286Y178475D01*
X205214Y178544D01*
X205145Y178616D01*
X205079Y178690D01*
X205015Y178768D01*
X204955Y178847D01*
X204898Y178929D01*
X204844Y179013D01*
X204794Y179099D01*
X204747Y179187D01*
X204703Y179277D01*
X204663Y179368D01*
X204627Y179461D01*
X204594Y179555D01*
X204565Y179651D01*
X204540Y179747D01*
X204519Y179844D01*
X204501Y179943D01*
X204488Y180041D01*
X204478Y180141D01*
X204472Y180240D01*
X204470Y180340D01*
X231140Y190500D02*
X232410Y190500D01*
D12*
X231140Y190500D02*
X231140Y198120D01*
X231140Y190500D02*
X231140Y182880D01*
X226060Y190500D02*
X226060Y198120D01*
X226060Y190500D02*
X226060Y182880D01*
D10*
X226060Y190500D02*
X224790Y190500D01*
X76200Y295910D02*
X76200Y339090D01*
X101600Y339090D02*
X101600Y295910D01*
X99060Y341630D02*
X78740Y341630D01*
X78740Y293370D02*
X99060Y293370D01*
X76200Y339090D02*
X76202Y339190D01*
X76208Y339289D01*
X76218Y339389D01*
X76231Y339487D01*
X76249Y339586D01*
X76270Y339683D01*
X76295Y339779D01*
X76324Y339875D01*
X76357Y339969D01*
X76393Y340062D01*
X76433Y340153D01*
X76477Y340243D01*
X76524Y340331D01*
X76574Y340417D01*
X76628Y340501D01*
X76685Y340583D01*
X76745Y340662D01*
X76809Y340740D01*
X76875Y340814D01*
X76944Y340886D01*
X77016Y340955D01*
X77090Y341021D01*
X77168Y341085D01*
X77247Y341145D01*
X77329Y341202D01*
X77413Y341256D01*
X77499Y341306D01*
X77587Y341353D01*
X77677Y341397D01*
X77768Y341437D01*
X77861Y341473D01*
X77955Y341506D01*
X78051Y341535D01*
X78147Y341560D01*
X78244Y341581D01*
X78343Y341599D01*
X78441Y341612D01*
X78541Y341622D01*
X78640Y341628D01*
X78740Y341630D01*
X76200Y295910D02*
X76202Y295810D01*
X76208Y295711D01*
X76218Y295611D01*
X76231Y295513D01*
X76249Y295414D01*
X76270Y295317D01*
X76295Y295221D01*
X76324Y295125D01*
X76357Y295031D01*
X76393Y294938D01*
X76433Y294847D01*
X76477Y294757D01*
X76524Y294669D01*
X76574Y294583D01*
X76628Y294499D01*
X76685Y294417D01*
X76745Y294338D01*
X76809Y294260D01*
X76875Y294186D01*
X76944Y294114D01*
X77016Y294045D01*
X77090Y293979D01*
X77168Y293915D01*
X77247Y293855D01*
X77329Y293798D01*
X77413Y293744D01*
X77499Y293694D01*
X77587Y293647D01*
X77677Y293603D01*
X77768Y293563D01*
X77861Y293527D01*
X77955Y293494D01*
X78051Y293465D01*
X78147Y293440D01*
X78244Y293419D01*
X78343Y293401D01*
X78441Y293388D01*
X78541Y293378D01*
X78640Y293372D01*
X78740Y293370D01*
X101600Y339090D02*
X101598Y339190D01*
X101592Y339289D01*
X101582Y339389D01*
X101569Y339487D01*
X101551Y339586D01*
X101530Y339683D01*
X101505Y339779D01*
X101476Y339875D01*
X101443Y339969D01*
X101407Y340062D01*
X101367Y340153D01*
X101323Y340243D01*
X101276Y340331D01*
X101226Y340417D01*
X101172Y340501D01*
X101115Y340583D01*
X101055Y340662D01*
X100991Y340740D01*
X100925Y340814D01*
X100856Y340886D01*
X100784Y340955D01*
X100710Y341021D01*
X100632Y341085D01*
X100553Y341145D01*
X100471Y341202D01*
X100387Y341256D01*
X100301Y341306D01*
X100213Y341353D01*
X100123Y341397D01*
X100032Y341437D01*
X99939Y341473D01*
X99845Y341506D01*
X99749Y341535D01*
X99653Y341560D01*
X99556Y341581D01*
X99457Y341599D01*
X99359Y341612D01*
X99259Y341622D01*
X99160Y341628D01*
X99060Y341630D01*
X101600Y295910D02*
X101598Y295810D01*
X101592Y295711D01*
X101582Y295611D01*
X101569Y295513D01*
X101551Y295414D01*
X101530Y295317D01*
X101505Y295221D01*
X101476Y295125D01*
X101443Y295031D01*
X101407Y294938D01*
X101367Y294847D01*
X101323Y294757D01*
X101276Y294669D01*
X101226Y294583D01*
X101172Y294499D01*
X101115Y294417D01*
X101055Y294338D01*
X100991Y294260D01*
X100925Y294186D01*
X100856Y294114D01*
X100784Y294045D01*
X100710Y293979D01*
X100632Y293915D01*
X100553Y293855D01*
X100471Y293798D01*
X100387Y293744D01*
X100301Y293694D01*
X100213Y293647D01*
X100123Y293603D01*
X100032Y293563D01*
X99939Y293527D01*
X99845Y293494D01*
X99749Y293465D01*
X99653Y293440D01*
X99556Y293419D01*
X99457Y293401D01*
X99359Y293388D01*
X99259Y293378D01*
X99160Y293372D01*
X99060Y293370D01*
X88900Y320040D02*
X88900Y321310D01*
D12*
X88900Y320040D02*
X81280Y320040D01*
X88900Y320040D02*
X96520Y320040D01*
X88900Y314960D02*
X81280Y314960D01*
X88900Y314960D02*
X96520Y314960D01*
D10*
X88900Y314960D02*
X88900Y313690D01*
D13*
X316700Y139550D02*
X316700Y126850D01*
X310350Y120500D01*
X297650Y120500D02*
X291300Y126850D01*
X316700Y164950D02*
X310350Y171300D01*
X316700Y164950D02*
X316700Y152250D01*
X310350Y145900D01*
X297650Y145900D02*
X291300Y152250D01*
X291300Y164950D01*
X297650Y171300D01*
X310350Y145900D02*
X316700Y139550D01*
X297650Y145900D02*
X291300Y139550D01*
X291300Y126850D01*
X316700Y203050D02*
X316700Y215750D01*
X316700Y203050D02*
X310350Y196700D01*
X297650Y196700D02*
X291300Y203050D01*
X310350Y196700D02*
X316700Y190350D01*
X316700Y177650D01*
X310350Y171300D01*
X297650Y171300D02*
X291300Y177650D01*
X291300Y190350D01*
X297650Y196700D01*
X297650Y222100D02*
X310350Y222100D01*
X316700Y215750D01*
X297650Y222100D02*
X291300Y215750D01*
X291300Y203050D01*
X297650Y120500D02*
X310350Y120500D01*
D10*
X220980Y91440D02*
X220978Y91340D01*
X220972Y91241D01*
X220962Y91141D01*
X220949Y91043D01*
X220931Y90944D01*
X220910Y90847D01*
X220885Y90751D01*
X220856Y90655D01*
X220823Y90561D01*
X220787Y90468D01*
X220747Y90377D01*
X220703Y90287D01*
X220656Y90199D01*
X220606Y90113D01*
X220552Y90029D01*
X220495Y89947D01*
X220435Y89868D01*
X220371Y89790D01*
X220305Y89716D01*
X220236Y89644D01*
X220164Y89575D01*
X220090Y89509D01*
X220012Y89445D01*
X219933Y89385D01*
X219851Y89328D01*
X219767Y89274D01*
X219681Y89224D01*
X219593Y89177D01*
X219503Y89133D01*
X219412Y89093D01*
X219319Y89057D01*
X219225Y89024D01*
X219129Y88995D01*
X219033Y88970D01*
X218936Y88949D01*
X218837Y88931D01*
X218739Y88918D01*
X218639Y88908D01*
X218540Y88902D01*
X218440Y88900D01*
X220980Y111760D02*
X220978Y111860D01*
X220972Y111959D01*
X220962Y112059D01*
X220949Y112157D01*
X220931Y112256D01*
X220910Y112353D01*
X220885Y112449D01*
X220856Y112545D01*
X220823Y112639D01*
X220787Y112732D01*
X220747Y112823D01*
X220703Y112913D01*
X220656Y113001D01*
X220606Y113087D01*
X220552Y113171D01*
X220495Y113253D01*
X220435Y113332D01*
X220371Y113410D01*
X220305Y113484D01*
X220236Y113556D01*
X220164Y113625D01*
X220090Y113691D01*
X220012Y113755D01*
X219933Y113815D01*
X219851Y113872D01*
X219767Y113926D01*
X219681Y113976D01*
X219593Y114023D01*
X219503Y114067D01*
X219412Y114107D01*
X219319Y114143D01*
X219225Y114176D01*
X219129Y114205D01*
X219033Y114230D01*
X218936Y114251D01*
X218837Y114269D01*
X218739Y114282D01*
X218639Y114292D01*
X218540Y114298D01*
X218440Y114300D01*
X187960Y114300D02*
X187860Y114298D01*
X187761Y114292D01*
X187661Y114282D01*
X187563Y114269D01*
X187464Y114251D01*
X187367Y114230D01*
X187271Y114205D01*
X187175Y114176D01*
X187081Y114143D01*
X186988Y114107D01*
X186897Y114067D01*
X186807Y114023D01*
X186719Y113976D01*
X186633Y113926D01*
X186549Y113872D01*
X186467Y113815D01*
X186388Y113755D01*
X186310Y113691D01*
X186236Y113625D01*
X186164Y113556D01*
X186095Y113484D01*
X186029Y113410D01*
X185965Y113332D01*
X185905Y113253D01*
X185848Y113171D01*
X185794Y113087D01*
X185744Y113001D01*
X185697Y112913D01*
X185653Y112823D01*
X185613Y112732D01*
X185577Y112639D01*
X185544Y112545D01*
X185515Y112449D01*
X185490Y112353D01*
X185469Y112256D01*
X185451Y112157D01*
X185438Y112059D01*
X185428Y111959D01*
X185422Y111860D01*
X185420Y111760D01*
X185420Y91440D02*
X185422Y91340D01*
X185428Y91241D01*
X185438Y91141D01*
X185451Y91043D01*
X185469Y90944D01*
X185490Y90847D01*
X185515Y90751D01*
X185544Y90655D01*
X185577Y90561D01*
X185613Y90468D01*
X185653Y90377D01*
X185697Y90287D01*
X185744Y90199D01*
X185794Y90113D01*
X185848Y90029D01*
X185905Y89947D01*
X185965Y89868D01*
X186029Y89790D01*
X186095Y89716D01*
X186164Y89644D01*
X186236Y89575D01*
X186310Y89509D01*
X186388Y89445D01*
X186467Y89385D01*
X186549Y89328D01*
X186633Y89274D01*
X186719Y89224D01*
X186807Y89177D01*
X186897Y89133D01*
X186988Y89093D01*
X187081Y89057D01*
X187175Y89024D01*
X187271Y88995D01*
X187367Y88970D01*
X187464Y88949D01*
X187563Y88931D01*
X187661Y88918D01*
X187761Y88908D01*
X187860Y88902D01*
X187960Y88900D01*
X220980Y91440D02*
X220980Y111760D01*
X218440Y88900D02*
X208280Y88900D01*
X207010Y90170D01*
X208280Y114300D02*
X218440Y114300D01*
X208280Y114300D02*
X207010Y113030D01*
X199390Y90170D02*
X198120Y88900D01*
X199390Y90170D02*
X207010Y90170D01*
X199390Y113030D02*
X198120Y114300D01*
X199390Y113030D02*
X207010Y113030D01*
X198120Y88900D02*
X187960Y88900D01*
X187960Y114300D02*
X198120Y114300D01*
X185420Y111760D02*
X185420Y91440D01*
D14*
X208280Y91440D02*
X208280Y111760D01*
X218440Y111760D02*
X218440Y91440D01*
X187960Y91440D02*
X187960Y111760D01*
X198120Y111760D02*
X198120Y91440D01*
D15*
X179705Y101600D03*
X226695Y101600D03*
D16*
X193900Y84328D02*
X193900Y75438D01*
X197851Y75438D01*
X201309Y82352D02*
X203779Y84328D01*
X203779Y75438D01*
X206248Y75438D02*
X201309Y75438D01*
D17*
X104450Y234700D02*
X301950Y234700D01*
X104450Y234700D02*
X104450Y298700D01*
X301950Y298700D01*
X301950Y234700D01*
X91700Y65000D02*
X-43300Y65000D01*
X-43300Y285000D01*
X91700Y285000D01*
X91700Y65000D01*
D18*
X155015Y180925D02*
X155015Y182298D01*
X155016Y182298D02*
X155099Y182303D01*
X155183Y182312D01*
X155265Y182325D01*
X155347Y182341D01*
X155428Y182361D01*
X155509Y182385D01*
X155588Y182413D01*
X155665Y182444D01*
X155741Y182478D01*
X155816Y182516D01*
X155889Y182557D01*
X155960Y182602D01*
X156029Y182649D01*
X156095Y182700D01*
X156159Y182753D01*
X156221Y182810D01*
X156280Y182869D01*
X156337Y182931D01*
X156390Y182995D01*
X156441Y183061D01*
X156488Y183130D01*
X156533Y183201D01*
X156574Y183274D01*
X156612Y183349D01*
X156646Y183425D01*
X156677Y183502D01*
X156705Y183581D01*
X156729Y183662D01*
X156749Y183743D01*
X156765Y183825D01*
X156778Y183907D01*
X156787Y183991D01*
X156792Y184074D01*
X158165Y184075D01*
X158165Y184074D01*
X158161Y183962D01*
X158152Y183851D01*
X158140Y183740D01*
X158124Y183629D01*
X158104Y183520D01*
X158080Y183410D01*
X158053Y183302D01*
X158021Y183195D01*
X157986Y183089D01*
X157948Y182984D01*
X157906Y182880D01*
X157860Y182779D01*
X157811Y182678D01*
X157758Y182580D01*
X157702Y182483D01*
X157643Y182388D01*
X157580Y182296D01*
X157514Y182206D01*
X157445Y182118D01*
X157374Y182032D01*
X157299Y181949D01*
X157221Y181869D01*
X157141Y181791D01*
X157058Y181716D01*
X156972Y181645D01*
X156884Y181576D01*
X156794Y181510D01*
X156702Y181447D01*
X156607Y181388D01*
X156510Y181332D01*
X156412Y181279D01*
X156311Y181230D01*
X156210Y181184D01*
X156106Y181142D01*
X156001Y181104D01*
X155895Y181069D01*
X155788Y181037D01*
X155680Y181010D01*
X155570Y180986D01*
X155461Y180966D01*
X155350Y180950D01*
X155239Y180938D01*
X155128Y180929D01*
X155016Y180925D01*
X155016Y181068D01*
X155125Y181073D01*
X155234Y181081D01*
X155342Y181093D01*
X155450Y181109D01*
X155557Y181129D01*
X155664Y181153D01*
X155769Y181181D01*
X155874Y181212D01*
X155977Y181247D01*
X156079Y181285D01*
X156180Y181327D01*
X156279Y181373D01*
X156376Y181422D01*
X156472Y181475D01*
X156566Y181530D01*
X156657Y181590D01*
X156747Y181652D01*
X156834Y181717D01*
X156919Y181786D01*
X157001Y181857D01*
X157081Y181932D01*
X157158Y182009D01*
X157233Y182089D01*
X157304Y182171D01*
X157373Y182256D01*
X157438Y182343D01*
X157500Y182433D01*
X157560Y182524D01*
X157615Y182618D01*
X157668Y182714D01*
X157717Y182811D01*
X157763Y182910D01*
X157805Y183011D01*
X157843Y183113D01*
X157878Y183216D01*
X157909Y183321D01*
X157937Y183426D01*
X157961Y183533D01*
X157981Y183640D01*
X157997Y183748D01*
X158009Y183856D01*
X158017Y183965D01*
X158022Y184074D01*
X157879Y184074D01*
X157874Y183968D01*
X157866Y183862D01*
X157854Y183756D01*
X157837Y183651D01*
X157817Y183547D01*
X157794Y183443D01*
X157766Y183340D01*
X157735Y183239D01*
X157700Y183138D01*
X157662Y183039D01*
X157620Y182941D01*
X157575Y182845D01*
X157526Y182751D01*
X157473Y182658D01*
X157418Y182567D01*
X157359Y182479D01*
X157297Y182393D01*
X157232Y182308D01*
X157164Y182227D01*
X157093Y182148D01*
X157019Y182071D01*
X156942Y181997D01*
X156863Y181926D01*
X156782Y181858D01*
X156697Y181793D01*
X156611Y181731D01*
X156523Y181672D01*
X156432Y181617D01*
X156339Y181564D01*
X156245Y181515D01*
X156149Y181470D01*
X156051Y181428D01*
X155952Y181390D01*
X155851Y181355D01*
X155750Y181324D01*
X155647Y181296D01*
X155543Y181273D01*
X155439Y181253D01*
X155334Y181236D01*
X155228Y181224D01*
X155122Y181216D01*
X155016Y181211D01*
X155016Y181354D01*
X155119Y181359D01*
X155222Y181367D01*
X155325Y181380D01*
X155427Y181396D01*
X155529Y181416D01*
X155630Y181439D01*
X155729Y181467D01*
X155828Y181498D01*
X155925Y181532D01*
X156022Y181571D01*
X156116Y181612D01*
X156209Y181658D01*
X156301Y181706D01*
X156390Y181758D01*
X156477Y181813D01*
X156563Y181872D01*
X156646Y181933D01*
X156727Y181998D01*
X156805Y182066D01*
X156881Y182136D01*
X156954Y182209D01*
X157024Y182285D01*
X157092Y182363D01*
X157157Y182444D01*
X157218Y182527D01*
X157277Y182613D01*
X157332Y182700D01*
X157384Y182789D01*
X157432Y182881D01*
X157478Y182974D01*
X157519Y183068D01*
X157558Y183165D01*
X157592Y183262D01*
X157623Y183361D01*
X157651Y183460D01*
X157674Y183561D01*
X157694Y183663D01*
X157710Y183765D01*
X157723Y183868D01*
X157731Y183971D01*
X157736Y184074D01*
X157593Y184074D01*
X157588Y183974D01*
X157580Y183874D01*
X157567Y183774D01*
X157551Y183675D01*
X157531Y183576D01*
X157508Y183479D01*
X157481Y183382D01*
X157450Y183287D01*
X157415Y183192D01*
X157377Y183099D01*
X157336Y183008D01*
X157291Y182918D01*
X157242Y182830D01*
X157191Y182744D01*
X157136Y182660D01*
X157078Y182578D01*
X157017Y182498D01*
X156953Y182421D01*
X156886Y182346D01*
X156817Y182273D01*
X156744Y182204D01*
X156669Y182137D01*
X156592Y182073D01*
X156512Y182012D01*
X156430Y181954D01*
X156346Y181899D01*
X156260Y181848D01*
X156172Y181799D01*
X156082Y181754D01*
X155991Y181713D01*
X155898Y181675D01*
X155803Y181640D01*
X155708Y181609D01*
X155611Y181582D01*
X155514Y181559D01*
X155415Y181539D01*
X155316Y181523D01*
X155216Y181510D01*
X155116Y181502D01*
X155016Y181497D01*
X155016Y181640D01*
X155116Y181645D01*
X155215Y181654D01*
X155314Y181667D01*
X155412Y181684D01*
X155510Y181705D01*
X155607Y181729D01*
X155702Y181758D01*
X155797Y181790D01*
X155890Y181826D01*
X155982Y181865D01*
X156071Y181908D01*
X156160Y181955D01*
X156246Y182005D01*
X156330Y182059D01*
X156412Y182116D01*
X156492Y182176D01*
X156569Y182239D01*
X156644Y182305D01*
X156716Y182374D01*
X156785Y182446D01*
X156851Y182521D01*
X156914Y182598D01*
X156974Y182678D01*
X157031Y182760D01*
X157085Y182844D01*
X157135Y182930D01*
X157182Y183019D01*
X157225Y183108D01*
X157264Y183200D01*
X157300Y183293D01*
X157332Y183388D01*
X157361Y183483D01*
X157385Y183580D01*
X157406Y183678D01*
X157423Y183776D01*
X157436Y183875D01*
X157445Y183974D01*
X157450Y184074D01*
X157307Y184074D01*
X157302Y183978D01*
X157293Y183882D01*
X157280Y183786D01*
X157263Y183691D01*
X157243Y183597D01*
X157218Y183504D01*
X157190Y183412D01*
X157158Y183321D01*
X157122Y183231D01*
X157083Y183143D01*
X157040Y183056D01*
X156994Y182972D01*
X156944Y182889D01*
X156891Y182809D01*
X156835Y182730D01*
X156776Y182654D01*
X156714Y182581D01*
X156648Y182510D01*
X156580Y182442D01*
X156509Y182376D01*
X156436Y182314D01*
X156360Y182255D01*
X156281Y182199D01*
X156201Y182146D01*
X156118Y182096D01*
X156034Y182050D01*
X155947Y182007D01*
X155859Y181968D01*
X155769Y181932D01*
X155678Y181900D01*
X155586Y181872D01*
X155493Y181847D01*
X155399Y181827D01*
X155304Y181810D01*
X155208Y181797D01*
X155112Y181788D01*
X155016Y181783D01*
X155016Y181926D01*
X155109Y181931D01*
X155201Y181940D01*
X155293Y181953D01*
X155384Y181970D01*
X155475Y181990D01*
X155565Y182014D01*
X155653Y182042D01*
X155741Y182074D01*
X155826Y182109D01*
X155911Y182148D01*
X155994Y182190D01*
X156074Y182236D01*
X156153Y182285D01*
X156230Y182337D01*
X156305Y182393D01*
X156377Y182451D01*
X156446Y182512D01*
X156513Y182577D01*
X156578Y182644D01*
X156639Y182713D01*
X156697Y182785D01*
X156753Y182860D01*
X156805Y182937D01*
X156854Y183016D01*
X156900Y183096D01*
X156942Y183179D01*
X156981Y183264D01*
X157016Y183349D01*
X157048Y183437D01*
X157076Y183525D01*
X157100Y183615D01*
X157120Y183706D01*
X157137Y183797D01*
X157150Y183889D01*
X157159Y183981D01*
X157164Y184074D01*
X157021Y184074D01*
X157015Y183985D01*
X157007Y183896D01*
X156994Y183808D01*
X156977Y183721D01*
X156957Y183634D01*
X156933Y183548D01*
X156906Y183463D01*
X156874Y183380D01*
X156840Y183298D01*
X156801Y183217D01*
X156760Y183139D01*
X156715Y183062D01*
X156667Y182987D01*
X156615Y182914D01*
X156561Y182843D01*
X156504Y182775D01*
X156443Y182710D01*
X156380Y182647D01*
X156315Y182586D01*
X156247Y182529D01*
X156176Y182475D01*
X156103Y182423D01*
X156028Y182375D01*
X155951Y182330D01*
X155873Y182289D01*
X155792Y182250D01*
X155710Y182216D01*
X155627Y182184D01*
X155542Y182157D01*
X155456Y182133D01*
X155369Y182113D01*
X155282Y182096D01*
X155194Y182083D01*
X155105Y182075D01*
X155016Y182069D01*
X155016Y182212D01*
X155101Y182218D01*
X155186Y182227D01*
X155270Y182239D01*
X155353Y182256D01*
X155436Y182276D01*
X155518Y182299D01*
X155598Y182326D01*
X155678Y182357D01*
X155756Y182391D01*
X155832Y182428D01*
X155907Y182469D01*
X155980Y182513D01*
X156051Y182561D01*
X156119Y182611D01*
X156186Y182664D01*
X156250Y182720D01*
X156311Y182779D01*
X156370Y182840D01*
X156426Y182904D01*
X156479Y182971D01*
X156529Y183039D01*
X156577Y183110D01*
X156621Y183183D01*
X156662Y183258D01*
X156699Y183334D01*
X156733Y183412D01*
X156764Y183492D01*
X156791Y183572D01*
X156814Y183654D01*
X156834Y183737D01*
X156851Y183820D01*
X156863Y183904D01*
X156872Y183989D01*
X156878Y184074D01*
X158165Y196925D02*
X156792Y196925D01*
X156792Y196926D02*
X156787Y197009D01*
X156778Y197093D01*
X156765Y197175D01*
X156749Y197257D01*
X156729Y197338D01*
X156705Y197419D01*
X156677Y197498D01*
X156646Y197575D01*
X156612Y197651D01*
X156574Y197726D01*
X156533Y197799D01*
X156488Y197870D01*
X156441Y197939D01*
X156390Y198005D01*
X156337Y198069D01*
X156280Y198131D01*
X156221Y198190D01*
X156159Y198247D01*
X156095Y198300D01*
X156029Y198351D01*
X155960Y198398D01*
X155889Y198443D01*
X155816Y198484D01*
X155741Y198522D01*
X155665Y198556D01*
X155588Y198587D01*
X155509Y198615D01*
X155428Y198639D01*
X155347Y198659D01*
X155265Y198675D01*
X155183Y198688D01*
X155099Y198697D01*
X155016Y198702D01*
X155015Y200075D01*
X155016Y200075D01*
X155128Y200071D01*
X155239Y200062D01*
X155350Y200050D01*
X155461Y200034D01*
X155570Y200014D01*
X155680Y199990D01*
X155788Y199963D01*
X155895Y199931D01*
X156001Y199896D01*
X156106Y199858D01*
X156210Y199816D01*
X156311Y199770D01*
X156412Y199721D01*
X156510Y199668D01*
X156607Y199612D01*
X156702Y199553D01*
X156794Y199490D01*
X156884Y199424D01*
X156972Y199355D01*
X157058Y199284D01*
X157141Y199209D01*
X157221Y199131D01*
X157299Y199051D01*
X157374Y198968D01*
X157445Y198882D01*
X157514Y198794D01*
X157580Y198704D01*
X157643Y198612D01*
X157702Y198517D01*
X157758Y198420D01*
X157811Y198322D01*
X157860Y198221D01*
X157906Y198120D01*
X157948Y198016D01*
X157986Y197911D01*
X158021Y197805D01*
X158053Y197698D01*
X158080Y197590D01*
X158104Y197480D01*
X158124Y197371D01*
X158140Y197260D01*
X158152Y197149D01*
X158161Y197038D01*
X158165Y196926D01*
X158022Y196926D01*
X158017Y197035D01*
X158009Y197144D01*
X157997Y197252D01*
X157981Y197360D01*
X157961Y197467D01*
X157937Y197574D01*
X157909Y197679D01*
X157878Y197784D01*
X157843Y197887D01*
X157805Y197989D01*
X157763Y198090D01*
X157717Y198189D01*
X157668Y198286D01*
X157615Y198382D01*
X157560Y198476D01*
X157500Y198567D01*
X157438Y198657D01*
X157373Y198744D01*
X157304Y198829D01*
X157233Y198911D01*
X157158Y198991D01*
X157081Y199068D01*
X157001Y199143D01*
X156919Y199214D01*
X156834Y199283D01*
X156747Y199348D01*
X156657Y199410D01*
X156566Y199470D01*
X156472Y199525D01*
X156376Y199578D01*
X156279Y199627D01*
X156180Y199673D01*
X156079Y199715D01*
X155977Y199753D01*
X155874Y199788D01*
X155769Y199819D01*
X155664Y199847D01*
X155557Y199871D01*
X155450Y199891D01*
X155342Y199907D01*
X155234Y199919D01*
X155125Y199927D01*
X155016Y199932D01*
X155016Y199789D01*
X155122Y199784D01*
X155228Y199776D01*
X155334Y199764D01*
X155439Y199747D01*
X155543Y199727D01*
X155647Y199704D01*
X155750Y199676D01*
X155851Y199645D01*
X155952Y199610D01*
X156051Y199572D01*
X156149Y199530D01*
X156245Y199485D01*
X156339Y199436D01*
X156432Y199383D01*
X156523Y199328D01*
X156611Y199269D01*
X156697Y199207D01*
X156782Y199142D01*
X156863Y199074D01*
X156942Y199003D01*
X157019Y198929D01*
X157093Y198852D01*
X157164Y198773D01*
X157232Y198692D01*
X157297Y198607D01*
X157359Y198521D01*
X157418Y198433D01*
X157473Y198342D01*
X157526Y198249D01*
X157575Y198155D01*
X157620Y198059D01*
X157662Y197961D01*
X157700Y197862D01*
X157735Y197761D01*
X157766Y197660D01*
X157794Y197557D01*
X157817Y197453D01*
X157837Y197349D01*
X157854Y197244D01*
X157866Y197138D01*
X157874Y197032D01*
X157879Y196926D01*
X157736Y196926D01*
X157731Y197029D01*
X157723Y197132D01*
X157710Y197235D01*
X157694Y197337D01*
X157674Y197439D01*
X157651Y197540D01*
X157623Y197639D01*
X157592Y197738D01*
X157558Y197835D01*
X157519Y197932D01*
X157478Y198026D01*
X157432Y198119D01*
X157384Y198211D01*
X157332Y198300D01*
X157277Y198387D01*
X157218Y198473D01*
X157157Y198556D01*
X157092Y198637D01*
X157024Y198715D01*
X156954Y198791D01*
X156881Y198864D01*
X156805Y198934D01*
X156727Y199002D01*
X156646Y199067D01*
X156563Y199128D01*
X156477Y199187D01*
X156390Y199242D01*
X156301Y199294D01*
X156209Y199342D01*
X156116Y199388D01*
X156022Y199429D01*
X155925Y199468D01*
X155828Y199502D01*
X155729Y199533D01*
X155630Y199561D01*
X155529Y199584D01*
X155427Y199604D01*
X155325Y199620D01*
X155222Y199633D01*
X155119Y199641D01*
X155016Y199646D01*
X155016Y199503D01*
X155116Y199498D01*
X155216Y199490D01*
X155316Y199477D01*
X155415Y199461D01*
X155514Y199441D01*
X155611Y199418D01*
X155708Y199391D01*
X155803Y199360D01*
X155898Y199325D01*
X155991Y199287D01*
X156082Y199246D01*
X156172Y199201D01*
X156260Y199152D01*
X156346Y199101D01*
X156430Y199046D01*
X156512Y198988D01*
X156592Y198927D01*
X156669Y198863D01*
X156744Y198796D01*
X156817Y198727D01*
X156886Y198654D01*
X156953Y198579D01*
X157017Y198502D01*
X157078Y198422D01*
X157136Y198340D01*
X157191Y198256D01*
X157242Y198170D01*
X157291Y198082D01*
X157336Y197992D01*
X157377Y197901D01*
X157415Y197808D01*
X157450Y197713D01*
X157481Y197618D01*
X157508Y197521D01*
X157531Y197424D01*
X157551Y197325D01*
X157567Y197226D01*
X157580Y197126D01*
X157588Y197026D01*
X157593Y196926D01*
X157450Y196926D01*
X157445Y197026D01*
X157436Y197125D01*
X157423Y197224D01*
X157406Y197322D01*
X157385Y197420D01*
X157361Y197517D01*
X157332Y197612D01*
X157300Y197707D01*
X157264Y197800D01*
X157225Y197892D01*
X157182Y197981D01*
X157135Y198070D01*
X157085Y198156D01*
X157031Y198240D01*
X156974Y198322D01*
X156914Y198402D01*
X156851Y198479D01*
X156785Y198554D01*
X156716Y198626D01*
X156644Y198695D01*
X156569Y198761D01*
X156492Y198824D01*
X156412Y198884D01*
X156330Y198941D01*
X156246Y198995D01*
X156160Y199045D01*
X156071Y199092D01*
X155982Y199135D01*
X155890Y199174D01*
X155797Y199210D01*
X155702Y199242D01*
X155607Y199271D01*
X155510Y199295D01*
X155412Y199316D01*
X155314Y199333D01*
X155215Y199346D01*
X155116Y199355D01*
X155016Y199360D01*
X155016Y199217D01*
X155112Y199212D01*
X155208Y199203D01*
X155304Y199190D01*
X155399Y199173D01*
X155493Y199153D01*
X155586Y199128D01*
X155678Y199100D01*
X155769Y199068D01*
X155859Y199032D01*
X155947Y198993D01*
X156034Y198950D01*
X156118Y198904D01*
X156201Y198854D01*
X156281Y198801D01*
X156360Y198745D01*
X156436Y198686D01*
X156509Y198624D01*
X156580Y198558D01*
X156648Y198490D01*
X156714Y198419D01*
X156776Y198346D01*
X156835Y198270D01*
X156891Y198191D01*
X156944Y198111D01*
X156994Y198028D01*
X157040Y197944D01*
X157083Y197857D01*
X157122Y197769D01*
X157158Y197679D01*
X157190Y197588D01*
X157218Y197496D01*
X157243Y197403D01*
X157263Y197309D01*
X157280Y197214D01*
X157293Y197118D01*
X157302Y197022D01*
X157307Y196926D01*
X157164Y196926D01*
X157159Y197019D01*
X157150Y197111D01*
X157137Y197203D01*
X157120Y197294D01*
X157100Y197385D01*
X157076Y197475D01*
X157048Y197563D01*
X157016Y197651D01*
X156981Y197736D01*
X156942Y197821D01*
X156900Y197904D01*
X156854Y197984D01*
X156805Y198063D01*
X156753Y198140D01*
X156697Y198215D01*
X156639Y198287D01*
X156578Y198356D01*
X156513Y198423D01*
X156446Y198488D01*
X156377Y198549D01*
X156305Y198607D01*
X156230Y198663D01*
X156153Y198715D01*
X156074Y198764D01*
X155994Y198810D01*
X155911Y198852D01*
X155826Y198891D01*
X155741Y198926D01*
X155653Y198958D01*
X155565Y198986D01*
X155475Y199010D01*
X155384Y199030D01*
X155293Y199047D01*
X155201Y199060D01*
X155109Y199069D01*
X155016Y199074D01*
X155016Y198931D01*
X155105Y198925D01*
X155194Y198917D01*
X155282Y198904D01*
X155369Y198887D01*
X155456Y198867D01*
X155542Y198843D01*
X155627Y198816D01*
X155710Y198784D01*
X155792Y198750D01*
X155873Y198711D01*
X155951Y198670D01*
X156028Y198625D01*
X156103Y198577D01*
X156176Y198525D01*
X156247Y198471D01*
X156315Y198414D01*
X156380Y198353D01*
X156443Y198290D01*
X156504Y198225D01*
X156561Y198157D01*
X156615Y198086D01*
X156667Y198013D01*
X156715Y197938D01*
X156760Y197861D01*
X156801Y197783D01*
X156840Y197702D01*
X156874Y197620D01*
X156906Y197537D01*
X156933Y197452D01*
X156957Y197366D01*
X156977Y197279D01*
X156994Y197192D01*
X157007Y197104D01*
X157015Y197015D01*
X157021Y196926D01*
X156878Y196926D01*
X156872Y197011D01*
X156863Y197096D01*
X156851Y197180D01*
X156834Y197263D01*
X156814Y197346D01*
X156791Y197428D01*
X156764Y197508D01*
X156733Y197588D01*
X156699Y197666D01*
X156662Y197742D01*
X156621Y197817D01*
X156577Y197890D01*
X156529Y197961D01*
X156479Y198029D01*
X156426Y198096D01*
X156370Y198160D01*
X156311Y198221D01*
X156250Y198280D01*
X156186Y198336D01*
X156119Y198389D01*
X156051Y198439D01*
X155980Y198487D01*
X155907Y198531D01*
X155832Y198572D01*
X155756Y198609D01*
X155678Y198643D01*
X155598Y198674D01*
X155518Y198701D01*
X155436Y198724D01*
X155353Y198744D01*
X155270Y198761D01*
X155186Y198773D01*
X155101Y198782D01*
X155016Y198788D01*
X124385Y200075D02*
X124385Y198702D01*
X124384Y198702D02*
X124301Y198697D01*
X124217Y198688D01*
X124135Y198675D01*
X124053Y198659D01*
X123972Y198639D01*
X123891Y198615D01*
X123812Y198587D01*
X123735Y198556D01*
X123659Y198522D01*
X123584Y198484D01*
X123511Y198443D01*
X123440Y198398D01*
X123371Y198351D01*
X123305Y198300D01*
X123241Y198247D01*
X123179Y198190D01*
X123120Y198131D01*
X123063Y198069D01*
X123010Y198005D01*
X122959Y197939D01*
X122912Y197870D01*
X122867Y197799D01*
X122826Y197726D01*
X122788Y197651D01*
X122754Y197575D01*
X122723Y197498D01*
X122695Y197419D01*
X122671Y197338D01*
X122651Y197257D01*
X122635Y197175D01*
X122622Y197093D01*
X122613Y197009D01*
X122608Y196926D01*
X121235Y196925D01*
X121235Y196926D01*
X121239Y197038D01*
X121248Y197149D01*
X121260Y197260D01*
X121276Y197371D01*
X121296Y197480D01*
X121320Y197590D01*
X121347Y197698D01*
X121379Y197805D01*
X121414Y197911D01*
X121452Y198016D01*
X121494Y198120D01*
X121540Y198221D01*
X121589Y198322D01*
X121642Y198420D01*
X121698Y198517D01*
X121757Y198612D01*
X121820Y198704D01*
X121886Y198794D01*
X121955Y198882D01*
X122026Y198968D01*
X122101Y199051D01*
X122179Y199131D01*
X122259Y199209D01*
X122342Y199284D01*
X122428Y199355D01*
X122516Y199424D01*
X122606Y199490D01*
X122698Y199553D01*
X122793Y199612D01*
X122890Y199668D01*
X122988Y199721D01*
X123089Y199770D01*
X123190Y199816D01*
X123294Y199858D01*
X123399Y199896D01*
X123505Y199931D01*
X123612Y199963D01*
X123720Y199990D01*
X123830Y200014D01*
X123939Y200034D01*
X124050Y200050D01*
X124161Y200062D01*
X124272Y200071D01*
X124384Y200075D01*
X124384Y199932D01*
X124275Y199927D01*
X124166Y199919D01*
X124058Y199907D01*
X123950Y199891D01*
X123843Y199871D01*
X123736Y199847D01*
X123631Y199819D01*
X123526Y199788D01*
X123423Y199753D01*
X123321Y199715D01*
X123220Y199673D01*
X123121Y199627D01*
X123024Y199578D01*
X122928Y199525D01*
X122834Y199470D01*
X122743Y199410D01*
X122653Y199348D01*
X122566Y199283D01*
X122481Y199214D01*
X122399Y199143D01*
X122319Y199068D01*
X122242Y198991D01*
X122167Y198911D01*
X122096Y198829D01*
X122027Y198744D01*
X121962Y198657D01*
X121900Y198567D01*
X121840Y198476D01*
X121785Y198382D01*
X121732Y198286D01*
X121683Y198189D01*
X121637Y198090D01*
X121595Y197989D01*
X121557Y197887D01*
X121522Y197784D01*
X121491Y197679D01*
X121463Y197574D01*
X121439Y197467D01*
X121419Y197360D01*
X121403Y197252D01*
X121391Y197144D01*
X121383Y197035D01*
X121378Y196926D01*
X121521Y196926D01*
X121526Y197032D01*
X121534Y197138D01*
X121546Y197244D01*
X121563Y197349D01*
X121583Y197453D01*
X121606Y197557D01*
X121634Y197660D01*
X121665Y197761D01*
X121700Y197862D01*
X121738Y197961D01*
X121780Y198059D01*
X121825Y198155D01*
X121874Y198249D01*
X121927Y198342D01*
X121982Y198433D01*
X122041Y198521D01*
X122103Y198607D01*
X122168Y198692D01*
X122236Y198773D01*
X122307Y198852D01*
X122381Y198929D01*
X122458Y199003D01*
X122537Y199074D01*
X122618Y199142D01*
X122703Y199207D01*
X122789Y199269D01*
X122877Y199328D01*
X122968Y199383D01*
X123061Y199436D01*
X123155Y199485D01*
X123251Y199530D01*
X123349Y199572D01*
X123448Y199610D01*
X123549Y199645D01*
X123650Y199676D01*
X123753Y199704D01*
X123857Y199727D01*
X123961Y199747D01*
X124066Y199764D01*
X124172Y199776D01*
X124278Y199784D01*
X124384Y199789D01*
X124384Y199646D01*
X124281Y199641D01*
X124178Y199633D01*
X124075Y199620D01*
X123973Y199604D01*
X123871Y199584D01*
X123770Y199561D01*
X123671Y199533D01*
X123572Y199502D01*
X123475Y199468D01*
X123378Y199429D01*
X123284Y199388D01*
X123191Y199342D01*
X123099Y199294D01*
X123010Y199242D01*
X122923Y199187D01*
X122837Y199128D01*
X122754Y199067D01*
X122673Y199002D01*
X122595Y198934D01*
X122519Y198864D01*
X122446Y198791D01*
X122376Y198715D01*
X122308Y198637D01*
X122243Y198556D01*
X122182Y198473D01*
X122123Y198387D01*
X122068Y198300D01*
X122016Y198211D01*
X121968Y198119D01*
X121922Y198026D01*
X121881Y197932D01*
X121842Y197835D01*
X121808Y197738D01*
X121777Y197639D01*
X121749Y197540D01*
X121726Y197439D01*
X121706Y197337D01*
X121690Y197235D01*
X121677Y197132D01*
X121669Y197029D01*
X121664Y196926D01*
X121807Y196926D01*
X121812Y197026D01*
X121820Y197126D01*
X121833Y197226D01*
X121849Y197325D01*
X121869Y197424D01*
X121892Y197521D01*
X121919Y197618D01*
X121950Y197713D01*
X121985Y197808D01*
X122023Y197901D01*
X122064Y197992D01*
X122109Y198082D01*
X122158Y198170D01*
X122209Y198256D01*
X122264Y198340D01*
X122322Y198422D01*
X122383Y198502D01*
X122447Y198579D01*
X122514Y198654D01*
X122583Y198727D01*
X122656Y198796D01*
X122731Y198863D01*
X122808Y198927D01*
X122888Y198988D01*
X122970Y199046D01*
X123054Y199101D01*
X123140Y199152D01*
X123228Y199201D01*
X123318Y199246D01*
X123409Y199287D01*
X123502Y199325D01*
X123597Y199360D01*
X123692Y199391D01*
X123789Y199418D01*
X123886Y199441D01*
X123985Y199461D01*
X124084Y199477D01*
X124184Y199490D01*
X124284Y199498D01*
X124384Y199503D01*
X124384Y199360D01*
X124284Y199355D01*
X124185Y199346D01*
X124086Y199333D01*
X123988Y199316D01*
X123890Y199295D01*
X123793Y199271D01*
X123698Y199242D01*
X123603Y199210D01*
X123510Y199174D01*
X123418Y199135D01*
X123329Y199092D01*
X123240Y199045D01*
X123154Y198995D01*
X123070Y198941D01*
X122988Y198884D01*
X122908Y198824D01*
X122831Y198761D01*
X122756Y198695D01*
X122684Y198626D01*
X122615Y198554D01*
X122549Y198479D01*
X122486Y198402D01*
X122426Y198322D01*
X122369Y198240D01*
X122315Y198156D01*
X122265Y198070D01*
X122218Y197981D01*
X122175Y197892D01*
X122136Y197800D01*
X122100Y197707D01*
X122068Y197612D01*
X122039Y197517D01*
X122015Y197420D01*
X121994Y197322D01*
X121977Y197224D01*
X121964Y197125D01*
X121955Y197026D01*
X121950Y196926D01*
X122093Y196926D01*
X122098Y197022D01*
X122107Y197118D01*
X122120Y197214D01*
X122137Y197309D01*
X122157Y197403D01*
X122182Y197496D01*
X122210Y197588D01*
X122242Y197679D01*
X122278Y197769D01*
X122317Y197857D01*
X122360Y197944D01*
X122406Y198028D01*
X122456Y198111D01*
X122509Y198191D01*
X122565Y198270D01*
X122624Y198346D01*
X122686Y198419D01*
X122752Y198490D01*
X122820Y198558D01*
X122891Y198624D01*
X122964Y198686D01*
X123040Y198745D01*
X123119Y198801D01*
X123199Y198854D01*
X123282Y198904D01*
X123366Y198950D01*
X123453Y198993D01*
X123541Y199032D01*
X123631Y199068D01*
X123722Y199100D01*
X123814Y199128D01*
X123907Y199153D01*
X124001Y199173D01*
X124096Y199190D01*
X124192Y199203D01*
X124288Y199212D01*
X124384Y199217D01*
X124384Y199074D01*
X124291Y199069D01*
X124199Y199060D01*
X124107Y199047D01*
X124016Y199030D01*
X123925Y199010D01*
X123835Y198986D01*
X123747Y198958D01*
X123659Y198926D01*
X123574Y198891D01*
X123489Y198852D01*
X123406Y198810D01*
X123326Y198764D01*
X123247Y198715D01*
X123170Y198663D01*
X123095Y198607D01*
X123023Y198549D01*
X122954Y198488D01*
X122887Y198423D01*
X122822Y198356D01*
X122761Y198287D01*
X122703Y198215D01*
X122647Y198140D01*
X122595Y198063D01*
X122546Y197984D01*
X122500Y197904D01*
X122458Y197821D01*
X122419Y197736D01*
X122384Y197651D01*
X122352Y197563D01*
X122324Y197475D01*
X122300Y197385D01*
X122280Y197294D01*
X122263Y197203D01*
X122250Y197111D01*
X122241Y197019D01*
X122236Y196926D01*
X122379Y196926D01*
X122385Y197015D01*
X122393Y197104D01*
X122406Y197192D01*
X122423Y197279D01*
X122443Y197366D01*
X122467Y197452D01*
X122494Y197537D01*
X122526Y197620D01*
X122560Y197702D01*
X122599Y197783D01*
X122640Y197861D01*
X122685Y197938D01*
X122733Y198013D01*
X122785Y198086D01*
X122839Y198157D01*
X122896Y198225D01*
X122957Y198290D01*
X123020Y198353D01*
X123085Y198414D01*
X123153Y198471D01*
X123224Y198525D01*
X123297Y198577D01*
X123372Y198625D01*
X123449Y198670D01*
X123527Y198711D01*
X123608Y198750D01*
X123690Y198784D01*
X123773Y198816D01*
X123858Y198843D01*
X123944Y198867D01*
X124031Y198887D01*
X124118Y198904D01*
X124206Y198917D01*
X124295Y198925D01*
X124384Y198931D01*
X124384Y198788D01*
X124299Y198782D01*
X124214Y198773D01*
X124130Y198761D01*
X124047Y198744D01*
X123964Y198724D01*
X123882Y198701D01*
X123802Y198674D01*
X123722Y198643D01*
X123644Y198609D01*
X123568Y198572D01*
X123493Y198531D01*
X123420Y198487D01*
X123349Y198439D01*
X123281Y198389D01*
X123214Y198336D01*
X123150Y198280D01*
X123089Y198221D01*
X123030Y198160D01*
X122974Y198096D01*
X122921Y198029D01*
X122871Y197961D01*
X122823Y197890D01*
X122779Y197817D01*
X122738Y197742D01*
X122701Y197666D01*
X122667Y197588D01*
X122636Y197508D01*
X122609Y197428D01*
X122586Y197346D01*
X122566Y197263D01*
X122549Y197180D01*
X122537Y197096D01*
X122528Y197011D01*
X122522Y196926D01*
X121235Y184075D02*
X122608Y184075D01*
X122608Y184074D02*
X122613Y183991D01*
X122622Y183907D01*
X122635Y183825D01*
X122651Y183743D01*
X122671Y183662D01*
X122695Y183581D01*
X122723Y183502D01*
X122754Y183425D01*
X122788Y183349D01*
X122826Y183274D01*
X122867Y183201D01*
X122912Y183130D01*
X122959Y183061D01*
X123010Y182995D01*
X123063Y182931D01*
X123120Y182869D01*
X123179Y182810D01*
X123241Y182753D01*
X123305Y182700D01*
X123371Y182649D01*
X123440Y182602D01*
X123511Y182557D01*
X123584Y182516D01*
X123659Y182478D01*
X123735Y182444D01*
X123812Y182413D01*
X123891Y182385D01*
X123972Y182361D01*
X124053Y182341D01*
X124135Y182325D01*
X124217Y182312D01*
X124301Y182303D01*
X124384Y182298D01*
X124385Y180925D01*
X124384Y180925D01*
X124272Y180929D01*
X124161Y180938D01*
X124050Y180950D01*
X123939Y180966D01*
X123830Y180986D01*
X123720Y181010D01*
X123612Y181037D01*
X123505Y181069D01*
X123399Y181104D01*
X123294Y181142D01*
X123190Y181184D01*
X123089Y181230D01*
X122988Y181279D01*
X122890Y181332D01*
X122793Y181388D01*
X122698Y181447D01*
X122606Y181510D01*
X122516Y181576D01*
X122428Y181645D01*
X122342Y181716D01*
X122259Y181791D01*
X122179Y181869D01*
X122101Y181949D01*
X122026Y182032D01*
X121955Y182118D01*
X121886Y182206D01*
X121820Y182296D01*
X121757Y182388D01*
X121698Y182483D01*
X121642Y182580D01*
X121589Y182678D01*
X121540Y182779D01*
X121494Y182880D01*
X121452Y182984D01*
X121414Y183089D01*
X121379Y183195D01*
X121347Y183302D01*
X121320Y183410D01*
X121296Y183520D01*
X121276Y183629D01*
X121260Y183740D01*
X121248Y183851D01*
X121239Y183962D01*
X121235Y184074D01*
X121378Y184074D01*
X121383Y183965D01*
X121391Y183856D01*
X121403Y183748D01*
X121419Y183640D01*
X121439Y183533D01*
X121463Y183426D01*
X121491Y183321D01*
X121522Y183216D01*
X121557Y183113D01*
X121595Y183011D01*
X121637Y182910D01*
X121683Y182811D01*
X121732Y182714D01*
X121785Y182618D01*
X121840Y182524D01*
X121900Y182433D01*
X121962Y182343D01*
X122027Y182256D01*
X122096Y182171D01*
X122167Y182089D01*
X122242Y182009D01*
X122319Y181932D01*
X122399Y181857D01*
X122481Y181786D01*
X122566Y181717D01*
X122653Y181652D01*
X122743Y181590D01*
X122834Y181530D01*
X122928Y181475D01*
X123024Y181422D01*
X123121Y181373D01*
X123220Y181327D01*
X123321Y181285D01*
X123423Y181247D01*
X123526Y181212D01*
X123631Y181181D01*
X123736Y181153D01*
X123843Y181129D01*
X123950Y181109D01*
X124058Y181093D01*
X124166Y181081D01*
X124275Y181073D01*
X124384Y181068D01*
X124384Y181211D01*
X124278Y181216D01*
X124172Y181224D01*
X124066Y181236D01*
X123961Y181253D01*
X123857Y181273D01*
X123753Y181296D01*
X123650Y181324D01*
X123549Y181355D01*
X123448Y181390D01*
X123349Y181428D01*
X123251Y181470D01*
X123155Y181515D01*
X123061Y181564D01*
X122968Y181617D01*
X122877Y181672D01*
X122789Y181731D01*
X122703Y181793D01*
X122618Y181858D01*
X122537Y181926D01*
X122458Y181997D01*
X122381Y182071D01*
X122307Y182148D01*
X122236Y182227D01*
X122168Y182308D01*
X122103Y182393D01*
X122041Y182479D01*
X121982Y182567D01*
X121927Y182658D01*
X121874Y182751D01*
X121825Y182845D01*
X121780Y182941D01*
X121738Y183039D01*
X121700Y183138D01*
X121665Y183239D01*
X121634Y183340D01*
X121606Y183443D01*
X121583Y183547D01*
X121563Y183651D01*
X121546Y183756D01*
X121534Y183862D01*
X121526Y183968D01*
X121521Y184074D01*
X121664Y184074D01*
X121669Y183971D01*
X121677Y183868D01*
X121690Y183765D01*
X121706Y183663D01*
X121726Y183561D01*
X121749Y183460D01*
X121777Y183361D01*
X121808Y183262D01*
X121842Y183165D01*
X121881Y183068D01*
X121922Y182974D01*
X121968Y182881D01*
X122016Y182789D01*
X122068Y182700D01*
X122123Y182613D01*
X122182Y182527D01*
X122243Y182444D01*
X122308Y182363D01*
X122376Y182285D01*
X122446Y182209D01*
X122519Y182136D01*
X122595Y182066D01*
X122673Y181998D01*
X122754Y181933D01*
X122837Y181872D01*
X122923Y181813D01*
X123010Y181758D01*
X123099Y181706D01*
X123191Y181658D01*
X123284Y181612D01*
X123378Y181571D01*
X123475Y181532D01*
X123572Y181498D01*
X123671Y181467D01*
X123770Y181439D01*
X123871Y181416D01*
X123973Y181396D01*
X124075Y181380D01*
X124178Y181367D01*
X124281Y181359D01*
X124384Y181354D01*
X124384Y181497D01*
X124284Y181502D01*
X124184Y181510D01*
X124084Y181523D01*
X123985Y181539D01*
X123886Y181559D01*
X123789Y181582D01*
X123692Y181609D01*
X123597Y181640D01*
X123502Y181675D01*
X123409Y181713D01*
X123318Y181754D01*
X123228Y181799D01*
X123140Y181848D01*
X123054Y181899D01*
X122970Y181954D01*
X122888Y182012D01*
X122808Y182073D01*
X122731Y182137D01*
X122656Y182204D01*
X122583Y182273D01*
X122514Y182346D01*
X122447Y182421D01*
X122383Y182498D01*
X122322Y182578D01*
X122264Y182660D01*
X122209Y182744D01*
X122158Y182830D01*
X122109Y182918D01*
X122064Y183008D01*
X122023Y183099D01*
X121985Y183192D01*
X121950Y183287D01*
X121919Y183382D01*
X121892Y183479D01*
X121869Y183576D01*
X121849Y183675D01*
X121833Y183774D01*
X121820Y183874D01*
X121812Y183974D01*
X121807Y184074D01*
X121950Y184074D01*
X121955Y183974D01*
X121964Y183875D01*
X121977Y183776D01*
X121994Y183678D01*
X122015Y183580D01*
X122039Y183483D01*
X122068Y183388D01*
X122100Y183293D01*
X122136Y183200D01*
X122175Y183108D01*
X122218Y183019D01*
X122265Y182930D01*
X122315Y182844D01*
X122369Y182760D01*
X122426Y182678D01*
X122486Y182598D01*
X122549Y182521D01*
X122615Y182446D01*
X122684Y182374D01*
X122756Y182305D01*
X122831Y182239D01*
X122908Y182176D01*
X122988Y182116D01*
X123070Y182059D01*
X123154Y182005D01*
X123240Y181955D01*
X123329Y181908D01*
X123418Y181865D01*
X123510Y181826D01*
X123603Y181790D01*
X123698Y181758D01*
X123793Y181729D01*
X123890Y181705D01*
X123988Y181684D01*
X124086Y181667D01*
X124185Y181654D01*
X124284Y181645D01*
X124384Y181640D01*
X124384Y181783D01*
X124288Y181788D01*
X124192Y181797D01*
X124096Y181810D01*
X124001Y181827D01*
X123907Y181847D01*
X123814Y181872D01*
X123722Y181900D01*
X123631Y181932D01*
X123541Y181968D01*
X123453Y182007D01*
X123366Y182050D01*
X123282Y182096D01*
X123199Y182146D01*
X123119Y182199D01*
X123040Y182255D01*
X122964Y182314D01*
X122891Y182376D01*
X122820Y182442D01*
X122752Y182510D01*
X122686Y182581D01*
X122624Y182654D01*
X122565Y182730D01*
X122509Y182809D01*
X122456Y182889D01*
X122406Y182972D01*
X122360Y183056D01*
X122317Y183143D01*
X122278Y183231D01*
X122242Y183321D01*
X122210Y183412D01*
X122182Y183504D01*
X122157Y183597D01*
X122137Y183691D01*
X122120Y183786D01*
X122107Y183882D01*
X122098Y183978D01*
X122093Y184074D01*
X122236Y184074D01*
X122241Y183981D01*
X122250Y183889D01*
X122263Y183797D01*
X122280Y183706D01*
X122300Y183615D01*
X122324Y183525D01*
X122352Y183437D01*
X122384Y183349D01*
X122419Y183264D01*
X122458Y183179D01*
X122500Y183096D01*
X122546Y183016D01*
X122595Y182937D01*
X122647Y182860D01*
X122703Y182785D01*
X122761Y182713D01*
X122822Y182644D01*
X122887Y182577D01*
X122954Y182512D01*
X123023Y182451D01*
X123095Y182393D01*
X123170Y182337D01*
X123247Y182285D01*
X123326Y182236D01*
X123406Y182190D01*
X123489Y182148D01*
X123574Y182109D01*
X123659Y182074D01*
X123747Y182042D01*
X123835Y182014D01*
X123925Y181990D01*
X124016Y181970D01*
X124107Y181953D01*
X124199Y181940D01*
X124291Y181931D01*
X124384Y181926D01*
X124384Y182069D01*
X124295Y182075D01*
X124206Y182083D01*
X124118Y182096D01*
X124031Y182113D01*
X123944Y182133D01*
X123858Y182157D01*
X123773Y182184D01*
X123690Y182216D01*
X123608Y182250D01*
X123527Y182289D01*
X123449Y182330D01*
X123372Y182375D01*
X123297Y182423D01*
X123224Y182475D01*
X123153Y182529D01*
X123085Y182586D01*
X123020Y182647D01*
X122957Y182710D01*
X122896Y182775D01*
X122839Y182843D01*
X122785Y182914D01*
X122733Y182987D01*
X122685Y183062D01*
X122640Y183139D01*
X122599Y183217D01*
X122560Y183298D01*
X122526Y183380D01*
X122494Y183463D01*
X122467Y183548D01*
X122443Y183634D01*
X122423Y183721D01*
X122406Y183808D01*
X122393Y183896D01*
X122385Y183985D01*
X122379Y184074D01*
X122522Y184074D01*
X122528Y183989D01*
X122537Y183904D01*
X122549Y183820D01*
X122566Y183737D01*
X122586Y183654D01*
X122609Y183572D01*
X122636Y183492D01*
X122667Y183412D01*
X122701Y183334D01*
X122738Y183258D01*
X122779Y183183D01*
X122823Y183110D01*
X122871Y183039D01*
X122921Y182971D01*
X122974Y182904D01*
X123030Y182840D01*
X123089Y182779D01*
X123150Y182720D01*
X123214Y182664D01*
X123281Y182611D01*
X123349Y182561D01*
X123420Y182513D01*
X123493Y182469D01*
X123568Y182428D01*
X123644Y182391D01*
X123722Y182357D01*
X123802Y182326D01*
X123882Y182299D01*
X123964Y182276D01*
X124047Y182256D01*
X124130Y182239D01*
X124214Y182227D01*
X124299Y182218D01*
X124384Y182212D01*
D10*
X152400Y181610D02*
X154940Y181610D01*
X152400Y181610D02*
X151130Y182880D01*
X152400Y199390D02*
X154940Y199390D01*
X152400Y199390D02*
X151130Y198120D01*
X128270Y182880D02*
X127000Y181610D01*
X128270Y182880D02*
X151130Y182880D01*
X128270Y198120D02*
X127000Y199390D01*
X128270Y198120D02*
X151130Y198120D01*
X127000Y181610D02*
X124460Y181610D01*
X124460Y199390D02*
X127000Y199390D01*
D18*
X243915Y142825D02*
X243915Y144198D01*
X243916Y144198D02*
X243999Y144203D01*
X244083Y144212D01*
X244165Y144225D01*
X244247Y144241D01*
X244328Y144261D01*
X244409Y144285D01*
X244488Y144313D01*
X244565Y144344D01*
X244641Y144378D01*
X244716Y144416D01*
X244789Y144457D01*
X244860Y144502D01*
X244929Y144549D01*
X244995Y144600D01*
X245059Y144653D01*
X245121Y144710D01*
X245180Y144769D01*
X245237Y144831D01*
X245290Y144895D01*
X245341Y144961D01*
X245388Y145030D01*
X245433Y145101D01*
X245474Y145174D01*
X245512Y145249D01*
X245546Y145325D01*
X245577Y145402D01*
X245605Y145481D01*
X245629Y145562D01*
X245649Y145643D01*
X245665Y145725D01*
X245678Y145807D01*
X245687Y145891D01*
X245692Y145974D01*
X247065Y145975D01*
X247065Y145974D01*
X247061Y145862D01*
X247052Y145751D01*
X247040Y145640D01*
X247024Y145529D01*
X247004Y145420D01*
X246980Y145310D01*
X246953Y145202D01*
X246921Y145095D01*
X246886Y144989D01*
X246848Y144884D01*
X246806Y144780D01*
X246760Y144679D01*
X246711Y144578D01*
X246658Y144480D01*
X246602Y144383D01*
X246543Y144288D01*
X246480Y144196D01*
X246414Y144106D01*
X246345Y144018D01*
X246274Y143932D01*
X246199Y143849D01*
X246121Y143769D01*
X246041Y143691D01*
X245958Y143616D01*
X245872Y143545D01*
X245784Y143476D01*
X245694Y143410D01*
X245602Y143347D01*
X245507Y143288D01*
X245410Y143232D01*
X245312Y143179D01*
X245211Y143130D01*
X245110Y143084D01*
X245006Y143042D01*
X244901Y143004D01*
X244795Y142969D01*
X244688Y142937D01*
X244580Y142910D01*
X244470Y142886D01*
X244361Y142866D01*
X244250Y142850D01*
X244139Y142838D01*
X244028Y142829D01*
X243916Y142825D01*
X243916Y142968D01*
X244025Y142973D01*
X244134Y142981D01*
X244242Y142993D01*
X244350Y143009D01*
X244457Y143029D01*
X244564Y143053D01*
X244669Y143081D01*
X244774Y143112D01*
X244877Y143147D01*
X244979Y143185D01*
X245080Y143227D01*
X245179Y143273D01*
X245276Y143322D01*
X245372Y143375D01*
X245466Y143430D01*
X245557Y143490D01*
X245647Y143552D01*
X245734Y143617D01*
X245819Y143686D01*
X245901Y143757D01*
X245981Y143832D01*
X246058Y143909D01*
X246133Y143989D01*
X246204Y144071D01*
X246273Y144156D01*
X246338Y144243D01*
X246400Y144333D01*
X246460Y144424D01*
X246515Y144518D01*
X246568Y144614D01*
X246617Y144711D01*
X246663Y144810D01*
X246705Y144911D01*
X246743Y145013D01*
X246778Y145116D01*
X246809Y145221D01*
X246837Y145326D01*
X246861Y145433D01*
X246881Y145540D01*
X246897Y145648D01*
X246909Y145756D01*
X246917Y145865D01*
X246922Y145974D01*
X246779Y145974D01*
X246774Y145868D01*
X246766Y145762D01*
X246754Y145656D01*
X246737Y145551D01*
X246717Y145447D01*
X246694Y145343D01*
X246666Y145240D01*
X246635Y145139D01*
X246600Y145038D01*
X246562Y144939D01*
X246520Y144841D01*
X246475Y144745D01*
X246426Y144651D01*
X246373Y144558D01*
X246318Y144467D01*
X246259Y144379D01*
X246197Y144293D01*
X246132Y144208D01*
X246064Y144127D01*
X245993Y144048D01*
X245919Y143971D01*
X245842Y143897D01*
X245763Y143826D01*
X245682Y143758D01*
X245597Y143693D01*
X245511Y143631D01*
X245423Y143572D01*
X245332Y143517D01*
X245239Y143464D01*
X245145Y143415D01*
X245049Y143370D01*
X244951Y143328D01*
X244852Y143290D01*
X244751Y143255D01*
X244650Y143224D01*
X244547Y143196D01*
X244443Y143173D01*
X244339Y143153D01*
X244234Y143136D01*
X244128Y143124D01*
X244022Y143116D01*
X243916Y143111D01*
X243916Y143254D01*
X244019Y143259D01*
X244122Y143267D01*
X244225Y143280D01*
X244327Y143296D01*
X244429Y143316D01*
X244530Y143339D01*
X244629Y143367D01*
X244728Y143398D01*
X244825Y143432D01*
X244922Y143471D01*
X245016Y143512D01*
X245109Y143558D01*
X245201Y143606D01*
X245290Y143658D01*
X245377Y143713D01*
X245463Y143772D01*
X245546Y143833D01*
X245627Y143898D01*
X245705Y143966D01*
X245781Y144036D01*
X245854Y144109D01*
X245924Y144185D01*
X245992Y144263D01*
X246057Y144344D01*
X246118Y144427D01*
X246177Y144513D01*
X246232Y144600D01*
X246284Y144689D01*
X246332Y144781D01*
X246378Y144874D01*
X246419Y144968D01*
X246458Y145065D01*
X246492Y145162D01*
X246523Y145261D01*
X246551Y145360D01*
X246574Y145461D01*
X246594Y145563D01*
X246610Y145665D01*
X246623Y145768D01*
X246631Y145871D01*
X246636Y145974D01*
X246493Y145974D01*
X246488Y145874D01*
X246480Y145774D01*
X246467Y145674D01*
X246451Y145575D01*
X246431Y145476D01*
X246408Y145379D01*
X246381Y145282D01*
X246350Y145187D01*
X246315Y145092D01*
X246277Y144999D01*
X246236Y144908D01*
X246191Y144818D01*
X246142Y144730D01*
X246091Y144644D01*
X246036Y144560D01*
X245978Y144478D01*
X245917Y144398D01*
X245853Y144321D01*
X245786Y144246D01*
X245717Y144173D01*
X245644Y144104D01*
X245569Y144037D01*
X245492Y143973D01*
X245412Y143912D01*
X245330Y143854D01*
X245246Y143799D01*
X245160Y143748D01*
X245072Y143699D01*
X244982Y143654D01*
X244891Y143613D01*
X244798Y143575D01*
X244703Y143540D01*
X244608Y143509D01*
X244511Y143482D01*
X244414Y143459D01*
X244315Y143439D01*
X244216Y143423D01*
X244116Y143410D01*
X244016Y143402D01*
X243916Y143397D01*
X243916Y143540D01*
X244016Y143545D01*
X244115Y143554D01*
X244214Y143567D01*
X244312Y143584D01*
X244410Y143605D01*
X244507Y143629D01*
X244602Y143658D01*
X244697Y143690D01*
X244790Y143726D01*
X244882Y143765D01*
X244971Y143808D01*
X245060Y143855D01*
X245146Y143905D01*
X245230Y143959D01*
X245312Y144016D01*
X245392Y144076D01*
X245469Y144139D01*
X245544Y144205D01*
X245616Y144274D01*
X245685Y144346D01*
X245751Y144421D01*
X245814Y144498D01*
X245874Y144578D01*
X245931Y144660D01*
X245985Y144744D01*
X246035Y144830D01*
X246082Y144919D01*
X246125Y145008D01*
X246164Y145100D01*
X246200Y145193D01*
X246232Y145288D01*
X246261Y145383D01*
X246285Y145480D01*
X246306Y145578D01*
X246323Y145676D01*
X246336Y145775D01*
X246345Y145874D01*
X246350Y145974D01*
X246207Y145974D01*
X246202Y145878D01*
X246193Y145782D01*
X246180Y145686D01*
X246163Y145591D01*
X246143Y145497D01*
X246118Y145404D01*
X246090Y145312D01*
X246058Y145221D01*
X246022Y145131D01*
X245983Y145043D01*
X245940Y144956D01*
X245894Y144872D01*
X245844Y144789D01*
X245791Y144709D01*
X245735Y144630D01*
X245676Y144554D01*
X245614Y144481D01*
X245548Y144410D01*
X245480Y144342D01*
X245409Y144276D01*
X245336Y144214D01*
X245260Y144155D01*
X245181Y144099D01*
X245101Y144046D01*
X245018Y143996D01*
X244934Y143950D01*
X244847Y143907D01*
X244759Y143868D01*
X244669Y143832D01*
X244578Y143800D01*
X244486Y143772D01*
X244393Y143747D01*
X244299Y143727D01*
X244204Y143710D01*
X244108Y143697D01*
X244012Y143688D01*
X243916Y143683D01*
X243916Y143826D01*
X244009Y143831D01*
X244101Y143840D01*
X244193Y143853D01*
X244284Y143870D01*
X244375Y143890D01*
X244465Y143914D01*
X244553Y143942D01*
X244641Y143974D01*
X244726Y144009D01*
X244811Y144048D01*
X244894Y144090D01*
X244974Y144136D01*
X245053Y144185D01*
X245130Y144237D01*
X245205Y144293D01*
X245277Y144351D01*
X245346Y144412D01*
X245413Y144477D01*
X245478Y144544D01*
X245539Y144613D01*
X245597Y144685D01*
X245653Y144760D01*
X245705Y144837D01*
X245754Y144916D01*
X245800Y144996D01*
X245842Y145079D01*
X245881Y145164D01*
X245916Y145249D01*
X245948Y145337D01*
X245976Y145425D01*
X246000Y145515D01*
X246020Y145606D01*
X246037Y145697D01*
X246050Y145789D01*
X246059Y145881D01*
X246064Y145974D01*
X245921Y145974D01*
X245915Y145885D01*
X245907Y145796D01*
X245894Y145708D01*
X245877Y145621D01*
X245857Y145534D01*
X245833Y145448D01*
X245806Y145363D01*
X245774Y145280D01*
X245740Y145198D01*
X245701Y145117D01*
X245660Y145039D01*
X245615Y144962D01*
X245567Y144887D01*
X245515Y144814D01*
X245461Y144743D01*
X245404Y144675D01*
X245343Y144610D01*
X245280Y144547D01*
X245215Y144486D01*
X245147Y144429D01*
X245076Y144375D01*
X245003Y144323D01*
X244928Y144275D01*
X244851Y144230D01*
X244773Y144189D01*
X244692Y144150D01*
X244610Y144116D01*
X244527Y144084D01*
X244442Y144057D01*
X244356Y144033D01*
X244269Y144013D01*
X244182Y143996D01*
X244094Y143983D01*
X244005Y143975D01*
X243916Y143969D01*
X243916Y144112D01*
X244001Y144118D01*
X244086Y144127D01*
X244170Y144139D01*
X244253Y144156D01*
X244336Y144176D01*
X244418Y144199D01*
X244498Y144226D01*
X244578Y144257D01*
X244656Y144291D01*
X244732Y144328D01*
X244807Y144369D01*
X244880Y144413D01*
X244951Y144461D01*
X245019Y144511D01*
X245086Y144564D01*
X245150Y144620D01*
X245211Y144679D01*
X245270Y144740D01*
X245326Y144804D01*
X245379Y144871D01*
X245429Y144939D01*
X245477Y145010D01*
X245521Y145083D01*
X245562Y145158D01*
X245599Y145234D01*
X245633Y145312D01*
X245664Y145392D01*
X245691Y145472D01*
X245714Y145554D01*
X245734Y145637D01*
X245751Y145720D01*
X245763Y145804D01*
X245772Y145889D01*
X245778Y145974D01*
X247065Y158825D02*
X245692Y158825D01*
X245692Y158826D02*
X245687Y158909D01*
X245678Y158993D01*
X245665Y159075D01*
X245649Y159157D01*
X245629Y159238D01*
X245605Y159319D01*
X245577Y159398D01*
X245546Y159475D01*
X245512Y159551D01*
X245474Y159626D01*
X245433Y159699D01*
X245388Y159770D01*
X245341Y159839D01*
X245290Y159905D01*
X245237Y159969D01*
X245180Y160031D01*
X245121Y160090D01*
X245059Y160147D01*
X244995Y160200D01*
X244929Y160251D01*
X244860Y160298D01*
X244789Y160343D01*
X244716Y160384D01*
X244641Y160422D01*
X244565Y160456D01*
X244488Y160487D01*
X244409Y160515D01*
X244328Y160539D01*
X244247Y160559D01*
X244165Y160575D01*
X244083Y160588D01*
X243999Y160597D01*
X243916Y160602D01*
X243915Y161975D01*
X243916Y161975D01*
X244028Y161971D01*
X244139Y161962D01*
X244250Y161950D01*
X244361Y161934D01*
X244470Y161914D01*
X244580Y161890D01*
X244688Y161863D01*
X244795Y161831D01*
X244901Y161796D01*
X245006Y161758D01*
X245110Y161716D01*
X245211Y161670D01*
X245312Y161621D01*
X245410Y161568D01*
X245507Y161512D01*
X245602Y161453D01*
X245694Y161390D01*
X245784Y161324D01*
X245872Y161255D01*
X245958Y161184D01*
X246041Y161109D01*
X246121Y161031D01*
X246199Y160951D01*
X246274Y160868D01*
X246345Y160782D01*
X246414Y160694D01*
X246480Y160604D01*
X246543Y160512D01*
X246602Y160417D01*
X246658Y160320D01*
X246711Y160222D01*
X246760Y160121D01*
X246806Y160020D01*
X246848Y159916D01*
X246886Y159811D01*
X246921Y159705D01*
X246953Y159598D01*
X246980Y159490D01*
X247004Y159380D01*
X247024Y159271D01*
X247040Y159160D01*
X247052Y159049D01*
X247061Y158938D01*
X247065Y158826D01*
X246922Y158826D01*
X246917Y158935D01*
X246909Y159044D01*
X246897Y159152D01*
X246881Y159260D01*
X246861Y159367D01*
X246837Y159474D01*
X246809Y159579D01*
X246778Y159684D01*
X246743Y159787D01*
X246705Y159889D01*
X246663Y159990D01*
X246617Y160089D01*
X246568Y160186D01*
X246515Y160282D01*
X246460Y160376D01*
X246400Y160467D01*
X246338Y160557D01*
X246273Y160644D01*
X246204Y160729D01*
X246133Y160811D01*
X246058Y160891D01*
X245981Y160968D01*
X245901Y161043D01*
X245819Y161114D01*
X245734Y161183D01*
X245647Y161248D01*
X245557Y161310D01*
X245466Y161370D01*
X245372Y161425D01*
X245276Y161478D01*
X245179Y161527D01*
X245080Y161573D01*
X244979Y161615D01*
X244877Y161653D01*
X244774Y161688D01*
X244669Y161719D01*
X244564Y161747D01*
X244457Y161771D01*
X244350Y161791D01*
X244242Y161807D01*
X244134Y161819D01*
X244025Y161827D01*
X243916Y161832D01*
X243916Y161689D01*
X244022Y161684D01*
X244128Y161676D01*
X244234Y161664D01*
X244339Y161647D01*
X244443Y161627D01*
X244547Y161604D01*
X244650Y161576D01*
X244751Y161545D01*
X244852Y161510D01*
X244951Y161472D01*
X245049Y161430D01*
X245145Y161385D01*
X245239Y161336D01*
X245332Y161283D01*
X245423Y161228D01*
X245511Y161169D01*
X245597Y161107D01*
X245682Y161042D01*
X245763Y160974D01*
X245842Y160903D01*
X245919Y160829D01*
X245993Y160752D01*
X246064Y160673D01*
X246132Y160592D01*
X246197Y160507D01*
X246259Y160421D01*
X246318Y160333D01*
X246373Y160242D01*
X246426Y160149D01*
X246475Y160055D01*
X246520Y159959D01*
X246562Y159861D01*
X246600Y159762D01*
X246635Y159661D01*
X246666Y159560D01*
X246694Y159457D01*
X246717Y159353D01*
X246737Y159249D01*
X246754Y159144D01*
X246766Y159038D01*
X246774Y158932D01*
X246779Y158826D01*
X246636Y158826D01*
X246631Y158929D01*
X246623Y159032D01*
X246610Y159135D01*
X246594Y159237D01*
X246574Y159339D01*
X246551Y159440D01*
X246523Y159539D01*
X246492Y159638D01*
X246458Y159735D01*
X246419Y159832D01*
X246378Y159926D01*
X246332Y160019D01*
X246284Y160111D01*
X246232Y160200D01*
X246177Y160287D01*
X246118Y160373D01*
X246057Y160456D01*
X245992Y160537D01*
X245924Y160615D01*
X245854Y160691D01*
X245781Y160764D01*
X245705Y160834D01*
X245627Y160902D01*
X245546Y160967D01*
X245463Y161028D01*
X245377Y161087D01*
X245290Y161142D01*
X245201Y161194D01*
X245109Y161242D01*
X245016Y161288D01*
X244922Y161329D01*
X244825Y161368D01*
X244728Y161402D01*
X244629Y161433D01*
X244530Y161461D01*
X244429Y161484D01*
X244327Y161504D01*
X244225Y161520D01*
X244122Y161533D01*
X244019Y161541D01*
X243916Y161546D01*
X243916Y161403D01*
X244016Y161398D01*
X244116Y161390D01*
X244216Y161377D01*
X244315Y161361D01*
X244414Y161341D01*
X244511Y161318D01*
X244608Y161291D01*
X244703Y161260D01*
X244798Y161225D01*
X244891Y161187D01*
X244982Y161146D01*
X245072Y161101D01*
X245160Y161052D01*
X245246Y161001D01*
X245330Y160946D01*
X245412Y160888D01*
X245492Y160827D01*
X245569Y160763D01*
X245644Y160696D01*
X245717Y160627D01*
X245786Y160554D01*
X245853Y160479D01*
X245917Y160402D01*
X245978Y160322D01*
X246036Y160240D01*
X246091Y160156D01*
X246142Y160070D01*
X246191Y159982D01*
X246236Y159892D01*
X246277Y159801D01*
X246315Y159708D01*
X246350Y159613D01*
X246381Y159518D01*
X246408Y159421D01*
X246431Y159324D01*
X246451Y159225D01*
X246467Y159126D01*
X246480Y159026D01*
X246488Y158926D01*
X246493Y158826D01*
X246350Y158826D01*
X246345Y158926D01*
X246336Y159025D01*
X246323Y159124D01*
X246306Y159222D01*
X246285Y159320D01*
X246261Y159417D01*
X246232Y159512D01*
X246200Y159607D01*
X246164Y159700D01*
X246125Y159792D01*
X246082Y159881D01*
X246035Y159970D01*
X245985Y160056D01*
X245931Y160140D01*
X245874Y160222D01*
X245814Y160302D01*
X245751Y160379D01*
X245685Y160454D01*
X245616Y160526D01*
X245544Y160595D01*
X245469Y160661D01*
X245392Y160724D01*
X245312Y160784D01*
X245230Y160841D01*
X245146Y160895D01*
X245060Y160945D01*
X244971Y160992D01*
X244882Y161035D01*
X244790Y161074D01*
X244697Y161110D01*
X244602Y161142D01*
X244507Y161171D01*
X244410Y161195D01*
X244312Y161216D01*
X244214Y161233D01*
X244115Y161246D01*
X244016Y161255D01*
X243916Y161260D01*
X243916Y161117D01*
X244012Y161112D01*
X244108Y161103D01*
X244204Y161090D01*
X244299Y161073D01*
X244393Y161053D01*
X244486Y161028D01*
X244578Y161000D01*
X244669Y160968D01*
X244759Y160932D01*
X244847Y160893D01*
X244934Y160850D01*
X245018Y160804D01*
X245101Y160754D01*
X245181Y160701D01*
X245260Y160645D01*
X245336Y160586D01*
X245409Y160524D01*
X245480Y160458D01*
X245548Y160390D01*
X245614Y160319D01*
X245676Y160246D01*
X245735Y160170D01*
X245791Y160091D01*
X245844Y160011D01*
X245894Y159928D01*
X245940Y159844D01*
X245983Y159757D01*
X246022Y159669D01*
X246058Y159579D01*
X246090Y159488D01*
X246118Y159396D01*
X246143Y159303D01*
X246163Y159209D01*
X246180Y159114D01*
X246193Y159018D01*
X246202Y158922D01*
X246207Y158826D01*
X246064Y158826D01*
X246059Y158919D01*
X246050Y159011D01*
X246037Y159103D01*
X246020Y159194D01*
X246000Y159285D01*
X245976Y159375D01*
X245948Y159463D01*
X245916Y159551D01*
X245881Y159636D01*
X245842Y159721D01*
X245800Y159804D01*
X245754Y159884D01*
X245705Y159963D01*
X245653Y160040D01*
X245597Y160115D01*
X245539Y160187D01*
X245478Y160256D01*
X245413Y160323D01*
X245346Y160388D01*
X245277Y160449D01*
X245205Y160507D01*
X245130Y160563D01*
X245053Y160615D01*
X244974Y160664D01*
X244894Y160710D01*
X244811Y160752D01*
X244726Y160791D01*
X244641Y160826D01*
X244553Y160858D01*
X244465Y160886D01*
X244375Y160910D01*
X244284Y160930D01*
X244193Y160947D01*
X244101Y160960D01*
X244009Y160969D01*
X243916Y160974D01*
X243916Y160831D01*
X244005Y160825D01*
X244094Y160817D01*
X244182Y160804D01*
X244269Y160787D01*
X244356Y160767D01*
X244442Y160743D01*
X244527Y160716D01*
X244610Y160684D01*
X244692Y160650D01*
X244773Y160611D01*
X244851Y160570D01*
X244928Y160525D01*
X245003Y160477D01*
X245076Y160425D01*
X245147Y160371D01*
X245215Y160314D01*
X245280Y160253D01*
X245343Y160190D01*
X245404Y160125D01*
X245461Y160057D01*
X245515Y159986D01*
X245567Y159913D01*
X245615Y159838D01*
X245660Y159761D01*
X245701Y159683D01*
X245740Y159602D01*
X245774Y159520D01*
X245806Y159437D01*
X245833Y159352D01*
X245857Y159266D01*
X245877Y159179D01*
X245894Y159092D01*
X245907Y159004D01*
X245915Y158915D01*
X245921Y158826D01*
X245778Y158826D01*
X245772Y158911D01*
X245763Y158996D01*
X245751Y159080D01*
X245734Y159163D01*
X245714Y159246D01*
X245691Y159328D01*
X245664Y159408D01*
X245633Y159488D01*
X245599Y159566D01*
X245562Y159642D01*
X245521Y159717D01*
X245477Y159790D01*
X245429Y159861D01*
X245379Y159929D01*
X245326Y159996D01*
X245270Y160060D01*
X245211Y160121D01*
X245150Y160180D01*
X245086Y160236D01*
X245019Y160289D01*
X244951Y160339D01*
X244880Y160387D01*
X244807Y160431D01*
X244732Y160472D01*
X244656Y160509D01*
X244578Y160543D01*
X244498Y160574D01*
X244418Y160601D01*
X244336Y160624D01*
X244253Y160644D01*
X244170Y160661D01*
X244086Y160673D01*
X244001Y160682D01*
X243916Y160688D01*
X213285Y161975D02*
X213285Y160602D01*
X213284Y160602D02*
X213201Y160597D01*
X213117Y160588D01*
X213035Y160575D01*
X212953Y160559D01*
X212872Y160539D01*
X212791Y160515D01*
X212712Y160487D01*
X212635Y160456D01*
X212559Y160422D01*
X212484Y160384D01*
X212411Y160343D01*
X212340Y160298D01*
X212271Y160251D01*
X212205Y160200D01*
X212141Y160147D01*
X212079Y160090D01*
X212020Y160031D01*
X211963Y159969D01*
X211910Y159905D01*
X211859Y159839D01*
X211812Y159770D01*
X211767Y159699D01*
X211726Y159626D01*
X211688Y159551D01*
X211654Y159475D01*
X211623Y159398D01*
X211595Y159319D01*
X211571Y159238D01*
X211551Y159157D01*
X211535Y159075D01*
X211522Y158993D01*
X211513Y158909D01*
X211508Y158826D01*
X210135Y158825D01*
X210135Y158826D01*
X210139Y158938D01*
X210148Y159049D01*
X210160Y159160D01*
X210176Y159271D01*
X210196Y159380D01*
X210220Y159490D01*
X210247Y159598D01*
X210279Y159705D01*
X210314Y159811D01*
X210352Y159916D01*
X210394Y160020D01*
X210440Y160121D01*
X210489Y160222D01*
X210542Y160320D01*
X210598Y160417D01*
X210657Y160512D01*
X210720Y160604D01*
X210786Y160694D01*
X210855Y160782D01*
X210926Y160868D01*
X211001Y160951D01*
X211079Y161031D01*
X211159Y161109D01*
X211242Y161184D01*
X211328Y161255D01*
X211416Y161324D01*
X211506Y161390D01*
X211598Y161453D01*
X211693Y161512D01*
X211790Y161568D01*
X211888Y161621D01*
X211989Y161670D01*
X212090Y161716D01*
X212194Y161758D01*
X212299Y161796D01*
X212405Y161831D01*
X212512Y161863D01*
X212620Y161890D01*
X212730Y161914D01*
X212839Y161934D01*
X212950Y161950D01*
X213061Y161962D01*
X213172Y161971D01*
X213284Y161975D01*
X213284Y161832D01*
X213175Y161827D01*
X213066Y161819D01*
X212958Y161807D01*
X212850Y161791D01*
X212743Y161771D01*
X212636Y161747D01*
X212531Y161719D01*
X212426Y161688D01*
X212323Y161653D01*
X212221Y161615D01*
X212120Y161573D01*
X212021Y161527D01*
X211924Y161478D01*
X211828Y161425D01*
X211734Y161370D01*
X211643Y161310D01*
X211553Y161248D01*
X211466Y161183D01*
X211381Y161114D01*
X211299Y161043D01*
X211219Y160968D01*
X211142Y160891D01*
X211067Y160811D01*
X210996Y160729D01*
X210927Y160644D01*
X210862Y160557D01*
X210800Y160467D01*
X210740Y160376D01*
X210685Y160282D01*
X210632Y160186D01*
X210583Y160089D01*
X210537Y159990D01*
X210495Y159889D01*
X210457Y159787D01*
X210422Y159684D01*
X210391Y159579D01*
X210363Y159474D01*
X210339Y159367D01*
X210319Y159260D01*
X210303Y159152D01*
X210291Y159044D01*
X210283Y158935D01*
X210278Y158826D01*
X210421Y158826D01*
X210426Y158932D01*
X210434Y159038D01*
X210446Y159144D01*
X210463Y159249D01*
X210483Y159353D01*
X210506Y159457D01*
X210534Y159560D01*
X210565Y159661D01*
X210600Y159762D01*
X210638Y159861D01*
X210680Y159959D01*
X210725Y160055D01*
X210774Y160149D01*
X210827Y160242D01*
X210882Y160333D01*
X210941Y160421D01*
X211003Y160507D01*
X211068Y160592D01*
X211136Y160673D01*
X211207Y160752D01*
X211281Y160829D01*
X211358Y160903D01*
X211437Y160974D01*
X211518Y161042D01*
X211603Y161107D01*
X211689Y161169D01*
X211777Y161228D01*
X211868Y161283D01*
X211961Y161336D01*
X212055Y161385D01*
X212151Y161430D01*
X212249Y161472D01*
X212348Y161510D01*
X212449Y161545D01*
X212550Y161576D01*
X212653Y161604D01*
X212757Y161627D01*
X212861Y161647D01*
X212966Y161664D01*
X213072Y161676D01*
X213178Y161684D01*
X213284Y161689D01*
X213284Y161546D01*
X213181Y161541D01*
X213078Y161533D01*
X212975Y161520D01*
X212873Y161504D01*
X212771Y161484D01*
X212670Y161461D01*
X212571Y161433D01*
X212472Y161402D01*
X212375Y161368D01*
X212278Y161329D01*
X212184Y161288D01*
X212091Y161242D01*
X211999Y161194D01*
X211910Y161142D01*
X211823Y161087D01*
X211737Y161028D01*
X211654Y160967D01*
X211573Y160902D01*
X211495Y160834D01*
X211419Y160764D01*
X211346Y160691D01*
X211276Y160615D01*
X211208Y160537D01*
X211143Y160456D01*
X211082Y160373D01*
X211023Y160287D01*
X210968Y160200D01*
X210916Y160111D01*
X210868Y160019D01*
X210822Y159926D01*
X210781Y159832D01*
X210742Y159735D01*
X210708Y159638D01*
X210677Y159539D01*
X210649Y159440D01*
X210626Y159339D01*
X210606Y159237D01*
X210590Y159135D01*
X210577Y159032D01*
X210569Y158929D01*
X210564Y158826D01*
X210707Y158826D01*
X210712Y158926D01*
X210720Y159026D01*
X210733Y159126D01*
X210749Y159225D01*
X210769Y159324D01*
X210792Y159421D01*
X210819Y159518D01*
X210850Y159613D01*
X210885Y159708D01*
X210923Y159801D01*
X210964Y159892D01*
X211009Y159982D01*
X211058Y160070D01*
X211109Y160156D01*
X211164Y160240D01*
X211222Y160322D01*
X211283Y160402D01*
X211347Y160479D01*
X211414Y160554D01*
X211483Y160627D01*
X211556Y160696D01*
X211631Y160763D01*
X211708Y160827D01*
X211788Y160888D01*
X211870Y160946D01*
X211954Y161001D01*
X212040Y161052D01*
X212128Y161101D01*
X212218Y161146D01*
X212309Y161187D01*
X212402Y161225D01*
X212497Y161260D01*
X212592Y161291D01*
X212689Y161318D01*
X212786Y161341D01*
X212885Y161361D01*
X212984Y161377D01*
X213084Y161390D01*
X213184Y161398D01*
X213284Y161403D01*
X213284Y161260D01*
X213184Y161255D01*
X213085Y161246D01*
X212986Y161233D01*
X212888Y161216D01*
X212790Y161195D01*
X212693Y161171D01*
X212598Y161142D01*
X212503Y161110D01*
X212410Y161074D01*
X212318Y161035D01*
X212229Y160992D01*
X212140Y160945D01*
X212054Y160895D01*
X211970Y160841D01*
X211888Y160784D01*
X211808Y160724D01*
X211731Y160661D01*
X211656Y160595D01*
X211584Y160526D01*
X211515Y160454D01*
X211449Y160379D01*
X211386Y160302D01*
X211326Y160222D01*
X211269Y160140D01*
X211215Y160056D01*
X211165Y159970D01*
X211118Y159881D01*
X211075Y159792D01*
X211036Y159700D01*
X211000Y159607D01*
X210968Y159512D01*
X210939Y159417D01*
X210915Y159320D01*
X210894Y159222D01*
X210877Y159124D01*
X210864Y159025D01*
X210855Y158926D01*
X210850Y158826D01*
X210993Y158826D01*
X210998Y158922D01*
X211007Y159018D01*
X211020Y159114D01*
X211037Y159209D01*
X211057Y159303D01*
X211082Y159396D01*
X211110Y159488D01*
X211142Y159579D01*
X211178Y159669D01*
X211217Y159757D01*
X211260Y159844D01*
X211306Y159928D01*
X211356Y160011D01*
X211409Y160091D01*
X211465Y160170D01*
X211524Y160246D01*
X211586Y160319D01*
X211652Y160390D01*
X211720Y160458D01*
X211791Y160524D01*
X211864Y160586D01*
X211940Y160645D01*
X212019Y160701D01*
X212099Y160754D01*
X212182Y160804D01*
X212266Y160850D01*
X212353Y160893D01*
X212441Y160932D01*
X212531Y160968D01*
X212622Y161000D01*
X212714Y161028D01*
X212807Y161053D01*
X212901Y161073D01*
X212996Y161090D01*
X213092Y161103D01*
X213188Y161112D01*
X213284Y161117D01*
X213284Y160974D01*
X213191Y160969D01*
X213099Y160960D01*
X213007Y160947D01*
X212916Y160930D01*
X212825Y160910D01*
X212735Y160886D01*
X212647Y160858D01*
X212559Y160826D01*
X212474Y160791D01*
X212389Y160752D01*
X212306Y160710D01*
X212226Y160664D01*
X212147Y160615D01*
X212070Y160563D01*
X211995Y160507D01*
X211923Y160449D01*
X211854Y160388D01*
X211787Y160323D01*
X211722Y160256D01*
X211661Y160187D01*
X211603Y160115D01*
X211547Y160040D01*
X211495Y159963D01*
X211446Y159884D01*
X211400Y159804D01*
X211358Y159721D01*
X211319Y159636D01*
X211284Y159551D01*
X211252Y159463D01*
X211224Y159375D01*
X211200Y159285D01*
X211180Y159194D01*
X211163Y159103D01*
X211150Y159011D01*
X211141Y158919D01*
X211136Y158826D01*
X211279Y158826D01*
X211285Y158915D01*
X211293Y159004D01*
X211306Y159092D01*
X211323Y159179D01*
X211343Y159266D01*
X211367Y159352D01*
X211394Y159437D01*
X211426Y159520D01*
X211460Y159602D01*
X211499Y159683D01*
X211540Y159761D01*
X211585Y159838D01*
X211633Y159913D01*
X211685Y159986D01*
X211739Y160057D01*
X211796Y160125D01*
X211857Y160190D01*
X211920Y160253D01*
X211985Y160314D01*
X212053Y160371D01*
X212124Y160425D01*
X212197Y160477D01*
X212272Y160525D01*
X212349Y160570D01*
X212427Y160611D01*
X212508Y160650D01*
X212590Y160684D01*
X212673Y160716D01*
X212758Y160743D01*
X212844Y160767D01*
X212931Y160787D01*
X213018Y160804D01*
X213106Y160817D01*
X213195Y160825D01*
X213284Y160831D01*
X213284Y160688D01*
X213199Y160682D01*
X213114Y160673D01*
X213030Y160661D01*
X212947Y160644D01*
X212864Y160624D01*
X212782Y160601D01*
X212702Y160574D01*
X212622Y160543D01*
X212544Y160509D01*
X212468Y160472D01*
X212393Y160431D01*
X212320Y160387D01*
X212249Y160339D01*
X212181Y160289D01*
X212114Y160236D01*
X212050Y160180D01*
X211989Y160121D01*
X211930Y160060D01*
X211874Y159996D01*
X211821Y159929D01*
X211771Y159861D01*
X211723Y159790D01*
X211679Y159717D01*
X211638Y159642D01*
X211601Y159566D01*
X211567Y159488D01*
X211536Y159408D01*
X211509Y159328D01*
X211486Y159246D01*
X211466Y159163D01*
X211449Y159080D01*
X211437Y158996D01*
X211428Y158911D01*
X211422Y158826D01*
X210135Y145975D02*
X211508Y145975D01*
X211508Y145974D02*
X211513Y145891D01*
X211522Y145807D01*
X211535Y145725D01*
X211551Y145643D01*
X211571Y145562D01*
X211595Y145481D01*
X211623Y145402D01*
X211654Y145325D01*
X211688Y145249D01*
X211726Y145174D01*
X211767Y145101D01*
X211812Y145030D01*
X211859Y144961D01*
X211910Y144895D01*
X211963Y144831D01*
X212020Y144769D01*
X212079Y144710D01*
X212141Y144653D01*
X212205Y144600D01*
X212271Y144549D01*
X212340Y144502D01*
X212411Y144457D01*
X212484Y144416D01*
X212559Y144378D01*
X212635Y144344D01*
X212712Y144313D01*
X212791Y144285D01*
X212872Y144261D01*
X212953Y144241D01*
X213035Y144225D01*
X213117Y144212D01*
X213201Y144203D01*
X213284Y144198D01*
X213285Y142825D01*
X213284Y142825D01*
X213172Y142829D01*
X213061Y142838D01*
X212950Y142850D01*
X212839Y142866D01*
X212730Y142886D01*
X212620Y142910D01*
X212512Y142937D01*
X212405Y142969D01*
X212299Y143004D01*
X212194Y143042D01*
X212090Y143084D01*
X211989Y143130D01*
X211888Y143179D01*
X211790Y143232D01*
X211693Y143288D01*
X211598Y143347D01*
X211506Y143410D01*
X211416Y143476D01*
X211328Y143545D01*
X211242Y143616D01*
X211159Y143691D01*
X211079Y143769D01*
X211001Y143849D01*
X210926Y143932D01*
X210855Y144018D01*
X210786Y144106D01*
X210720Y144196D01*
X210657Y144288D01*
X210598Y144383D01*
X210542Y144480D01*
X210489Y144578D01*
X210440Y144679D01*
X210394Y144780D01*
X210352Y144884D01*
X210314Y144989D01*
X210279Y145095D01*
X210247Y145202D01*
X210220Y145310D01*
X210196Y145420D01*
X210176Y145529D01*
X210160Y145640D01*
X210148Y145751D01*
X210139Y145862D01*
X210135Y145974D01*
X210278Y145974D01*
X210283Y145865D01*
X210291Y145756D01*
X210303Y145648D01*
X210319Y145540D01*
X210339Y145433D01*
X210363Y145326D01*
X210391Y145221D01*
X210422Y145116D01*
X210457Y145013D01*
X210495Y144911D01*
X210537Y144810D01*
X210583Y144711D01*
X210632Y144614D01*
X210685Y144518D01*
X210740Y144424D01*
X210800Y144333D01*
X210862Y144243D01*
X210927Y144156D01*
X210996Y144071D01*
X211067Y143989D01*
X211142Y143909D01*
X211219Y143832D01*
X211299Y143757D01*
X211381Y143686D01*
X211466Y143617D01*
X211553Y143552D01*
X211643Y143490D01*
X211734Y143430D01*
X211828Y143375D01*
X211924Y143322D01*
X212021Y143273D01*
X212120Y143227D01*
X212221Y143185D01*
X212323Y143147D01*
X212426Y143112D01*
X212531Y143081D01*
X212636Y143053D01*
X212743Y143029D01*
X212850Y143009D01*
X212958Y142993D01*
X213066Y142981D01*
X213175Y142973D01*
X213284Y142968D01*
X213284Y143111D01*
X213178Y143116D01*
X213072Y143124D01*
X212966Y143136D01*
X212861Y143153D01*
X212757Y143173D01*
X212653Y143196D01*
X212550Y143224D01*
X212449Y143255D01*
X212348Y143290D01*
X212249Y143328D01*
X212151Y143370D01*
X212055Y143415D01*
X211961Y143464D01*
X211868Y143517D01*
X211777Y143572D01*
X211689Y143631D01*
X211603Y143693D01*
X211518Y143758D01*
X211437Y143826D01*
X211358Y143897D01*
X211281Y143971D01*
X211207Y144048D01*
X211136Y144127D01*
X211068Y144208D01*
X211003Y144293D01*
X210941Y144379D01*
X210882Y144467D01*
X210827Y144558D01*
X210774Y144651D01*
X210725Y144745D01*
X210680Y144841D01*
X210638Y144939D01*
X210600Y145038D01*
X210565Y145139D01*
X210534Y145240D01*
X210506Y145343D01*
X210483Y145447D01*
X210463Y145551D01*
X210446Y145656D01*
X210434Y145762D01*
X210426Y145868D01*
X210421Y145974D01*
X210564Y145974D01*
X210569Y145871D01*
X210577Y145768D01*
X210590Y145665D01*
X210606Y145563D01*
X210626Y145461D01*
X210649Y145360D01*
X210677Y145261D01*
X210708Y145162D01*
X210742Y145065D01*
X210781Y144968D01*
X210822Y144874D01*
X210868Y144781D01*
X210916Y144689D01*
X210968Y144600D01*
X211023Y144513D01*
X211082Y144427D01*
X211143Y144344D01*
X211208Y144263D01*
X211276Y144185D01*
X211346Y144109D01*
X211419Y144036D01*
X211495Y143966D01*
X211573Y143898D01*
X211654Y143833D01*
X211737Y143772D01*
X211823Y143713D01*
X211910Y143658D01*
X211999Y143606D01*
X212091Y143558D01*
X212184Y143512D01*
X212278Y143471D01*
X212375Y143432D01*
X212472Y143398D01*
X212571Y143367D01*
X212670Y143339D01*
X212771Y143316D01*
X212873Y143296D01*
X212975Y143280D01*
X213078Y143267D01*
X213181Y143259D01*
X213284Y143254D01*
X213284Y143397D01*
X213184Y143402D01*
X213084Y143410D01*
X212984Y143423D01*
X212885Y143439D01*
X212786Y143459D01*
X212689Y143482D01*
X212592Y143509D01*
X212497Y143540D01*
X212402Y143575D01*
X212309Y143613D01*
X212218Y143654D01*
X212128Y143699D01*
X212040Y143748D01*
X211954Y143799D01*
X211870Y143854D01*
X211788Y143912D01*
X211708Y143973D01*
X211631Y144037D01*
X211556Y144104D01*
X211483Y144173D01*
X211414Y144246D01*
X211347Y144321D01*
X211283Y144398D01*
X211222Y144478D01*
X211164Y144560D01*
X211109Y144644D01*
X211058Y144730D01*
X211009Y144818D01*
X210964Y144908D01*
X210923Y144999D01*
X210885Y145092D01*
X210850Y145187D01*
X210819Y145282D01*
X210792Y145379D01*
X210769Y145476D01*
X210749Y145575D01*
X210733Y145674D01*
X210720Y145774D01*
X210712Y145874D01*
X210707Y145974D01*
X210850Y145974D01*
X210855Y145874D01*
X210864Y145775D01*
X210877Y145676D01*
X210894Y145578D01*
X210915Y145480D01*
X210939Y145383D01*
X210968Y145288D01*
X211000Y145193D01*
X211036Y145100D01*
X211075Y145008D01*
X211118Y144919D01*
X211165Y144830D01*
X211215Y144744D01*
X211269Y144660D01*
X211326Y144578D01*
X211386Y144498D01*
X211449Y144421D01*
X211515Y144346D01*
X211584Y144274D01*
X211656Y144205D01*
X211731Y144139D01*
X211808Y144076D01*
X211888Y144016D01*
X211970Y143959D01*
X212054Y143905D01*
X212140Y143855D01*
X212229Y143808D01*
X212318Y143765D01*
X212410Y143726D01*
X212503Y143690D01*
X212598Y143658D01*
X212693Y143629D01*
X212790Y143605D01*
X212888Y143584D01*
X212986Y143567D01*
X213085Y143554D01*
X213184Y143545D01*
X213284Y143540D01*
X213284Y143683D01*
X213188Y143688D01*
X213092Y143697D01*
X212996Y143710D01*
X212901Y143727D01*
X212807Y143747D01*
X212714Y143772D01*
X212622Y143800D01*
X212531Y143832D01*
X212441Y143868D01*
X212353Y143907D01*
X212266Y143950D01*
X212182Y143996D01*
X212099Y144046D01*
X212019Y144099D01*
X211940Y144155D01*
X211864Y144214D01*
X211791Y144276D01*
X211720Y144342D01*
X211652Y144410D01*
X211586Y144481D01*
X211524Y144554D01*
X211465Y144630D01*
X211409Y144709D01*
X211356Y144789D01*
X211306Y144872D01*
X211260Y144956D01*
X211217Y145043D01*
X211178Y145131D01*
X211142Y145221D01*
X211110Y145312D01*
X211082Y145404D01*
X211057Y145497D01*
X211037Y145591D01*
X211020Y145686D01*
X211007Y145782D01*
X210998Y145878D01*
X210993Y145974D01*
X211136Y145974D01*
X211141Y145881D01*
X211150Y145789D01*
X211163Y145697D01*
X211180Y145606D01*
X211200Y145515D01*
X211224Y145425D01*
X211252Y145337D01*
X211284Y145249D01*
X211319Y145164D01*
X211358Y145079D01*
X211400Y144996D01*
X211446Y144916D01*
X211495Y144837D01*
X211547Y144760D01*
X211603Y144685D01*
X211661Y144613D01*
X211722Y144544D01*
X211787Y144477D01*
X211854Y144412D01*
X211923Y144351D01*
X211995Y144293D01*
X212070Y144237D01*
X212147Y144185D01*
X212226Y144136D01*
X212306Y144090D01*
X212389Y144048D01*
X212474Y144009D01*
X212559Y143974D01*
X212647Y143942D01*
X212735Y143914D01*
X212825Y143890D01*
X212916Y143870D01*
X213007Y143853D01*
X213099Y143840D01*
X213191Y143831D01*
X213284Y143826D01*
X213284Y143969D01*
X213195Y143975D01*
X213106Y143983D01*
X213018Y143996D01*
X212931Y144013D01*
X212844Y144033D01*
X212758Y144057D01*
X212673Y144084D01*
X212590Y144116D01*
X212508Y144150D01*
X212427Y144189D01*
X212349Y144230D01*
X212272Y144275D01*
X212197Y144323D01*
X212124Y144375D01*
X212053Y144429D01*
X211985Y144486D01*
X211920Y144547D01*
X211857Y144610D01*
X211796Y144675D01*
X211739Y144743D01*
X211685Y144814D01*
X211633Y144887D01*
X211585Y144962D01*
X211540Y145039D01*
X211499Y145117D01*
X211460Y145198D01*
X211426Y145280D01*
X211394Y145363D01*
X211367Y145448D01*
X211343Y145534D01*
X211323Y145621D01*
X211306Y145708D01*
X211293Y145796D01*
X211285Y145885D01*
X211279Y145974D01*
X211422Y145974D01*
X211428Y145889D01*
X211437Y145804D01*
X211449Y145720D01*
X211466Y145637D01*
X211486Y145554D01*
X211509Y145472D01*
X211536Y145392D01*
X211567Y145312D01*
X211601Y145234D01*
X211638Y145158D01*
X211679Y145083D01*
X211723Y145010D01*
X211771Y144939D01*
X211821Y144871D01*
X211874Y144804D01*
X211930Y144740D01*
X211989Y144679D01*
X212050Y144620D01*
X212114Y144564D01*
X212181Y144511D01*
X212249Y144461D01*
X212320Y144413D01*
X212393Y144369D01*
X212468Y144328D01*
X212544Y144291D01*
X212622Y144257D01*
X212702Y144226D01*
X212782Y144199D01*
X212864Y144176D01*
X212947Y144156D01*
X213030Y144139D01*
X213114Y144127D01*
X213199Y144118D01*
X213284Y144112D01*
D10*
X241300Y143510D02*
X243840Y143510D01*
X241300Y143510D02*
X240030Y144780D01*
X241300Y161290D02*
X243840Y161290D01*
X241300Y161290D02*
X240030Y160020D01*
X217170Y144780D02*
X215900Y143510D01*
X217170Y144780D02*
X240030Y144780D01*
X217170Y160020D02*
X215900Y161290D01*
X217170Y160020D02*
X240030Y160020D01*
X215900Y143510D02*
X213360Y143510D01*
X213360Y161290D02*
X215900Y161290D01*
M02*
